<svg width="26" height="19" viewBox="0 0 26 19" fill="none" xmlns="http://www.w3.org/2000/svg">
<g filter="url(#filter0_d_33_1612)">
<path d="M19.4452 4.99992C19.4452 5.87683 19.2724 6.74515 18.9369 7.55531C18.6013 8.36546 18.1094 9.10159 17.4894 9.72165C16.8693 10.3417 16.1332 10.8336 15.323 11.1692C14.5128 11.5047 13.6445 11.6775 12.7676 11.6775C11.8907 11.6775 11.0224 11.5047 10.2122 11.1692C9.40208 10.8336 8.66596 10.3417 8.04589 9.72165C7.42583 9.10159 6.93396 8.36546 6.59838 7.5553C6.26281 6.74515 6.09009 5.87683 6.09009 4.99992L12.7676 4.99992H19.4452Z" fill="#F67952"/>
</g>
<defs>
<filter id="filter0_d_33_1612" x="0.0900879" y="-6.10352e-05" width="25.355" height="18.6775" filterUnits="userSpaceOnUse" color-interpolation-filters="sRGB">
<feFlood flood-opacity="0" result="BackgroundImageFix"/>
<feColorMatrix in="SourceAlpha" type="matrix" values="0 0 0 0 0 0 0 0 0 0 0 0 0 0 0 0 0 0 127 0" result="hardAlpha"/>
<feOffset dy="1"/>
<feGaussianBlur stdDeviation="3"/>
<feColorMatrix type="matrix" values="0 0 0 0 0.958333 0 0 0 0 0.786072 0 0 0 0 0.732327 0 0 0 1 0"/>
<feBlend mode="normal" in2="BackgroundImageFix" result="effect1_dropShadow_33_1612"/>
<feBlend mode="normal" in="SourceGraphic" in2="effect1_dropShadow_33_1612" result="shape"/>
</filter>
</defs>
</svg>
