<svg width="324" height="326" viewBox="0 0 324 326" fill="none" xmlns="http://www.w3.org/2000/svg">
<path d="M76.0969 106.963L86.1487 112.899C89.9647 115.384 92.9673 118.983 94.7721 123.229L103.452 143.627L126.773 148.184C126.878 148.56 127.012 149.082 127.113 149.728C127.311 150.988 127.384 152.702 126.914 154.624C126.619 155.842 126.178 156.857 125.725 157.664C125.397 158.257 125.069 158.737 124.794 159.106C116.697 157.863 108.595 156.616 100.498 155.37C96.8439 154.806 93.6754 152.495 91.9678 149.144L86.0273 137.485C85.7845 138.04 85.4851 138.574 85.1411 139.088C83.6479 141.3 83.0611 144.025 83.5063 146.672L87.8969 172.853H51.8495L56.2644 147.016C56.7095 144.414 56.5071 141.735 55.6857 139.229L53.2739 131.902L53.2658 131.906C45.4922 150.64 37.7146 169.382 29.9451 188.116C29.5485 188.323 29.0467 188.559 28.4559 188.778C27.3957 189.184 26.032 189.545 24.4295 189.636C21.694 189.789 19.4926 189.06 18.1613 188.468C17.878 188.339 17.6393 188.223 17.437 188.116L40.0414 123.278C41.3202 119.613 43.9019 116.577 47.2687 114.771L60.4688 107.928L60.7278 107.796L60.9827 108.305C62.2898 110.19 64.0784 111.764 66.1988 112.563C68.3193 113.367 70.7715 113.338 72.7746 112.265C74.7736 111.192 76.0281 109.258 76.0686 106.943L76.0969 106.963Z" fill="#5D9FEE"/>
<path d="M122.099 316.188C122.617 320.574 111.513 318.76 106.629 316.332C102.744 314.406 94.4605 308.471 94.2865 303.319C94.1125 298.166 95.9092 296.054 95.9092 296.054H95.9132C95.5531 297.342 95.2941 299.881 97.4671 302.718C100.599 306.81 118.449 314.556 117.15 310.111C116.45 307.73 113.302 303.737 110.534 300.556C114.706 304.097 121.492 311.126 122.099 316.188Z" fill="black"/>
<path d="M55.7666 78.6371L55.6088 78.6454C53.8364 79.3785 51.809 79.4406 50.0002 78.8193C48.1913 78.2022 46.6091 76.9016 45.6217 75.2283C45.1483 74.4206 44.8124 73.5301 44.6951 72.5982C44.4199 70.4113 45.4437 68.1746 47.0988 66.7581C48.7457 65.3457 50.9471 64.7079 53.0959 64.7161C54.581 64.7203 56.0904 65.0309 57.3408 65.8469C58.5669 66.6504 59.619 68.6882 59.7607 70.1917C62.9211 68.2906 67.7811 66.6628 70.9739 66.8202C74.6523 67.0108 78.2578 68.5308 80.9893 71.0615L81.0135 71.1858C82.6282 72.8674 82.7657 75.6715 81.7055 77.7631C81.3413 78.4797 80.8598 79.1134 80.2973 79.6684C79.2168 80.7412 77.8329 81.5115 76.3842 81.9879C74.1909 82.7044 71.856 82.7955 69.5535 82.8038C68.2464 82.8038 66.907 82.7873 65.6606 83.2014C64.4183 83.6156 63.4916 84.9493 63.176 86.2499L63.1801 86.2582C62.6338 86.3824 62.132 86.7221 61.8366 87.2108C61.3874 87.9481 61.44 88.9752 61.9661 89.6587C62.2089 89.9776 62.5569 90.2178 62.9373 90.3462L62.9089 90.5492C62.9818 91.6219 63.0141 92.6988 63.0141 93.7757C60.2786 92.5787 58.571 89.6835 57.5836 87.1197C56.665 84.7422 55.9042 81.35 55.7666 78.6371Z" fill="black"/>
<path d="M81.3934 88.3829C81.3934 88.5568 81.345 88.7225 81.2603 88.8633C81.2522 88.5195 81.2401 88.1841 81.2199 87.8444C81.3289 87.9977 81.3934 88.1841 81.3934 88.3829Z" fill="black"/>
<path d="M62.8279 296.207C62.8279 296.207 65.1629 300.783 64.916 309.092C64.6732 317.392 57.3569 331.032 52.0437 322.276C46.7345 313.524 51.1008 300.585 52.9663 297.329C52.1853 301.533 51.898 305.832 52.1125 310.103C52.1732 311.267 52.2703 312.447 52.7114 313.524C53.1484 314.597 53.982 315.558 55.0746 315.864C56.3048 316.216 57.6523 315.669 58.579 314.771C59.5097 313.876 60.0884 312.667 60.5821 311.465C62.6337 306.462 63.0627 301.612 62.7187 296.219L62.8279 296.207Z" fill="black"/>
<path d="M23.7093 190.096C21.7709 190.096 19.8083 189.677 17.9954 188.87C17.7 188.737 17.4532 188.617 17.2468 188.505C17.0526 188.406 16.9635 188.174 17.0364 187.967L39.6408 123.133C40.96 119.352 43.5984 116.245 47.0705 114.386L60.7076 107.316C60.918 107.208 61.177 107.291 61.2863 107.506C61.3955 107.721 61.3105 107.987 61.1001 108.098L60.6631 108.322L47.463 115.164C44.1852 116.921 41.6925 119.857 40.4461 123.428L17.9712 187.896C18.0845 187.95 18.2059 188.008 18.3353 188.066C20.2615 188.919 22.3577 189.313 24.4093 189.197C25.7447 189.122 27.0599 188.845 28.3103 188.368C28.7514 188.203 29.1884 188.012 29.6133 187.797C37.3626 169.109 45.12 150.42 52.8733 131.736C52.9664 131.513 53.2213 131.409 53.4358 131.504C53.6543 131.6 53.7555 131.856 53.6624 132.08C45.8888 150.814 38.1112 169.556 30.3417 188.29C30.3012 188.385 30.2324 188.464 30.1434 188.509C29.6416 188.77 29.1237 189.002 28.6057 189.193C27.2744 189.698 25.8783 189.996 24.4538 190.075C24.207 190.087 23.9602 190.096 23.7093 190.096Z" fill="black"/>
<path d="M87.905 173.292H51.8576C51.7321 173.292 51.6107 173.234 51.5298 173.134C51.4489 173.035 51.4125 172.902 51.4367 172.778L55.8516 146.941C56.2846 144.423 56.0863 141.805 55.2891 139.37L51.457 127.706C51.3801 127.478 51.5015 127.226 51.7281 127.151C51.9547 127.077 52.1975 127.197 52.2703 127.429L56.1025 139.092C56.9482 141.664 57.1546 144.435 56.6974 147.094L52.3715 172.418H87.3991L83.0935 146.751C82.6241 143.971 83.2311 141.163 84.7971 138.84C85.129 138.351 85.4122 137.837 85.6469 137.307C86.2175 136.023 86.5048 134.66 86.5048 133.248C86.5048 131.533 86.0637 129.835 85.222 128.344L83.0085 124.401C82.8912 124.19 82.96 123.925 83.1664 123.8C83.3727 123.68 83.6317 123.751 83.7531 123.962L85.9666 127.905C86.8771 129.529 87.3627 131.376 87.3627 133.248C87.3627 134.785 87.0471 136.272 86.4279 137.671C86.173 138.247 85.8614 138.811 85.5013 139.341C84.0647 141.474 83.5063 144.05 83.9352 146.601L88.3258 172.782C88.346 172.911 88.3137 173.039 88.2327 173.139C88.1518 173.238 88.0304 173.292 87.905 173.292Z" fill="black"/>
<path d="M124.798 159.545C124.778 159.545 124.758 159.545 124.733 159.541C116.636 158.298 108.535 157.052 100.437 155.805C96.6619 155.225 93.3558 152.81 91.5914 149.348L85.655 137.696C85.5579 137.523 85.5903 137.295 85.74 137.158C85.914 136.997 86.1851 137.005 86.343 137.187C86.3672 137.216 86.3915 137.249 86.4118 137.282L92.3522 148.942C93.9911 152.156 97.0625 154.397 100.567 154.935C108.579 156.169 116.596 157.404 124.608 158.634C124.887 158.24 125.134 157.851 125.357 157.453C125.866 156.542 126.251 155.556 126.502 154.521C126.878 152.98 126.939 151.39 126.692 149.803C126.627 149.393 126.546 148.987 126.437 148.569L103.375 144.063C103.238 144.034 103.12 143.938 103.064 143.806L94.3836 123.407C92.6031 119.224 89.6774 115.72 85.9221 113.272L75.8865 107.349L76.0726 106.951L76.2871 106.57L86.3713 112.522C90.2884 115.069 93.3274 118.71 95.1727 123.055L103.764 143.243L126.862 147.757C127.02 147.786 127.149 147.906 127.194 148.068C127.347 148.615 127.465 149.136 127.546 149.667C127.813 151.373 127.744 153.075 127.339 154.736C127.068 155.846 126.655 156.911 126.109 157.888C125.83 158.394 125.518 158.878 125.146 159.375C125.061 159.483 124.932 159.545 124.798 159.545Z" fill="black"/>
<path d="M107.98 292.947H92.9228C92.7205 292.947 92.5465 292.806 92.506 292.603L71.6699 198.048C71.6173 197.812 71.763 197.576 71.9937 197.522C72.2243 197.468 72.455 197.617 72.5076 197.853L93.2668 292.065H107.491L95.2092 199.017C94.6426 194.701 93.6229 190.427 92.1782 186.306L87.5044 172.998C87.4235 172.77 87.5408 172.517 87.7634 172.434C87.9859 172.351 88.2328 172.472 88.3137 172.699L92.9876 186.007C94.4524 190.187 95.4843 194.523 96.063 198.897L108.409 292.442C108.425 292.566 108.389 292.694 108.308 292.79C108.219 292.893 108.102 292.947 107.98 292.947Z" fill="black"/>
<path d="M65.43 292.947H50.7286C50.4979 292.947 50.3078 292.761 50.2997 292.525L46.8115 197.422C46.5889 193.666 46.9612 189.913 47.9121 186.272L51.4408 172.741C51.5015 172.505 51.7403 172.368 51.9669 172.43C52.1975 172.492 52.3311 172.733 52.2704 172.969L48.7417 186.5C47.815 190.046 47.4549 193.707 47.6693 197.381L51.1414 292.073H65.0294L71.6456 198.085L67.2307 191.74C67.0932 191.541 67.1377 191.268 67.3319 191.127C67.5262 190.986 67.7932 191.031 67.9308 191.23L72.4347 197.7C72.4914 197.783 72.5197 197.886 72.5116 197.986L65.8549 292.541C65.8428 292.769 65.6566 292.947 65.43 292.947Z" fill="black"/>
<path d="M72.0867 198.392C71.9937 198.392 71.8966 198.359 71.8197 198.296C71.6335 198.143 71.6052 197.866 71.7549 197.679L76.6878 191.425C76.8375 191.234 77.1046 191.205 77.2907 191.359C77.4769 191.512 77.5052 191.79 77.3555 191.976L72.4226 198.23C72.3376 198.338 72.2122 198.392 72.0867 198.392Z" fill="black"/>
<path d="M53.3629 296.14C53.1363 296.14 52.9502 295.962 52.934 295.73L52.7357 292.537C52.7357 292.529 52.7357 292.487 52.7357 292.479C52.7357 292.235 52.9259 292.04 53.1647 292.04C53.4034 292.04 53.5936 292.235 53.5936 292.479V292.508L53.7919 295.672C53.8081 295.913 53.626 296.124 53.3913 296.136C53.3791 296.14 53.371 296.14 53.3629 296.14Z" fill="black"/>
<path d="M62.7026 296.393C62.6904 296.393 62.6783 296.393 62.6621 296.393C62.4274 296.373 62.2534 296.157 62.2736 295.917C62.3262 295.333 62.3303 294.799 62.3343 294.227C62.3384 293.668 62.3424 293.088 62.3991 292.471C62.4193 292.239 62.6014 292.048 62.8442 292.057C63.0749 292.069 63.2529 292.247 63.2529 292.479V292.508C63.2003 293.13 63.1963 293.664 63.1922 294.231C63.1882 294.79 63.1841 295.374 63.1275 295.992C63.1113 296.224 62.9211 296.393 62.7026 296.393Z" fill="black"/>
<path d="M55.8597 316.403C55.5522 316.403 55.2527 316.361 54.9614 316.278C53.8405 315.964 52.8531 314.994 52.3189 313.686C51.8455 312.53 51.7443 311.292 51.6876 310.119C51.4732 305.812 51.7605 301.479 52.5496 297.238C52.6346 296.778 52.7276 296.314 52.8247 295.855C52.8774 295.619 53.104 295.47 53.3346 295.519C53.5653 295.573 53.711 295.805 53.6624 296.041C53.5653 296.493 53.4763 296.944 53.3913 297.4C52.6184 301.571 52.3311 305.833 52.5455 310.07C52.6022 311.163 52.6912 312.319 53.1121 313.342C53.545 314.406 54.322 315.185 55.192 315.429C56.3777 315.765 57.5674 315.139 58.2877 314.439C59.1699 313.59 59.7243 312.418 60.1896 311.283C62.0227 306.81 62.6702 302.171 62.2939 296.236L62.2777 295.971C62.2655 295.731 62.4476 295.523 62.6864 295.511C62.917 295.494 63.1234 295.685 63.1356 295.929L63.1517 296.186C63.5402 302.258 62.8685 307.021 60.9828 311.627C60.481 312.853 59.878 314.121 58.8785 315.081C58.0004 315.935 56.9037 316.403 55.8597 316.403Z" fill="black"/>
<path d="M55.8839 325.536C54.6456 325.536 53.1241 324.881 51.6835 322.504C46.3339 313.682 50.4817 300.8 52.6021 297.102C52.7194 296.89 52.9825 296.82 53.1889 296.944C53.3912 297.068 53.46 297.334 53.3426 297.545C51.376 300.974 47.3334 313.665 52.4159 322.04C53.6825 324.132 55.107 324.977 56.6528 324.55C60.489 323.494 64.3211 314.937 64.4951 309.076C64.7339 300.978 62.4799 296.451 62.4556 296.406C62.3464 296.19 62.4273 295.925 62.6377 295.813C62.8482 295.702 63.1071 295.784 63.2164 296C63.3135 296.19 65.5999 300.775 65.353 309.101C65.1709 315.305 61.1445 324.223 56.8753 325.395C56.5678 325.482 56.236 325.536 55.8839 325.536Z" fill="black"/>
<path d="M115.73 311.872C111.222 311.872 99.5916 306.21 97.1272 302.987C94.8327 299.989 95.1241 297.28 95.5004 295.934C95.6057 295.54 95.727 295.25 95.8039 295.089L95.4438 292.728C95.4074 292.488 95.5652 292.264 95.7999 292.227C96.0346 292.185 96.2531 292.351 96.2895 292.591L96.6699 295.093C96.6861 295.192 96.6659 295.292 96.6214 295.379C96.6214 295.379 96.4635 295.673 96.3259 296.174C95.9941 297.363 95.7432 299.757 97.803 302.449C100.514 305.99 114.204 312.124 116.587 310.861C116.697 310.803 116.875 310.708 116.737 310.24C116.191 308.372 113.933 305.124 110.21 300.85C107.847 298.133 105.734 295.975 105.71 295.954C105.649 295.892 105.605 295.809 105.593 295.722L105.079 292.848C105.034 292.608 105.192 292.38 105.423 292.338C105.662 292.293 105.88 292.454 105.921 292.69L106.41 295.432C106.851 295.884 108.753 297.86 110.849 300.27C113.504 303.319 116.818 307.477 117.559 309.991C117.777 310.733 117.567 311.337 116.98 311.644C116.672 311.797 116.247 311.872 115.73 311.872Z" fill="black"/>
<path d="M117.51 319.277C113.909 319.277 109.198 318.092 106.443 316.726C102.578 314.808 94.0437 308.773 93.8576 303.331C93.6795 298.066 95.5045 295.855 95.5855 295.763C95.7433 295.581 96.0144 295.561 96.1925 295.722C96.3705 295.879 96.3907 296.157 96.2329 296.343C96.2167 296.36 94.5495 298.423 94.7154 303.306C94.8773 308.073 102.679 313.888 106.819 315.943C110.72 317.881 118.659 319.422 121.075 317.658C121.557 317.305 121.751 316.854 121.678 316.245C121.083 311.279 114.22 304.258 110.259 300.895C110.076 300.742 110.052 300.465 110.202 300.278C110.352 300.092 110.623 300.067 110.805 300.22C111.922 301.169 121.755 309.689 122.528 316.142C122.637 317.065 122.305 317.84 121.573 318.374C120.687 319.012 119.222 319.277 117.51 319.277Z" fill="black"/>
<path d="M69.2177 113.562C68.1574 113.562 67.077 113.367 66.0451 112.978C63.9651 112.191 62.0915 110.666 60.6307 108.562C60.4931 108.363 60.5376 108.09 60.7319 107.949C60.9261 107.808 61.1932 107.854 61.3308 108.053C62.6904 110.012 64.4264 111.428 66.3445 112.153C68.4367 112.949 70.7675 112.845 72.5723 111.876C74.4823 110.853 75.5992 109.051 75.6356 106.939C75.6397 106.698 75.846 106.508 76.0726 106.508C76.3073 106.512 76.4975 106.711 76.4935 106.955C76.453 109.366 75.1338 111.495 72.9689 112.659C71.848 113.255 70.549 113.562 69.2177 113.562Z" fill="black"/>
<path d="M60.3434 108.624C60.2746 108.624 60.2098 108.608 60.1451 108.575C59.9347 108.463 59.8537 108.198 59.963 107.982L60.0884 107.734C61.6221 104.644 62.5771 99.301 62.5812 93.784C62.5812 92.6989 62.5447 91.622 62.4759 90.5906C62.4598 90.3504 62.6378 90.1392 62.8725 90.1226C63.0991 90.1143 63.3136 90.2883 63.3298 90.5285C63.4026 91.5847 63.439 92.6781 63.439 93.784C63.435 99.4294 62.4436 104.93 60.8533 108.132L60.7238 108.393C60.6469 108.537 60.4971 108.624 60.3434 108.624Z" fill="black"/>
<path d="M76.2951 107.577C76.2021 107.577 76.105 107.543 76.024 107.477C75.9471 107.415 75.8783 107.349 75.8055 107.283C74.1423 105.779 73.4423 103.836 73.6041 101.173C73.6203 100.933 73.8186 100.747 74.0574 100.763C74.2921 100.78 74.4742 100.987 74.458 101.227C74.3123 103.596 74.9233 105.311 76.3801 106.628C76.4449 106.69 76.5015 106.74 76.5622 106.79C76.7443 106.943 76.7726 107.22 76.627 107.407C76.542 107.523 76.4165 107.577 76.2951 107.577Z" fill="black"/>
<path d="M63.6414 90.9137C63.3581 90.9137 63.0708 90.864 62.7956 90.7688C62.3303 90.6072 61.9135 90.309 61.6262 89.9362C60.9949 89.112 60.9302 87.8694 61.4724 86.9831C61.8245 86.4073 62.4112 85.989 63.087 85.8358C63.431 85.7571 63.7911 85.7529 64.131 85.8275C64.3617 85.8772 64.5114 86.1091 64.4629 86.3494C64.4143 86.5854 64.1877 86.7387 63.953 86.689C63.7345 86.6393 63.4998 86.6434 63.2732 86.6973C62.828 86.7967 62.4274 87.0825 62.2008 87.4552C61.8447 88.0392 61.8852 88.8593 62.302 89.4019C62.4881 89.6422 62.7592 89.8368 63.0708 89.9445C63.4229 90.0688 63.7952 90.0771 64.1229 89.9652C64.3496 89.8865 64.5883 90.0149 64.6652 90.2427C64.738 90.4747 64.6166 90.7191 64.3941 90.7977C64.1553 90.8723 63.8963 90.9137 63.6414 90.9137Z" fill="black"/>
<path d="M63.176 94.2893C63.1234 94.2893 63.0749 94.2811 63.0223 94.2603C62.9535 94.2313 62.8847 94.2065 62.8199 94.1734C59.8578 92.877 58.1177 89.7125 57.183 87.2854C56.2158 84.7671 55.4753 81.3003 55.3377 78.6578C55.3215 78.3927 55.3094 78.1235 55.3094 77.8626C55.3094 77.6182 55.4996 77.4235 55.7383 77.4235C55.9771 77.4235 56.1673 77.6182 56.1673 77.8626C56.1673 78.1028 56.1754 78.3513 56.1916 78.604C56.321 81.1678 57.0373 84.5227 57.9761 86.9623C58.8502 89.2321 60.4607 92.1853 63.176 93.374C63.2408 93.4071 63.2812 93.4195 63.3258 93.4361C63.5483 93.5231 63.6576 93.7757 63.5726 94.0035C63.5079 94.1858 63.346 94.2893 63.176 94.2893Z" fill="black"/>
<path d="M63.176 86.6931C63.1436 86.6931 63.1072 86.689 63.0748 86.6807C62.8442 86.6227 62.7025 86.3866 62.7592 86.1505C63.0789 84.8293 64.0581 83.2802 65.5271 82.7915C66.7896 82.369 68.121 82.3731 69.3997 82.369H69.5535C71.6415 82.3607 74.0533 82.2944 76.2547 81.5737C77.7277 81.0891 79.0226 80.327 79.9978 79.3578C80.5441 78.8194 80.9893 78.2147 81.3211 77.5644C82.3651 75.51 82.1061 72.9627 80.706 71.5006C80.5401 71.3267 80.5441 71.0492 80.71 70.8794C80.88 70.7095 81.1511 70.7095 81.317 70.8835C82.9721 72.6065 83.2918 75.5887 82.0818 77.9703C81.7055 78.7034 81.2037 79.3827 80.5927 79.9874C79.5244 81.0436 78.1161 81.8802 76.5137 82.4063C74.195 83.1642 71.7063 83.2346 69.5535 83.2429H69.3997C68.1817 83.2429 66.9272 83.2429 65.7901 83.6198C64.6409 84.0009 63.8437 85.3056 63.5887 86.3535C63.5442 86.5564 63.3662 86.6931 63.176 86.6931Z" fill="black"/>
<path d="M58.4536 71.5088C58.3201 71.5088 58.1906 71.4467 58.1096 71.3307C57.968 71.136 58.0085 70.8626 58.2027 70.7177C58.5952 70.4236 59.0444 70.1212 59.5462 69.823C62.5245 68.0337 67.5626 66.2237 70.9981 66.3935C74.806 66.5882 78.4561 68.1373 81.2806 70.7467C81.4546 70.9082 81.4708 71.1857 81.313 71.368C81.1552 71.5461 80.8841 71.5626 80.706 71.4011C78.0676 68.9615 74.5147 67.458 70.9577 67.2716C67.6678 67.1018 62.8523 68.858 59.9832 70.5851C59.5098 70.8668 59.0849 71.1526 58.7166 71.4301C58.6316 71.4798 58.5426 71.5088 58.4536 71.5088Z" fill="black"/>
<path d="M52.5657 79.6808C51.6471 79.6808 50.7286 79.5317 49.8626 79.2376C47.9688 78.5874 46.2894 77.2123 45.2535 75.4561C44.7153 74.5366 44.3875 73.5964 44.2701 72.6562C43.9869 70.403 44.9662 68.0172 46.8236 66.4268C48.4341 65.0434 50.6436 64.2812 53.0513 64.2812C53.0675 64.2812 53.0837 64.2812 53.0958 64.2812C54.8521 64.2854 56.3574 64.6913 57.5714 65.4824C59.0039 66.4226 60.0439 68.6385 60.1855 70.1586C60.1896 70.1959 60.1977 70.2414 60.1977 70.2829C60.1977 70.5272 60.0075 70.7219 59.7687 70.7219C59.534 70.7219 59.3438 70.5314 59.3398 70.2911C59.3398 70.2787 59.3317 70.2414 59.3317 70.2414C59.1941 68.7876 58.1541 66.9072 57.1101 66.2238C56.0337 65.5238 54.6862 65.1635 53.0958 65.1593C53.0797 65.1593 53.0675 65.1593 53.0554 65.1593C50.85 65.1593 48.8347 65.8469 47.378 67.0977C45.7674 68.477 44.8852 70.6142 45.128 72.5443C45.2292 73.3644 45.5206 74.1928 45.9981 75.0046C46.9288 76.5827 48.4382 77.8211 50.1458 78.4051C51.8535 78.9891 53.7919 78.9311 55.4591 78.2394C55.6776 78.1483 55.9285 78.256 56.0175 78.4797C56.1065 78.7033 56.0013 78.9601 55.7828 79.0513C54.759 79.4696 53.6624 79.6808 52.5657 79.6808Z" fill="black"/>
<path d="M74.4256 100.966C74.2921 100.966 74.1585 100.962 74.025 100.958C72.9971 100.92 71.9653 100.738 70.9981 100.556C70.7634 100.51 70.6096 100.282 70.6542 100.046C70.6987 99.8062 70.9212 99.6488 71.1519 99.6943C72.0907 99.8724 73.0862 100.046 74.0574 100.084C75.0812 100.125 75.9471 99.9967 76.7079 99.6902C78.2861 99.0523 79.577 97.5281 80.2406 95.511C80.8597 93.643 80.9043 91.5886 80.8557 89.642C80.8517 89.3893 80.8436 89.1366 80.8314 88.8881C80.8233 88.5361 80.8112 88.2047 80.791 87.8692C80.7222 86.4278 80.6048 84.9533 80.4389 83.4788C80.2932 82.2238 80.1233 80.9895 79.925 79.8049C79.8845 79.5647 80.0423 79.3369 80.277 79.2996C80.5117 79.2582 80.7343 79.4197 80.7707 79.66C80.9731 80.857 81.1471 82.1078 81.2927 83.3794C81.4627 84.8746 81.5841 86.374 81.6529 87.8278C81.6691 88.1674 81.6812 88.5112 81.6934 88.855C81.7055 89.1035 81.7136 89.3686 81.7176 89.6254C81.7621 91.6466 81.7176 93.7963 81.054 95.7927C80.3054 98.0541 78.8364 99.773 77.0235 100.506C76.2506 100.813 75.4008 100.966 74.4256 100.966Z" fill="black"/>
<path d="M158.531 163.911H138.205C136.477 163.911 134.971 162.718 134.546 161.007C134.465 160.713 134.425 160.386 134.425 160.042V152.86C134.425 152.616 134.615 152.421 134.854 152.421C135.093 152.421 135.283 152.616 135.283 152.86V160.042C135.283 160.307 135.315 160.556 135.376 160.783C135.708 162.113 136.869 163.032 138.205 163.032H158.531C160.141 163.032 161.452 161.69 161.452 160.042C161.452 159.798 161.643 159.603 161.881 159.603C162.12 159.603 162.31 159.798 162.31 160.042C162.31 162.175 160.615 163.911 158.531 163.911Z" fill="black"/>
<path d="M161.788 148.386C161.594 148.386 161.416 148.25 161.371 148.047C161.06 146.688 159.89 145.74 158.531 145.74H138.205C136.853 145.74 135.688 146.68 135.372 148.022C135.356 148.072 135.352 148.101 135.348 148.126L134.927 148.051L134.51 147.952C134.522 147.898 134.53 147.844 134.546 147.794C134.947 146.079 136.456 144.862 138.209 144.862H158.535C160.295 144.862 161.809 146.088 162.213 147.848C162.266 148.084 162.124 148.32 161.893 148.374C161.857 148.382 161.821 148.386 161.788 148.386ZM134.927 148.051H134.931H134.927Z" fill="black"/>
<path d="M133.138 153.813C132.665 153.813 132.187 153.734 131.73 153.572C131.507 153.494 131.386 153.245 131.463 153.013C131.54 152.785 131.783 152.661 132.009 152.74C132.879 153.046 133.846 152.984 134.664 152.566C134.7 152.549 134.716 152.545 134.733 152.533C134.874 152.454 135 152.375 135.125 152.297C135.412 152.118 135.708 151.932 136.06 151.82C136.817 151.576 137.565 151.754 138.294 151.924C138.439 151.957 138.589 151.994 138.735 152.023C139.981 152.284 141.288 152.222 142.51 151.837C142.761 151.758 143.077 151.646 143.299 151.448C143.469 151.29 143.566 151.066 143.538 150.893C143.477 150.545 142.955 150.321 142.571 150.184C141.134 149.671 139.702 149.157 138.265 148.639C137.569 148.391 136.841 148.13 136.141 148.146C135.809 148.155 135.461 148.217 135.089 148.337C134.526 148.519 133.98 148.809 133.405 149.116C132.997 149.335 132.572 149.559 132.139 149.745C130.544 150.429 128.735 150.569 127.056 150.147C126.825 150.089 126.684 149.853 126.741 149.617C126.797 149.381 127.032 149.24 127.258 149.294C128.764 149.671 130.378 149.542 131.807 148.933C132.207 148.764 132.616 148.544 133.009 148.337C133.591 148.026 134.19 147.707 134.826 147.5C135.279 147.355 135.704 147.277 136.121 147.268C136.978 147.248 137.812 147.55 138.545 147.811C139.981 148.329 141.414 148.842 142.85 149.356C143.259 149.501 144.222 149.845 144.38 150.739C144.465 151.211 144.27 151.737 143.866 152.106C143.514 152.417 143.089 152.574 142.761 152.678C141.401 153.104 139.949 153.175 138.561 152.885C138.407 152.852 138.253 152.818 138.099 152.781C137.456 152.628 136.849 152.487 136.315 152.661C136.064 152.74 135.825 152.889 135.574 153.046C135.433 153.133 135.295 153.224 135.149 153.299C135.117 153.316 135.073 153.34 135.028 153.357C134.445 153.659 133.794 153.813 133.138 153.813Z" fill="black"/>
<path d="M133.96 161.454C132.984 161.454 132.046 161.032 131.325 160.704L130.868 160.497C129.185 159.735 127.501 158.977 125.822 158.219C125.603 158.12 125.506 157.863 125.603 157.639C125.701 157.416 125.951 157.316 126.17 157.416C127.853 158.174 129.537 158.932 131.22 159.694L131.677 159.901C132.697 160.361 133.616 160.725 134.486 160.518C134.716 160.464 134.947 160.609 135 160.845C135.052 161.081 134.911 161.317 134.68 161.371C134.437 161.429 134.198 161.454 133.96 161.454Z" fill="black"/>
<path d="M240.969 126.791L250.939 170.165C246.792 171.192 239.933 172.633 233.551 172.646C226.304 172.667 218.097 171.503 213.638 170.289V169.742L211.537 162.345V162.341C215.665 162.134 219.477 160.001 221.877 156.542L239.046 131.798C240.135 130.27 240.754 128.543 240.92 126.791H240.969Z" fill="#F67952"/>
<path d="M201.757 162.37L173.673 162.424V160.448V150.54V147.475L200.628 146.792L196.047 131.198C194.25 125.08 196.852 118.503 202.307 115.392L204.096 114.373C204.14 114.435 204.181 114.502 204.221 114.564C206.637 118.064 211.129 119.936 215.244 119.128C219.287 118.333 223.568 114.783 224.673 110.699C224.713 110.55 224.75 110.405 224.782 110.256L236.683 117.393C239.771 119.584 241.268 123.229 240.924 126.787C240.758 128.539 240.139 130.266 239.051 131.794L221.881 156.538C219.477 159.996 215.665 162.129 211.542 162.337C211.44 162.341 211.331 162.345 211.23 162.349L201.757 162.37Z" fill="#F67952"/>
<path d="M197.803 85.2226C197.229 84.9368 196.666 84.6221 196.132 84.27L195.877 83.9552C194.275 81.2547 194.469 77.5518 196.359 75.0501C198.24 72.5484 201.688 71.4011 204.65 72.304C206.232 72.7886 207.641 73.7786 209.235 74.2176C211.991 74.9714 215.066 74.0146 217.692 75.162C219.42 75.9116 220.675 77.4607 221.852 78.9559C222.633 79.9376 223.431 80.9523 223.811 82.1618C224.244 83.5245 224.102 85.0155 223.722 86.3948C223.338 87.7699 222.718 89.0622 222.184 90.3834C220.562 94.3555 221.043 98.63 218.793 100.548C218.312 98.8122 217.907 96.8075 217.62 94.4839L217.616 94.4798C218.271 94.1236 218.842 93.6307 219.263 93.0094C220.133 91.7213 220.181 89.816 219.149 88.6604C218.437 87.8693 217.288 87.5255 216.272 87.7989C215.778 87.9314 215.333 88.2089 214.977 88.5776C214.702 87.5628 214.435 86.5439 214.164 85.5291L213.868 85.4256C209.267 86.7965 204.278 87.5255 199.721 86.0096C199.058 85.7818 198.422 85.5208 197.803 85.2226Z" fill="black"/>
<path d="M213.642 170.289L214.152 171.726L204.124 198.86L202.744 198.764L191.879 198.015L191.041 197.957L201.753 162.374L211.222 162.357C211.323 162.353 211.432 162.349 211.533 162.345V162.349L213.634 169.746V170.289H213.642Z" fill="#F67952"/>
<path d="M198.944 92.5164C198.977 92.7359 199.017 92.9595 199.057 93.1791C198.977 93.0382 198.928 92.8726 198.928 92.6945C198.928 92.6365 198.932 92.5743 198.944 92.5164Z" fill="black"/>
<path d="M192.158 303.269V312.749H157.333L159.02 309.97C160.157 308.094 162.112 306.905 164.265 306.785L167.777 306.578C169.922 306.454 171.949 305.551 173.503 304.035L175.458 302.13C175.741 301.852 176.121 301.699 176.514 301.699H176.894C177.42 301.699 177.91 301.976 178.189 302.428L179.618 304.751C180.148 305.613 181.07 306.131 182.066 306.131H185.226C186.149 306.131 187.019 305.679 187.565 304.909L189.382 302.345C189.556 302.101 189.795 301.914 190.066 301.811C190.24 301.736 190.43 301.699 190.625 301.699C191.474 301.699 192.158 302.403 192.158 303.269Z" fill="black"/>
<path d="M192.984 299.077H174.75C174.62 299.077 174.499 299.019 174.418 298.916C174.337 298.812 174.304 298.68 174.329 298.551L188.241 227.228C189.083 222.92 191.126 219.01 194.145 215.92C194.44 215.614 194.756 215.307 195.088 215.001L196.164 214.019C203.744 207.102 215.665 196.118 220.825 191.359C220.727 191.309 220.65 191.226 220.61 191.115L213.237 170.438C213.18 170.285 213.217 170.111 213.322 169.991C213.431 169.871 213.593 169.821 213.747 169.862C218.036 171.035 226.122 172.207 233.349 172.207C233.418 172.207 233.482 172.207 233.547 172.207C239.649 172.194 246.314 170.857 250.834 169.738C251.033 169.689 251.235 169.788 251.324 169.978L251.36 170.053C253.351 174.348 259.191 189.168 250.636 199.527C249.462 200.943 248.046 202.231 246.436 203.35L211.914 230.21L193.396 298.754C193.344 298.945 193.174 299.077 192.984 299.077ZM175.272 298.199H192.656L211.125 229.837C211.149 229.746 211.206 229.663 211.279 229.605L245.934 202.646C247.5 201.556 248.855 200.322 249.98 198.968C258.053 189.201 252.732 175.152 250.701 170.683C246.148 171.793 239.589 173.081 233.555 173.093C233.486 173.093 233.422 173.093 233.353 173.093C226.474 173.093 218.817 172.037 214.322 170.927L214.556 171.581L221.419 190.816C227.586 185.13 232.167 180.892 232.167 180.892C232.341 180.731 232.612 180.743 232.774 180.925C232.932 181.104 232.92 181.381 232.742 181.547C232.742 181.547 228.052 185.883 221.771 191.674C216.835 196.23 204.509 207.591 196.735 214.682L195.659 215.659C195.343 215.949 195.035 216.248 194.752 216.542C191.851 219.511 189.892 223.268 189.083 227.402L175.272 298.199Z" fill="black"/>
<path d="M266.313 293.092C266.147 293.092 265.993 292.997 265.92 292.831L231.576 213.452C231.479 213.228 231.58 212.971 231.795 212.872C232.013 212.773 232.264 212.876 232.361 213.096L232.616 213.684L266.709 292.475C266.806 292.695 266.709 292.956 266.491 293.055C266.43 293.08 266.369 293.092 266.313 293.092Z" fill="black"/>
<path d="M271.674 253.405C271.504 253.405 271.343 253.301 271.274 253.127L250.579 199.697C250.49 199.473 250.6 199.216 250.822 199.125C251.041 199.038 251.292 199.146 251.381 199.373L272.075 252.804C272.164 253.028 272.055 253.284 271.832 253.376C271.78 253.396 271.727 253.405 271.674 253.405Z" fill="black"/>
<path d="M213.642 170.181C213.456 170.181 213.286 170.057 213.229 169.867L211.129 162.469C211.064 162.237 211.193 161.993 211.42 161.927C211.651 161.856 211.885 161.993 211.95 162.225L214.05 169.622C214.115 169.854 213.986 170.099 213.759 170.165C213.723 170.173 213.682 170.181 213.642 170.181Z" fill="black"/>
<path d="M250.94 170.608C250.745 170.608 250.567 170.471 250.523 170.268L240.552 126.894C240.499 126.658 240.641 126.422 240.872 126.364C241.102 126.31 241.333 126.455 241.39 126.691L251.36 170.065C251.413 170.301 251.271 170.537 251.041 170.595C251.004 170.604 250.972 170.608 250.94 170.608Z" fill="black"/>
<path d="M173.673 162.863C173.56 162.863 173.451 162.817 173.37 162.734C173.289 162.651 173.244 162.54 173.244 162.424V147.475C173.244 147.235 173.43 147.041 173.661 147.036L207.944 146.162L220.849 126.981C220.982 126.783 221.249 126.729 221.444 126.87C221.638 127.006 221.686 127.28 221.553 127.478L208.523 146.846C208.446 146.962 208.316 147.032 208.179 147.036L174.094 147.902V161.98L211.27 161.91L211.513 161.902C215.536 161.699 219.186 159.653 221.525 156.285L238.694 131.542C239.706 130.121 240.329 128.464 240.491 126.745C240.831 123.216 239.277 119.77 236.432 117.753L224.56 110.633C224.353 110.513 224.288 110.244 224.406 110.033C224.527 109.821 224.786 109.755 224.993 109.875L236.894 117.012C240.022 119.228 241.717 122.984 241.345 126.828C241.167 128.704 240.491 130.51 239.39 132.051L222.225 156.791C219.732 160.377 215.843 162.56 211.558 162.776L211.242 162.788L173.673 162.863Z" fill="black"/>
<path d="M192.158 313.189H157.333C157.175 313.189 157.033 313.102 156.957 312.965C156.88 312.824 156.884 312.654 156.969 312.522L158.656 309.743C159.866 307.746 161.954 306.479 164.241 306.35L167.753 306.143C169.788 306.027 171.727 305.166 173.208 303.72L175.162 301.815C175.518 301.467 176.012 301.264 176.514 301.264H176.894C177.574 301.264 178.193 301.612 178.553 302.196L179.982 304.52C180.435 305.253 181.216 305.692 182.066 305.692H185.226C186.011 305.692 186.756 305.303 187.217 304.652L189.034 302.088C189.261 301.774 189.564 301.538 189.912 301.401C190.123 301.31 190.37 301.264 190.62 301.264C191.705 301.264 192.583 302.163 192.583 303.269V312.75C192.587 312.994 192.397 313.189 192.158 313.189ZM158.106 312.311H191.729V303.269C191.729 302.648 191.232 302.142 190.625 302.142C190.483 302.142 190.349 302.167 190.232 302.217C190.026 302.295 189.86 302.428 189.73 302.606L187.913 305.17C187.29 306.048 186.287 306.57 185.23 306.57H182.07C180.921 306.57 179.873 305.978 179.258 304.988L177.829 302.664C177.627 302.337 177.279 302.142 176.898 302.142H176.518C176.235 302.142 175.96 302.254 175.757 302.449L173.803 304.354C172.176 305.94 170.043 306.889 167.806 307.017L164.293 307.224C162.282 307.34 160.449 308.455 159.389 310.207L158.106 312.311Z" fill="black"/>
<path d="M192.158 317.563H157.333C157.094 317.563 156.904 317.368 156.904 317.124V312.75C156.904 312.505 157.094 312.311 157.333 312.311C157.572 312.311 157.762 312.505 157.762 312.75V316.685H191.729V312.75C191.729 312.505 191.919 312.311 192.158 312.311C192.397 312.311 192.587 312.505 192.587 312.75V317.124C192.587 317.364 192.397 317.563 192.158 317.563Z" fill="black"/>
<path d="M176.894 302.142C176.87 302.142 176.846 302.138 176.817 302.134C176.583 302.093 176.429 301.865 176.469 301.625L176.906 299.086C176.947 298.845 177.169 298.688 177.404 298.729C177.639 298.771 177.793 298.999 177.752 299.239L177.315 301.778C177.283 301.989 177.101 302.142 176.894 302.142Z" fill="black"/>
<path d="M190.018 302.142C189.989 302.142 189.961 302.138 189.937 302.134C189.706 302.088 189.552 301.856 189.597 301.62L190.082 299.081C190.127 298.841 190.353 298.688 190.584 298.733C190.815 298.779 190.968 299.011 190.924 299.247L190.438 301.786C190.398 301.993 190.22 302.142 190.018 302.142Z" fill="black"/>
<path d="M200.628 147.231C200.442 147.231 200.272 147.107 200.215 146.921L195.634 131.331C193.793 125.064 196.512 118.201 202.097 115.016L203.885 113.997C204.076 113.889 204.314 113.943 204.444 114.125C204.492 114.191 204.537 114.266 204.581 114.332C206.884 117.671 211.238 119.476 215.163 118.702C219.25 117.898 223.244 114.336 224.256 110.588L224.268 110.546C224.301 110.422 224.333 110.298 224.357 110.174C224.406 109.938 224.632 109.784 224.863 109.834C225.094 109.884 225.243 110.116 225.195 110.352C225.167 110.493 225.13 110.629 225.094 110.77L225.082 110.816C223.989 114.862 219.704 118.702 215.321 119.563C211.133 120.383 206.487 118.495 203.962 114.953L202.514 115.778C197.277 118.764 194.728 125.201 196.456 131.074L201.036 146.664C201.105 146.896 200.976 147.14 200.749 147.211C200.713 147.227 200.668 147.231 200.628 147.231Z" fill="black"/>
<path d="M207.321 147.061C207.127 147.061 206.949 146.925 206.904 146.722L203.711 132.677C203.659 132.441 203.8 132.204 204.031 132.151C204.262 132.093 204.492 132.242 204.545 132.478L207.742 146.523C207.794 146.759 207.653 146.995 207.422 147.049C207.386 147.057 207.349 147.061 207.321 147.061Z" fill="black"/>
<path d="M204.124 199.299C204.116 199.299 204.104 199.299 204.096 199.299L191.017 198.392C190.888 198.384 190.766 198.313 190.693 198.201C190.62 198.09 190.6 197.953 190.637 197.825L201.348 162.242L201.769 162.345L202.174 162.486L202.165 162.511L191.616 197.551L203.837 198.396L213.808 171.416C213.893 171.188 214.139 171.076 214.362 171.163C214.585 171.25 214.694 171.503 214.609 171.731L214.552 171.884L204.525 199.013C204.464 199.187 204.302 199.299 204.124 199.299Z" fill="black"/>
<path d="M204.124 115.069C203.99 115.069 203.857 115.007 203.776 114.887C203.638 114.688 203.683 114.415 203.873 114.274C203.91 114.245 203.954 114.22 203.995 114.191C205.84 112.944 209.7 110.331 209.7 106.62C209.7 106.375 209.89 106.181 210.129 106.181C210.368 106.181 210.558 106.375 210.558 106.62C210.558 110.807 206.281 113.698 204.456 114.932C204.419 114.957 204.395 114.974 204.371 114.99C204.298 115.04 204.213 115.069 204.124 115.069Z" fill="black"/>
<path d="M226.202 112.381C226.101 112.381 226 112.344 225.919 112.274C225.782 112.153 225.604 112.013 225.389 111.847C225.114 111.632 224.774 111.366 224.394 111.039C221.622 108.658 219.651 105.261 218.372 100.66C217.858 98.7999 217.458 96.7414 217.183 94.5338C217.154 94.2935 217.32 94.074 217.555 94.045C217.79 94.016 218.004 94.1859 218.036 94.4261C218.303 96.5882 218.696 98.6094 219.198 100.424C220.428 104.851 222.306 108.103 224.944 110.368C225.308 110.683 225.624 110.932 225.907 111.151C226.142 111.333 226.336 111.487 226.482 111.619C226.66 111.781 226.676 112.058 226.522 112.24C226.441 112.332 226.32 112.381 226.202 112.381Z" fill="black"/>
<path d="M209.672 106.819C208.106 106.819 206.495 106.346 205.128 105.489C202.396 103.778 200.875 100.941 200.082 98.8619C199.329 96.9028 198.912 94.8401 198.633 93.2579C198.588 93.0177 198.746 92.7899 198.977 92.7485C199.212 92.7029 199.434 92.8645 199.475 93.1005C199.766 94.7366 200.158 96.6626 200.879 98.543C201.627 100.498 203.048 103.157 205.577 104.743C206.807 105.518 208.264 105.945 209.672 105.945C210.821 105.945 211.91 105.659 212.816 105.112C213.023 104.992 213.286 105.062 213.403 105.269C213.52 105.481 213.456 105.75 213.249 105.87C212.213 106.491 210.975 106.819 209.672 106.819Z" fill="black"/>
<path d="M198.944 92.9557C198.738 92.9557 198.556 92.8066 198.524 92.5912C198.418 91.9741 198.321 91.3528 198.228 90.7357L197.318 84.8666C197.281 84.6264 197.439 84.4027 197.674 84.3654C197.904 84.324 198.127 84.4897 198.163 84.7299L199.074 90.599C199.167 91.212 199.268 91.8291 199.369 92.4421C199.41 92.6824 199.252 92.9102 199.017 92.9474C198.993 92.9557 198.969 92.9557 198.944 92.9557Z" fill="black"/>
<path d="M215.345 95.6067C215.131 95.6067 214.945 95.441 214.92 95.2132C214.896 94.973 215.066 94.7576 215.301 94.7286C216.062 94.6416 216.794 94.4179 217.409 94.0783C218.036 93.7387 218.538 93.2913 218.906 92.7446C219.708 91.56 219.675 89.8909 218.83 88.9382C218.227 88.2672 217.239 87.9732 216.381 88.2051C215.973 88.3128 215.592 88.5447 215.281 88.8678C214.941 89.2157 214.71 89.6382 214.609 90.0855C214.556 90.3216 214.33 90.4707 214.095 90.4169C213.864 90.363 213.719 90.1269 213.771 89.8908C213.909 89.2778 214.22 88.7104 214.67 88.2465C215.09 87.8116 215.604 87.5051 216.159 87.356C217.316 87.0412 218.643 87.4388 219.461 88.3459C220.582 89.6092 220.646 91.7133 219.611 93.2416C219.165 93.9044 218.558 94.4469 217.81 94.8487C217.102 95.238 216.264 95.499 215.39 95.5942C215.374 95.6067 215.358 95.6067 215.345 95.6067Z" fill="black"/>
<path d="M214.989 89.0707C214.791 89.0707 214.617 88.934 214.573 88.731C214.568 88.7145 214.556 88.6606 214.552 88.6523C214.419 88.1636 214.281 87.6417 214.14 87.1198C214.01 86.627 213.876 86.1341 213.743 85.6412C213.678 85.4092 213.812 85.1649 214.042 85.1027C214.269 85.0406 214.508 85.1731 214.568 85.4092C214.702 85.9021 214.836 86.3991 214.965 86.892C215.103 87.4139 215.244 87.9358 215.382 88.4535C215.394 88.5032 215.402 88.5239 215.406 88.5446C215.455 88.7807 215.305 89.0168 215.074 89.0665C215.046 89.0707 215.018 89.0707 214.989 89.0707Z" fill="black"/>
<path d="M205.213 87.277C203.177 87.277 201.308 86.9912 199.58 86.4155C198.936 86.2043 198.277 85.9351 197.621 85.6161C197.002 85.3096 196.423 84.9783 195.901 84.6345C195.703 84.502 195.642 84.2327 195.772 84.0298C195.901 83.8268 196.164 83.7647 196.363 83.8972C196.856 84.2203 197.407 84.5351 197.993 84.825C198.609 85.1232 199.236 85.3759 199.847 85.5789C203.638 86.838 208.183 86.6475 213.743 84.9907C213.974 84.9203 214.208 85.057 214.273 85.2889C214.338 85.5209 214.208 85.7652 213.982 85.8315C210.748 86.7966 207.843 87.277 205.213 87.277Z" fill="black"/>
<path d="M218.789 100.974C218.668 100.974 218.542 100.921 218.457 100.817C218.307 100.631 218.332 100.353 218.514 100.2C219.736 99.1603 220.092 97.2716 220.505 95.0888C220.788 93.5729 221.112 91.8581 221.788 90.2097C221.925 89.8659 222.071 89.5221 222.217 89.1825C222.617 88.2381 223.034 87.2606 223.309 86.2707C223.73 84.7548 223.762 83.4169 223.402 82.2945C223.042 81.1513 222.265 80.1738 221.516 79.2295C220.428 77.8502 219.194 76.2887 217.522 75.5639C216.155 74.9675 214.657 74.9716 213.071 74.9799C211.764 74.984 210.417 74.9923 209.122 74.6361C208.256 74.3959 207.442 74.0024 206.661 73.6255C205.937 73.2734 205.253 72.9421 204.525 72.7184C201.753 71.8776 198.463 72.9669 196.694 75.3154C194.926 77.6597 194.736 81.1969 196.241 83.7276C196.363 83.9347 196.298 84.2039 196.096 84.3323C195.893 84.4566 195.63 84.3944 195.505 84.1873C193.797 81.3129 194.003 77.4443 196.011 74.7852C198.018 72.122 201.615 70.9291 204.763 71.8859C205.557 72.1261 206.301 72.4906 207.021 72.8385C207.806 73.2196 208.543 73.5758 209.336 73.7953C210.518 74.1184 211.809 74.1101 213.059 74.1059C214.661 74.0977 216.325 74.0894 217.85 74.7562C219.72 75.568 221.079 77.2911 222.176 78.6745C222.937 79.6354 223.799 80.7206 224.212 82.0211C224.624 83.3092 224.592 84.821 224.127 86.5068C223.831 87.5547 223.406 88.557 222.993 89.5304C222.848 89.87 222.706 90.2055 222.569 90.5451C221.929 92.1108 221.63 93.7096 221.338 95.2545C220.897 97.6071 220.513 99.6366 219.056 100.875C218.983 100.945 218.886 100.974 218.789 100.974Z" fill="black"/>
<path d="M157.102 153.2C156.677 153.2 156.172 153.15 155.73 152.972C155.2 152.752 154.86 152.371 154.747 151.87C154.63 151.344 154.739 150.541 155.925 149.679C160.295 146.473 166.373 146.15 171.047 148.871C171.221 148.971 171.395 149.078 171.569 149.186C172.241 149.596 172.872 149.977 173.576 150.118C173.811 150.164 173.961 150.396 173.916 150.632C173.872 150.872 173.645 151.025 173.414 150.98C172.569 150.81 171.84 150.367 171.136 149.94C170.966 149.836 170.796 149.733 170.626 149.638C166.304 147.123 160.465 147.434 156.422 150.4C156.062 150.665 155.472 151.178 155.585 151.68C155.617 151.816 155.698 152.019 156.05 152.164C156.382 152.297 156.859 152.355 157.402 152.322L157.717 152.301C159.769 152.177 161.825 152.048 163.876 151.92C164.111 151.907 164.317 152.09 164.33 152.33C164.346 152.57 164.164 152.781 163.929 152.794C161.877 152.922 159.822 153.051 157.77 153.175L157.454 153.196C157.341 153.196 157.224 153.2 157.102 153.2Z" fill="black"/>
<path d="M164.164 157.105C164.16 157.105 164.151 157.105 164.147 157.105C161.8 157.014 159.453 156.915 157.11 156.82L156.155 156.778C155.593 156.758 154.096 156.704 153.565 155.581C153.189 154.798 153.513 153.887 154.003 153.336C154.496 152.785 155.168 152.471 155.706 152.214C155.921 152.11 156.176 152.21 156.277 152.429C156.378 152.649 156.281 152.91 156.066 153.013C155.573 153.245 155.01 153.51 154.638 153.929C154.355 154.248 154.14 154.782 154.338 155.196C154.614 155.776 155.528 155.875 156.192 155.9L157.151 155.942C159.498 156.037 161.841 156.136 164.188 156.227C164.423 156.236 164.609 156.439 164.601 156.683C164.58 156.919 164.39 157.105 164.164 157.105Z" fill="black"/>
<path d="M168.012 161.268C165.062 161.268 162.116 160.928 159.211 160.257C158.345 160.054 157.365 159.777 156.706 159.019C156.297 158.551 156.095 157.872 156.18 157.242C156.248 156.728 156.503 156.31 156.892 156.057C157.09 155.929 157.357 155.991 157.483 156.194C157.608 156.397 157.547 156.67 157.349 156.799C157.126 156.94 157.054 157.184 157.029 157.362C156.977 157.739 157.102 158.157 157.345 158.435C157.835 159.002 158.66 159.23 159.397 159.4C163.994 160.464 168.688 160.672 173.353 160.013C173.588 159.976 173.803 160.146 173.835 160.386C173.867 160.626 173.701 160.846 173.471 160.879C171.658 161.14 169.833 161.268 168.012 161.268Z" fill="black"/>
<path d="M265.819 303.186H197.904C197.666 303.186 197.475 302.991 197.475 302.747C197.475 302.503 197.666 302.308 197.904 302.308H265.815C274.009 302.308 280.674 295.486 280.674 287.099V82.4643C280.674 74.0811 274.009 67.2594 265.815 67.2594H223.779C223.54 67.2594 223.35 67.0647 223.35 66.8203C223.35 66.576 223.54 66.3813 223.779 66.3813H265.815C274.483 66.3813 281.532 73.5965 281.532 82.4643V287.095C281.536 295.967 274.487 303.186 265.819 303.186Z" fill="black"/>
<path d="M161.023 139.229C160.785 139.229 160.594 139.034 160.594 138.79V82.4643C160.594 73.5965 167.644 66.3813 176.308 66.3813H194.186C194.424 66.3813 194.614 66.576 194.614 66.8203C194.614 67.0647 194.424 67.2594 194.186 67.2594H176.308C168.117 67.2594 161.452 74.0811 161.452 82.4643V138.79C161.452 139.034 161.258 139.229 161.023 139.229Z" fill="black"/>
<path d="M170.622 302.068C170.569 302.068 170.517 302.06 170.464 302.035C164.471 299.574 160.599 293.709 160.599 287.099V172.853C160.599 172.609 160.789 172.414 161.028 172.414C161.266 172.414 161.456 172.609 161.456 172.853V287.095C161.456 293.349 165.119 298.891 170.784 301.219C171.002 301.31 171.112 301.562 171.023 301.79C170.95 301.96 170.792 302.068 170.622 302.068Z" fill="black"/>
<path d="M265.819 293.527H199.046C198.807 293.527 198.617 293.332 198.617 293.088C198.617 292.844 198.807 292.649 199.046 292.649H265.819C265.981 292.649 266.143 292.641 266.301 292.624C269.077 292.376 271.246 289.948 271.246 287.095V82.4642C271.246 79.4033 268.814 76.914 265.819 76.914H224.074C223.835 76.914 223.645 76.7194 223.645 76.475C223.645 76.2306 223.835 76.0359 224.074 76.0359H265.815C269.279 76.0359 272.099 78.9187 272.099 82.4642V287.095C272.099 290.396 269.586 293.208 266.377 293.498C266.199 293.519 266.009 293.527 265.819 293.527Z" fill="black"/>
<path d="M170.456 139.229C170.217 139.229 170.027 139.034 170.027 138.79V82.4642C170.027 78.9187 172.844 76.0359 176.308 76.0359H192.688C192.927 76.0359 193.117 76.2306 193.117 76.475C193.117 76.7194 192.927 76.914 192.688 76.914H176.308C173.317 76.914 170.885 79.4033 170.885 82.4642V138.79C170.885 139.034 170.695 139.229 170.456 139.229Z" fill="black"/>
<path d="M173.803 292.947C173.742 292.947 173.677 292.935 173.621 292.906C171.439 291.845 170.031 289.567 170.031 287.095V173.619C170.031 173.375 170.221 173.18 170.46 173.18C170.699 173.18 170.889 173.375 170.889 173.619V287.099C170.889 289.232 172.107 291.199 173.989 292.115C174.203 292.218 174.292 292.479 174.191 292.699C174.118 292.856 173.965 292.947 173.803 292.947Z" fill="black"/>
<path d="M194.55 211.161C194.396 211.161 194.238 211.145 194.084 211.107C193.344 210.929 192.777 210.379 192.563 209.637C192.146 208.221 192.393 206.684 193.21 205.624C193.53 205.205 193.927 204.841 194.311 204.489C195.023 203.83 195.695 203.209 195.739 202.385C195.752 202.144 195.946 201.941 196.193 201.97C196.427 201.983 196.609 202.19 196.597 202.434C196.533 203.619 195.695 204.393 194.886 205.139C194.513 205.483 194.161 205.806 193.886 206.166C193.239 207.003 193.048 208.237 193.384 209.384C193.514 209.823 193.846 210.147 194.279 210.25C194.732 210.354 195.189 210.2 195.489 209.832L199.859 204.485C201.251 202.782 202.586 200.952 202.311 198.976C202.279 198.736 202.441 198.512 202.675 198.479C202.91 198.442 203.129 198.611 203.161 198.852C203.485 201.188 201.967 203.275 200.519 205.048L196.148 210.395C195.743 210.892 195.161 211.161 194.55 211.161Z" fill="black"/>
<path d="M193.991 216.678C193.639 216.678 193.255 216.479 192.887 216.098C191.758 214.918 190.892 213.356 190.374 211.588C189.929 210.072 189.726 208.399 189.754 206.481C189.803 203.586 190.398 200.645 191.47 197.973C191.559 197.75 191.814 197.646 192.029 197.733C192.247 197.824 192.352 198.081 192.263 198.305C191.227 200.873 190.657 203.702 190.608 206.489C190.58 208.316 190.77 209.898 191.191 211.331C191.669 212.967 192.462 214.4 193.494 215.477C193.732 215.726 193.951 215.825 194.02 215.784C194.068 215.742 194.137 215.626 194.097 215.183C193.959 213.796 193.821 212.404 193.688 211.008C193.664 210.768 193.838 210.552 194.072 210.528C194.307 210.507 194.517 210.681 194.542 210.921C194.675 212.317 194.813 213.709 194.95 215.1C194.991 215.539 194.983 216.082 194.602 216.43C194.55 216.475 194.501 216.513 194.449 216.546C194.311 216.637 194.157 216.678 193.991 216.678Z" fill="black"/>
<path d="M195.226 215.229C194.991 215.229 194.764 215.183 194.554 215.096C194.335 215.001 194.234 214.744 194.323 214.52C194.416 214.297 194.667 214.193 194.886 214.284C195.254 214.442 195.744 214.317 196.104 213.974C196.14 213.941 196.168 213.912 196.193 213.878C196.52 213.493 196.711 212.938 196.771 212.213C196.779 212.126 196.783 212.039 196.788 211.961C196.824 211.029 196.654 210.097 196.294 209.252C196.217 209.086 196.241 208.883 196.375 208.751C196.545 208.581 196.812 208.577 196.978 208.747L196.982 208.751C197.018 208.788 197.051 208.834 197.071 208.883C197.488 209.848 197.686 210.921 197.641 211.986C197.637 212.093 197.633 212.197 197.621 212.292C197.548 213.199 197.285 213.924 196.844 214.442C196.804 214.496 196.747 214.554 196.682 214.616C196.274 215.013 195.739 215.229 195.226 215.229Z" fill="black"/>
<path d="M197.702 212.495C197.516 212.495 197.33 212.454 197.152 212.363C196.941 212.255 196.852 211.99 196.962 211.774C197.067 211.559 197.326 211.472 197.536 211.58C197.759 211.696 198.095 211.538 198.269 211.323C198.495 211.029 198.58 210.606 198.637 210.192C198.787 209.008 198.73 207.819 198.463 206.663C198.41 206.427 198.552 206.191 198.782 206.137C199.013 206.083 199.244 206.228 199.296 206.465C199.584 207.724 199.648 209.016 199.483 210.308C199.414 210.822 199.296 211.406 198.936 211.87C198.657 212.222 198.188 212.495 197.702 212.495Z" fill="black"/>
<path d="M187.755 283.504C187.723 283.504 187.691 283.5 187.658 283.491C187.428 283.437 187.282 283.201 187.339 282.965L199.175 230.703C199.867 227.634 201.478 224.933 203.833 222.895L236.659 194.49C236.841 194.333 237.108 194.358 237.262 194.544C237.416 194.73 237.391 195.008 237.209 195.161L204.383 223.566C202.174 225.48 200.66 228.019 200.009 230.902L188.172 283.164C188.128 283.367 187.95 283.504 187.755 283.504Z" fill="black"/>
<path d="M154.589 88.822H123.151C117.785 88.822 113.419 84.3529 113.419 78.8608V39.5955C113.419 34.1034 117.785 29.6343 123.151 29.6343H200.134C205.5 29.6343 209.866 34.1034 209.866 39.5955V60.8021C209.866 61.0464 209.676 61.2411 209.437 61.2411C209.199 61.2411 209.008 61.0464 209.008 60.8021V39.5955C209.008 34.588 205.027 30.5124 200.134 30.5124H123.151C118.259 30.5124 114.277 34.588 114.277 39.5955V78.8608C114.277 83.8683 118.259 87.9439 123.151 87.9439H154.589C154.828 87.9439 155.018 88.1386 155.018 88.383C155.018 88.6273 154.824 88.822 154.589 88.822Z" fill="black"/>
<path d="M143.971 73.53C135.615 73.53 128.816 66.5716 128.816 58.0186C128.816 49.4656 135.615 42.5072 143.971 42.5072C147.216 42.5072 150.312 43.5427 152.922 45.5018C153.112 45.6468 153.153 45.9201 153.015 46.1148C152.873 46.3095 152.606 46.3509 152.416 46.2101C149.956 44.3628 147.034 43.3853 143.971 43.3853C136.088 43.3853 129.674 49.9502 129.674 58.0186C129.674 66.087 136.088 72.6519 143.971 72.6519C151.854 72.6519 158.268 66.087 158.268 58.0186C158.268 55.285 157.527 52.6217 156.123 50.3105C155.997 50.1034 156.058 49.8342 156.261 49.7058C156.463 49.5774 156.726 49.6396 156.851 49.8466C158.336 52.2945 159.121 55.1234 159.121 58.0186C159.126 66.5716 152.327 73.53 143.971 73.53Z" fill="#F67952"/>
<path d="M141.365 58.0185C141.365 56.5439 142.534 55.3511 143.971 55.3511C145.412 55.3511 146.577 56.5481 146.577 58.0185C146.577 59.493 145.408 60.6858 143.971 60.6858C142.53 60.69 141.365 59.493 141.365 58.0185Z" fill="#F67952"/>
<path d="M143.971 61.1292C142.296 61.1292 140.936 59.7333 140.936 58.0227C140.936 56.308 142.3 54.9163 143.971 54.9163C145.646 54.9163 147.006 56.3121 147.006 58.0227C147.01 59.7333 145.646 61.1292 143.971 61.1292ZM143.971 55.7903C142.769 55.7903 141.794 56.7926 141.794 58.0186C141.794 59.2487 142.773 60.2511 143.971 60.2511C145.173 60.2511 146.152 59.2487 146.152 58.0186C146.152 56.7926 145.173 55.7903 143.971 55.7903Z" fill="#F67952"/>
<path d="M143.971 55.7903C143.732 55.7903 143.542 55.5957 143.542 55.3513V48.8402C143.542 48.5959 143.732 48.4012 143.971 48.4012C144.21 48.4012 144.4 48.5959 144.4 48.8402V55.3513C144.4 55.5957 144.21 55.7903 143.971 55.7903Z" fill="black"/>
<path d="M148.928 65.0472C148.438 65.0472 147.949 64.8567 147.572 64.4756L144.177 61.0006C144.011 60.8308 144.011 60.5532 144.177 60.3793C144.343 60.2095 144.614 60.2095 144.784 60.3793L148.179 63.8543C148.58 64.2644 149.276 64.2644 149.677 63.8543C150.089 63.4319 150.089 62.7443 149.677 62.3218L146.233 58.7971C146.067 58.6273 146.067 58.3498 146.233 58.1758C146.399 58.0018 146.67 58.006 146.84 58.1758L150.284 61.7006C151.032 62.4668 151.032 63.7094 150.284 64.4756C149.911 64.8567 149.422 65.0472 148.928 65.0472Z" fill="black"/>
<path d="M196.132 46.1687H173.487C173.248 46.1687 173.058 45.974 173.058 45.7296C173.058 45.4853 173.248 45.2906 173.487 45.2906H196.132C196.371 45.2906 196.561 45.4853 196.561 45.7296C196.561 45.9699 196.371 46.1687 196.132 46.1687Z" fill="black"/>
<path d="M196.132 50.559H173.487C173.248 50.559 173.058 50.3643 173.058 50.1199C173.058 49.8756 173.248 49.6809 173.487 49.6809H196.132C196.371 49.6809 196.561 49.8756 196.561 50.1199C196.561 50.3643 196.371 50.559 196.132 50.559Z" fill="black"/>
<path d="M196.132 54.9495H173.487C173.248 54.9495 173.058 54.7548 173.058 54.5105C173.058 54.2661 173.248 54.0714 173.487 54.0714H196.132C196.371 54.0714 196.561 54.2661 196.561 54.5105C196.561 54.7507 196.371 54.9495 196.132 54.9495Z" fill="black"/>
<path d="M17.3965 145.309C17.3155 145.309 17.2346 145.288 17.1658 145.239C15.6038 144.207 14.0985 143.023 12.6943 141.726C12.5203 141.565 12.5041 141.287 12.6619 141.105C12.8197 140.927 13.0908 140.91 13.2689 141.072C14.6407 142.339 16.1096 143.491 17.6312 144.497C17.8294 144.63 17.8861 144.899 17.7566 145.106C17.6757 145.239 17.5381 145.309 17.3965 145.309ZM9.69168 138.38C9.57028 138.38 9.44888 138.326 9.3639 138.227C8.15396 136.777 7.03304 135.215 6.02948 133.579C5.90403 133.372 5.96473 133.103 6.16301 132.975C6.3613 132.846 6.62838 132.908 6.75382 133.111C7.73311 134.71 8.82974 136.238 10.0154 137.655C10.1692 137.841 10.1489 138.115 9.96685 138.272C9.88996 138.347 9.78879 138.38 9.69168 138.38ZM4.13565 129.549C3.97379 129.549 3.82002 129.454 3.74718 129.297C2.94999 127.557 2.27016 125.747 1.73196 123.912C1.66316 123.68 1.79266 123.436 2.01927 123.365C2.24588 123.295 2.48463 123.428 2.55342 123.659C3.08353 125.453 3.74718 127.221 4.52413 128.924C4.6253 129.143 4.53222 129.404 4.31775 129.508C4.2611 129.533 4.19635 129.549 4.13565 129.549ZM1.06022 119.526C0.853839 119.526 0.67174 119.373 0.639367 119.161C0.32373 117.252 0.149725 115.322 0.121399 113.417C0.117352 113.176 0.307544 112.973 0.546295 112.973C0.789093 112.977 0.979284 113.164 0.979284 113.408C1.00356 115.264 1.17352 117.153 1.48511 119.016C1.52558 119.257 1.36776 119.484 1.13306 119.522C1.10878 119.526 1.0845 119.526 1.06022 119.526ZM22.0744 109.925C20.31 109.925 18.4729 109.403 16.6155 108.38C16.405 108.264 16.3281 107.999 16.4415 107.784C16.5548 107.572 16.8137 107.489 17.0242 107.605C18.7561 108.562 20.4557 109.047 22.0703 109.047H22.1391C22.3779 109.047 22.568 109.242 22.568 109.486C22.568 109.73 22.3779 109.925 22.1391 109.925H22.0744ZM0.805279 109.03C0.789093 109.03 0.768859 109.03 0.752673 109.026C0.517968 108.997 0.352057 108.778 0.380383 108.537C0.619134 106.562 1.01166 104.661 1.55391 102.884C1.6227 102.652 1.8655 102.523 2.09211 102.594C2.31872 102.664 2.44416 102.913 2.37537 103.145C1.84931 104.872 1.46488 106.719 1.23422 108.641C1.20185 108.869 1.01975 109.03 0.805279 109.03ZM26.5742 108.517C26.4366 108.517 26.299 108.45 26.2181 108.322C26.0886 108.119 26.1372 107.85 26.3355 107.713C27.7558 106.74 28.9455 105.265 29.6861 103.555C29.7832 103.331 30.0381 103.236 30.2526 103.331C30.4711 103.43 30.5682 103.691 30.4711 103.911C29.6618 105.766 28.3628 107.378 26.813 108.442C26.7401 108.492 26.6551 108.517 26.5742 108.517ZM12.9856 105.63C12.8845 105.63 12.7833 105.592 12.7024 105.518C12.5203 105.356 12.3422 105.191 12.1682 105.025C10.9785 103.894 9.84949 102.656 8.80546 101.347C8.65574 101.161 8.68406 100.883 8.86616 100.73C9.05231 100.577 9.31939 100.606 9.46911 100.792C10.4848 102.072 11.5895 103.277 12.7509 104.383C12.9209 104.545 13.0908 104.706 13.2648 104.864C13.4429 105.025 13.4591 105.303 13.3013 105.485C13.2203 105.58 13.103 105.63 12.9856 105.63ZM30.9446 99.4749C30.718 99.4749 30.5318 99.2968 30.5156 99.0607C30.4913 98.6755 30.4468 98.2945 30.374 97.9258C30.1069 96.5383 29.5404 95.2212 28.6946 94.0035C28.5571 93.8046 28.6016 93.5313 28.7958 93.3905C28.99 93.2496 29.2571 93.2952 29.3947 93.494C30.3133 94.8111 30.9243 96.2442 31.2157 97.756C31.2926 98.1619 31.3452 98.5844 31.3735 99.011C31.3897 99.2512 31.2076 99.4625 30.9729 99.4749C30.9648 99.4708 30.9567 99.4749 30.9446 99.4749ZM3.75527 98.9986C3.68648 98.9986 3.61769 98.982 3.55699 98.9489C3.34656 98.8371 3.26563 98.5678 3.37893 98.3566C3.87667 97.3957 4.43106 96.4803 5.03805 95.6312C4.44724 94.5419 3.905 93.4194 3.41535 92.2721C3.32228 92.0485 3.4194 91.7917 3.63792 91.6923C3.85644 91.597 4.10733 91.6964 4.20445 91.9201C4.63339 92.9224 5.1028 93.9082 5.60863 94.865C5.71789 94.7241 5.83119 94.5833 5.9445 94.4466C6.1792 94.1608 6.422 93.8833 6.6648 93.6183C6.82666 93.4402 7.09779 93.436 7.27179 93.6017C7.4458 93.7674 7.44984 94.0449 7.28798 94.223C7.05327 94.4756 6.82262 94.7407 6.60005 95.0141C6.41795 95.2377 6.23585 95.4655 6.06185 95.7016C6.29251 96.1117 6.52721 96.5176 6.77001 96.9152C6.89545 97.1223 6.83476 97.3915 6.63242 97.5199C6.43009 97.6483 6.16706 97.5862 6.04162 97.3791C5.85952 97.0809 5.68147 96.7785 5.50746 96.4762C5.01377 97.201 4.5565 97.9673 4.1397 98.7708C4.05877 98.9157 3.90904 98.9986 3.75527 98.9986ZM10.6184 91.3154C10.4727 91.3154 10.3351 91.2408 10.2542 91.1083C10.1287 90.9012 10.1935 90.632 10.3917 90.5036C12.067 89.4432 13.8395 88.6977 15.6605 88.2959C15.8911 88.2462 16.1218 88.3953 16.1703 88.6314C16.2189 88.8675 16.0732 89.1036 15.8426 89.1533C14.1187 89.5385 12.4353 90.2426 10.8409 91.2491C10.7762 91.2947 10.6952 91.3154 10.6184 91.3154ZM25.6313 90.897C25.5504 90.897 25.4735 90.8763 25.4007 90.8266C23.867 89.8243 22.1351 89.1699 20.3829 88.9296C20.1482 88.8965 19.9823 88.677 20.0146 88.4367C20.047 88.1965 20.2615 88.0267 20.4962 88.0598C22.3698 88.3166 24.2231 89.0166 25.862 90.0852C26.0603 90.2136 26.121 90.487 25.9915 90.6899C25.9106 90.8266 25.773 90.897 25.6313 90.897ZM2.17304 88.0101C1.99094 88.0101 1.82098 87.89 1.76433 87.6995C1.21804 85.8646 0.793139 83.9759 0.501782 82.0831C0.465362 81.8428 0.623181 81.6192 0.857885 81.5819C1.09259 81.5405 1.31111 81.7062 1.34753 81.9464C1.63484 83.7978 2.05164 85.6492 2.5858 87.4427C2.65459 87.6746 2.5251 87.919 2.29848 87.9894C2.25397 88.0018 2.21351 88.0101 2.17304 88.0101ZM0.457269 77.6471C0.226611 77.6471 0.0364197 77.4607 0.0283264 77.2246C0.00809326 76.6945 0 76.1602 0 75.6341C0 74.2383 0.0728393 72.8342 0.214471 71.4632C0.238751 71.223 0.453222 71.0449 0.68388 71.0739C0.918585 71.0988 1.09259 71.3141 1.06426 71.5544C0.926678 72.8963 0.857885 74.2673 0.857885 75.6341C0.857885 76.1477 0.865979 76.6696 0.886212 77.1915C0.894305 77.4317 0.712207 77.6388 0.473456 77.6471C0.469409 77.6471 0.465362 77.6471 0.457269 77.6471ZM1.42846 67.1929C1.39609 67.1929 1.36371 67.1888 1.32729 67.1805C1.09664 67.1225 0.955004 66.8864 1.00761 66.6504C1.36371 65.1054 1.82098 63.5771 2.36323 62.1108C2.48058 61.7919 2.60603 61.473 2.73147 61.1582C2.8205 60.9345 3.07139 60.8268 3.28991 60.918C3.50843 61.0091 3.61364 61.2659 3.52461 61.4895C3.39917 61.796 3.28182 62.1067 3.16446 62.4215C2.63436 63.8504 2.18923 65.3457 1.84122 66.8533C1.7967 67.0563 1.6227 67.1929 1.42846 67.1929ZM5.20801 57.4305C5.13517 57.4305 5.06233 57.4098 4.99354 57.3725C4.78716 57.2524 4.71837 56.9832 4.83572 56.7719C5.7624 55.1234 6.82666 53.5164 8.00019 52.0005C8.14991 51.8099 8.41699 51.7768 8.60313 51.93C8.78928 52.0792 8.82165 52.3567 8.67192 52.5472C7.52268 54.03 6.4827 55.5998 5.5803 57.211C5.49937 57.3518 5.35369 57.4305 5.20801 57.4305ZM11.4843 49.1218C11.3751 49.1218 11.2618 49.0804 11.1808 48.9934C11.0149 48.8195 11.0149 48.542 11.1849 48.3722C12.5122 47.026 13.9487 45.7628 15.4541 44.6113C15.6443 44.4663 15.9113 44.5078 16.053 44.7024C16.1946 44.8971 16.1541 45.1705 15.9639 45.3154C14.491 46.442 13.0868 47.6763 11.7878 48.9934C11.6988 49.0804 11.5895 49.1218 11.4843 49.1218ZM19.6423 42.7433C19.4926 42.7433 19.351 42.6646 19.27 42.5238C19.1527 42.3126 19.2215 42.0433 19.4279 41.9232C21.0587 40.9582 22.7582 40.1049 24.4861 39.3925C24.7047 39.3014 24.9556 39.4091 25.0446 39.6327C25.1336 39.8564 25.0284 40.1132 24.8099 40.2043C23.1184 40.9043 21.4512 41.7368 19.8609 42.6812C19.788 42.7267 19.7152 42.7433 19.6423 42.7433ZM29.1155 38.7091C28.9253 38.7091 28.7513 38.5807 28.7027 38.3819C28.642 38.1458 28.7756 37.9056 29.0062 37.8434C30.8313 37.3423 32.6968 36.9861 34.542 36.779C34.7727 36.75 34.9912 36.9281 35.0155 37.1683C35.0398 37.4085 34.8698 37.6239 34.6351 37.6529C32.8303 37.8559 31.0093 38.2038 29.2248 38.6925C29.1924 38.705 29.1519 38.7091 29.1155 38.7091Z" fill="#F67952"/>
<path d="M86.869 29.046C86.865 29.046 86.8609 29.046 86.8569 29.046C84.8902 28.9922 83.0086 28.6277 81.2645 27.9567C81.0419 27.8697 80.9326 27.6171 81.0136 27.3893C81.0985 27.1615 81.3454 27.0496 81.568 27.1325C83.223 27.7662 85.0076 28.1141 86.8812 28.1638C87.1159 28.1721 87.3061 28.3709 87.298 28.6153C87.2939 28.8555 87.1037 29.046 86.869 29.046ZM91.555 28.6029C91.3567 28.6029 91.1787 28.4579 91.1342 28.2508C91.0856 28.0147 91.2353 27.7828 91.47 27.7331C93.1899 27.3727 94.9421 26.7929 96.6821 26.0142C96.9006 25.9189 97.1515 26.0183 97.2486 26.242C97.3458 26.4656 97.2446 26.7224 97.0261 26.8218C95.2334 27.6254 93.4205 28.2259 91.6441 28.5987C91.6117 28.5987 91.5834 28.6029 91.555 28.6029ZM101.012 24.5811C100.87 24.5811 100.733 24.5107 100.648 24.3781C100.522 24.1752 100.579 23.9018 100.781 23.7734L101.008 23.6243C102.384 22.7172 103.768 21.6735 105.241 20.4433C105.423 20.2901 105.694 20.3191 105.844 20.5054C105.993 20.6918 105.965 20.9693 105.783 21.1226C104.286 22.3734 102.877 23.4338 101.473 24.3616L101.239 24.5148C101.17 24.5604 101.093 24.5811 101.012 24.5811ZM109.065 18.0452C108.947 18.0452 108.834 17.9955 108.749 17.9043C108.587 17.7262 108.599 17.4487 108.773 17.2831C109.842 16.2807 110.914 15.237 111.95 14.2305L112.828 13.3772C113.002 13.2116 113.273 13.2157 113.435 13.3938C113.597 13.5678 113.589 13.8494 113.419 14.0151L112.541 14.8683C111.501 15.8789 110.429 16.9227 109.352 17.9333C109.275 18.0079 109.17 18.0452 109.065 18.0452ZM155.504 12.8429C155.342 12.8429 155.188 12.7477 155.115 12.5903C154.432 11.0992 153.541 9.68267 152.473 8.37797C152.319 8.19158 152.343 7.91408 152.526 7.76083C152.708 7.60343 152.979 7.62828 153.129 7.81467C154.245 9.17321 155.176 10.656 155.892 12.2175C155.994 12.437 155.9 12.698 155.686 12.8015C155.629 12.8305 155.565 12.8429 155.504 12.8429ZM116.587 10.8548C116.47 10.8548 116.353 10.8051 116.268 10.7057C116.11 10.5235 116.126 10.246 116.304 10.0844L116.733 9.69509C118.089 8.47323 119.368 7.40876 120.642 6.43956C120.832 6.29459 121.099 6.33601 121.241 6.53068C121.383 6.72535 121.342 6.99872 121.152 7.14368C119.898 8.09632 118.635 9.14836 117.3 10.3537L116.875 10.7389C116.794 10.8175 116.693 10.8548 116.587 10.8548ZM149.381 5.23012C149.292 5.23012 149.199 5.20113 149.122 5.14315C147.666 4.02069 146.067 3.09705 144.38 2.39292C144.161 2.3018 144.056 2.045 144.145 1.82134C144.234 1.59768 144.485 1.48999 144.703 1.58111C146.46 2.31009 148.119 3.27515 149.636 4.44316C149.826 4.58813 149.863 4.86564 149.721 5.05617C149.636 5.168 149.511 5.23012 149.381 5.23012ZM124.83 4.57156C124.681 4.57156 124.539 4.49287 124.458 4.35204C124.341 4.14081 124.41 3.87158 124.616 3.75147C126.336 2.73256 128.06 1.91246 129.735 1.31189C129.958 1.23319 130.204 1.35331 130.281 1.58111C130.358 1.80892 130.241 2.06157 130.018 2.14027C128.391 2.72428 126.716 3.51952 125.045 4.50943C124.976 4.555 124.903 4.57156 124.83 4.57156ZM140.009 1.1255C139.989 1.1255 139.965 1.1255 139.941 1.12136C138.407 0.872847 136.861 0.810718 135.348 0.947401C135.068 0.972252 134.785 1.00539 134.51 1.04266C134.271 1.07166 134.061 0.905982 134.028 0.665752C134 0.425522 134.166 0.206001 134.397 0.172866C134.688 0.135589 134.979 0.102453 135.271 0.0734602C136.853 -0.0673644 138.472 -0.00523593 140.074 0.255704C140.309 0.292981 140.467 0.520785 140.43 0.756874C140.398 0.96811 140.216 1.1255 140.009 1.1255Z" fill="#F67952"/>
<path d="M308.212 142.915C308.046 142.915 307.892 142.82 307.819 142.654C307.722 142.431 307.819 142.174 308.037 142.074C309.689 141.321 311.279 140.372 312.76 139.25C312.95 139.105 313.217 139.146 313.359 139.341C313.5 139.535 313.46 139.809 313.27 139.954C311.74 141.114 310.093 142.099 308.386 142.878C308.329 142.903 308.268 142.915 308.212 142.915ZM316.531 136.831C316.426 136.831 316.321 136.789 316.24 136.711C316.066 136.545 316.058 136.267 316.22 136.089C317.478 134.718 318.587 133.211 319.518 131.616C319.639 131.409 319.902 131.339 320.105 131.463C320.307 131.587 320.376 131.856 320.254 132.063C319.291 133.712 318.146 135.265 316.847 136.686C316.758 136.785 316.645 136.831 316.531 136.831ZM321.905 127.934C321.857 127.934 321.808 127.926 321.76 127.909C321.537 127.826 321.424 127.574 321.501 127.346C321.602 127.06 321.699 126.774 321.788 126.484C322.249 125.014 322.573 123.469 322.755 121.903C322.783 121.663 323.002 121.489 323.233 121.518C323.467 121.547 323.637 121.767 323.609 122.007C323.423 123.631 323.083 125.225 322.609 126.754C322.516 127.052 322.415 127.354 322.31 127.648C322.245 127.822 322.079 127.934 321.905 127.934ZM323.301 117.571C323.079 117.571 322.889 117.393 322.872 117.161C322.751 115.293 322.435 113.437 321.938 111.64C321.873 111.408 322.006 111.163 322.233 111.097C322.46 111.035 322.698 111.168 322.763 111.4C323.281 113.255 323.605 115.177 323.73 117.103C323.747 117.343 323.568 117.554 323.33 117.571C323.322 117.571 323.309 117.571 323.301 117.571ZM320.651 107.461C320.493 107.461 320.343 107.369 320.266 107.216C319.562 105.767 318.725 104.391 317.778 103.136C317.62 102.929 317.462 102.722 317.296 102.519C317.146 102.333 317.175 102.055 317.357 101.902C317.539 101.749 317.81 101.778 317.96 101.964C318.13 102.176 318.296 102.387 318.454 102.602C319.433 103.903 320.303 105.327 321.031 106.827C321.136 107.042 321.051 107.307 320.837 107.415C320.78 107.444 320.716 107.461 320.651 107.461ZM314.464 99.0981C314.35 99.0981 314.237 99.0525 314.152 98.9614L313.824 98.6093C312.651 97.3543 311.437 96.0579 310.368 94.7242C310.219 94.5379 310.247 94.2603 310.429 94.1071C310.611 93.9538 310.882 93.9828 311.032 94.1692C312.08 95.4781 313.282 96.7621 314.443 98.0046L314.771 98.3567C314.933 98.5306 314.929 98.8082 314.759 98.978C314.678 99.0567 314.573 99.0981 314.464 99.0981ZM308.114 90.864C307.952 90.864 307.803 90.7729 307.726 90.6155C307.107 89.2901 306.722 87.9854 306.56 86.6268C306.504 86.1422 306.471 85.6411 306.471 85.1399L306.475 84.9038C306.48 84.6594 306.67 84.4648 306.913 84.473C307.151 84.4772 307.337 84.676 307.333 84.9204L307.329 85.144C307.329 85.6121 307.358 86.076 307.41 86.5233C307.564 87.7824 307.916 89.0001 308.499 90.2386C308.6 90.4581 308.511 90.719 308.296 90.8226C308.24 90.8516 308.175 90.864 308.114 90.864ZM307.726 80.6128C307.685 80.6128 307.641 80.6086 307.6 80.5921C307.374 80.5217 307.244 80.2773 307.317 80.0453C307.718 78.7034 308.224 77.349 308.717 76.0443C308.891 75.5845 309.065 75.1206 309.235 74.6567C309.32 74.4289 309.567 74.3171 309.79 74.3999C310.012 74.4869 310.126 74.7396 310.041 74.9674C309.871 75.4313 309.697 75.8952 309.523 76.3632C309.037 77.6555 308.535 78.9933 308.143 80.3063C308.082 80.4927 307.912 80.6128 307.726 80.6128ZM311.024 70.6432C310.996 70.6432 310.967 70.6391 310.935 70.635C310.704 70.5853 310.554 70.3533 310.603 70.1172C310.89 68.7048 311.036 67.2427 311.036 65.7641C311.036 65.3582 311.024 64.9523 311.004 64.5546C310.992 64.3144 311.174 64.1073 311.408 64.0908C311.627 64.0783 311.845 64.2647 311.857 64.5049C311.878 64.9191 311.89 65.3416 311.89 65.7599C311.89 67.2966 311.736 68.8208 311.437 70.2912C311.404 70.4983 311.226 70.6432 311.024 70.6432ZM310.7 60.2056C310.51 60.2056 310.336 60.0773 310.287 59.8784C309.822 58.0726 309.15 56.3247 308.288 54.6721C308.175 54.4567 308.256 54.1916 308.466 54.0798C308.673 53.9638 308.936 54.0466 309.045 54.262C309.935 55.9726 310.635 57.7868 311.117 59.6548C311.178 59.8909 311.04 60.1311 310.813 60.1891C310.773 60.2015 310.737 60.2056 310.7 60.2056ZM306.042 50.9029C305.917 50.9029 305.796 50.8491 305.711 50.7456C304.529 49.2876 303.19 48.0036 301.729 46.935C301.535 46.7942 301.49 46.5208 301.628 46.322C301.765 46.1232 302.032 46.0818 302.227 46.2185C303.744 47.3326 305.14 48.6622 306.37 50.1823C306.52 50.3686 306.496 50.6461 306.314 50.7994C306.233 50.8698 306.14 50.9029 306.042 50.9029ZM273.483 49.2752C273.37 49.2752 273.261 49.2296 273.176 49.1426C273.01 48.9687 273.018 48.6912 273.188 48.5214C274.535 47.1918 276.073 46.0362 277.761 45.0877C277.971 44.9717 278.23 45.0504 278.343 45.2617C278.457 45.4729 278.38 45.7421 278.173 45.8581C276.551 46.7693 275.074 47.8794 273.783 49.1509C273.698 49.2338 273.593 49.2752 273.483 49.2752ZM297.86 44.686C297.808 44.686 297.751 44.6735 297.698 44.6528C296.039 43.9528 294.267 43.4682 292.43 43.2073C292.195 43.1742 292.033 42.9546 292.065 42.7103C292.098 42.47 292.312 42.3002 292.551 42.3375C294.457 42.6067 296.298 43.112 298.026 43.841C298.245 43.9321 298.35 44.1889 298.261 44.4126C298.188 44.5824 298.03 44.686 297.86 44.686ZM282.309 44.044C282.127 44.044 281.957 43.9238 281.9 43.7333C281.832 43.5014 281.961 43.257 282.188 43.1866C283.992 42.6233 285.866 42.2795 287.76 42.1594C287.995 42.1511 288.201 42.3292 288.213 42.5694C288.229 42.8097 288.047 43.0209 287.812 43.0333C285.987 43.1493 284.179 43.4848 282.434 44.0274C282.394 44.0357 282.349 44.044 282.309 44.044Z" fill="#F67952"/>
<path d="M251.453 22.2037L252.983 25.0699C253.21 25.4923 253.546 25.8361 253.958 26.0681L256.759 27.6337C258.458 28.5863 258.458 31.0881 256.759 32.0365L253.958 33.6022C253.546 33.8341 253.21 34.1779 252.983 34.6004L251.453 37.4666C250.523 39.2062 248.079 39.2062 247.152 37.4666L245.622 34.6004C245.396 34.1779 245.06 33.8341 244.647 33.6022L241.847 32.0365C240.147 31.0839 240.147 28.5822 241.847 27.6337L244.647 26.0681C245.06 25.8361 245.396 25.4923 245.622 25.0699L247.152 22.2037C248.083 20.4599 250.523 20.4599 251.453 22.2037Z" fill="#F67952"/>
<path d="M250.498 36.0583C249.43 36.0583 248.483 35.4868 247.969 34.5258L246.44 31.6555C246.254 31.3076 245.974 31.0218 245.634 30.8313L242.834 29.2656C241.895 28.7396 241.337 27.7745 241.337 26.6769C241.337 25.5835 241.895 24.6143 242.834 24.0883L245.634 22.5226C245.974 22.3321 246.254 22.0463 246.44 21.6984L247.969 18.8322C248.483 17.8713 249.426 17.2997 250.498 17.2997C251.567 17.2997 252.514 17.8713 253.028 18.8322L254.557 21.6984C254.743 22.0463 255.023 22.3321 255.363 22.5226L258.163 24.0924C259.102 24.6184 259.66 25.5835 259.66 26.6811C259.66 27.7745 259.102 28.7438 258.163 29.2698L255.363 30.8354C255.023 31.0259 254.743 31.3117 254.557 31.6596L253.028 34.5258C252.514 35.4826 251.571 36.0583 250.498 36.0583ZM250.498 18.1778C249.746 18.1778 249.082 18.5795 248.722 19.2547L247.192 22.1209C246.925 22.6179 246.533 23.0238 246.047 23.293L243.247 24.8586C242.587 25.2273 242.195 25.9065 242.195 26.6769C242.195 27.4473 242.587 28.1266 243.247 28.4952L246.047 30.0609C246.533 30.3301 246.925 30.736 247.192 31.233L248.722 34.0992C249.082 34.7744 249.746 35.1761 250.498 35.1761C251.251 35.1761 251.915 34.7744 252.275 34.0992L253.805 31.233C254.072 30.736 254.464 30.3301 254.95 30.0609L257.75 28.4952C258.41 28.1266 258.802 27.4473 258.802 26.6769C258.802 25.9065 258.41 25.2273 257.75 24.8586L254.95 23.293C254.464 23.0238 254.068 22.6179 253.805 22.1209L252.275 19.2547C251.915 18.5837 251.251 18.1778 250.498 18.1778Z" fill="black"/>
<path d="M55.2122 26.6146L56.4262 28.8844C56.6043 29.2199 56.8713 29.4933 57.1991 29.6755L59.4167 30.9181C60.7642 31.6719 60.7642 33.6559 59.4167 34.4097L57.1991 35.6523C56.8713 35.8345 56.6043 36.1079 56.4262 36.4434L55.2122 38.7131C54.4757 40.0924 52.5374 40.0924 51.8009 38.7131L50.5869 36.4434C50.4089 36.1079 50.1418 35.8345 49.814 35.6523L47.5965 34.4097C46.2489 33.6559 46.2489 31.6719 47.5965 30.9181L49.814 29.6755C50.1418 29.4933 50.4089 29.2199 50.5869 28.8844L51.8009 26.6146C52.5374 25.2354 54.4757 25.2354 55.2122 26.6146Z" fill="#F67952"/>
<path d="M49.7695 40.192C48.8873 40.192 48.1104 39.7198 47.6855 38.9287L46.4715 36.6589C46.3339 36.398 46.1235 36.1868 45.8685 36.0418L43.651 34.7992C42.8781 34.3685 42.4167 33.5691 42.4167 32.6703C42.4167 31.7674 42.8781 30.9721 43.651 30.5372L45.8685 29.2947C46.1235 29.1538 46.3298 28.9384 46.4715 28.6775L47.6855 26.4077C48.1063 25.6166 48.8873 25.1445 49.7695 25.1445C50.6516 25.1445 51.4286 25.6166 51.8494 26.4077L53.0634 28.6775C53.201 28.9384 53.4114 29.1497 53.6664 29.2947L55.8839 30.5372C56.6568 30.968 57.1181 31.7674 57.1181 32.6703C57.1181 33.5732 56.6568 34.3685 55.8839 34.7992L53.6664 36.0418C53.4114 36.1826 53.2051 36.398 53.0634 36.6589L51.8494 38.9287C51.4286 39.7198 50.6516 40.192 49.7695 40.192ZM49.7695 26.0184C49.207 26.0184 48.7093 26.3208 48.4381 26.8261L47.2241 29.0958C47.0056 29.5059 46.6819 29.8372 46.2813 30.0609L44.0637 31.3035C43.57 31.581 43.2746 32.0904 43.2746 32.6662C43.2746 33.2419 43.57 33.7513 44.0637 34.0247L46.2813 35.2673C46.6819 35.4909 47.0056 35.8223 47.2241 36.2323L48.4381 38.5021C48.7093 39.0074 49.207 39.3098 49.7695 39.3098C50.332 39.3098 50.8297 39.0074 51.1008 38.5021L52.3148 36.2323C52.5333 35.8223 52.8571 35.4909 53.2577 35.2673L55.4752 34.0247C55.9689 33.7472 56.2643 33.2419 56.2643 32.662C56.2643 32.0863 55.9689 31.5768 55.4752 31.2993L53.2577 30.0568C52.8571 29.8331 52.5333 29.4976 52.3148 29.0917L51.1008 26.8219C50.8297 26.3208 50.332 26.0184 49.7695 26.0184Z" fill="black"/>
<path d="M301.255 182.325C300.579 182.325 299.985 181.965 299.661 181.36L298.795 179.741C298.706 179.575 298.576 179.442 298.415 179.351L296.832 178.465C296.242 178.134 295.885 177.525 295.889 176.833C295.889 176.141 296.242 175.533 296.832 175.201L298.415 174.315C298.576 174.224 298.706 174.091 298.795 173.925L299.661 172.302C299.985 171.697 300.579 171.333 301.255 171.333C301.931 171.333 302.526 171.693 302.85 172.302L303.716 173.925C303.805 174.091 303.934 174.224 304.096 174.315L305.678 175.201C306.269 175.533 306.625 176.141 306.625 176.833C306.625 177.525 306.273 178.134 305.678 178.465L304.096 179.351C303.934 179.442 303.805 179.575 303.716 179.741L302.85 181.36C302.526 181.965 301.927 182.325 301.255 182.325ZM301.255 172.211C300.899 172.211 300.584 172.401 300.414 172.72L299.548 174.344C299.382 174.654 299.131 174.911 298.823 175.081L297.241 175.967C296.929 176.141 296.743 176.464 296.743 176.829C296.743 177.193 296.929 177.516 297.241 177.69L298.823 178.577C299.131 178.747 299.378 179.003 299.548 179.314L300.414 180.934C300.584 181.252 300.899 181.443 301.255 181.443C301.611 181.443 301.927 181.252 302.097 180.934L302.963 179.314C303.129 179.003 303.38 178.747 303.687 178.577L305.27 177.69C305.581 177.516 305.767 177.193 305.767 176.829C305.767 176.464 305.581 176.141 305.27 175.967L303.687 175.081C303.38 174.911 303.133 174.654 302.963 174.344L302.097 172.72C301.923 172.401 301.611 172.211 301.255 172.211Z" fill="#F67952"/>
<path d="M311.137 194.08C310.684 194.08 310.267 193.827 310.049 193.421L309.543 192.473C309.506 192.407 309.454 192.353 309.393 192.32L308.466 191.802C308.07 191.578 307.823 191.152 307.823 190.688C307.823 190.224 308.07 189.797 308.466 189.573L309.393 189.056C309.458 189.018 309.51 188.965 309.547 188.898L310.053 187.954C310.271 187.548 310.684 187.295 311.137 187.295C311.59 187.295 312.007 187.548 312.226 187.954L312.732 188.902C312.768 188.969 312.821 189.023 312.885 189.056L313.808 189.573C314.205 189.797 314.451 190.224 314.451 190.688C314.451 191.152 314.205 191.578 313.808 191.802L312.881 192.32C312.817 192.357 312.764 192.411 312.732 192.477L312.226 193.421C312.007 193.827 311.59 194.08 311.137 194.08ZM311.137 188.173C311.068 188.173 310.902 188.194 310.801 188.376L310.295 189.325C310.182 189.54 310.012 189.71 309.802 189.83L308.875 190.348C308.697 190.447 308.677 190.621 308.677 190.692C308.677 190.762 308.697 190.936 308.875 191.036L309.802 191.553C310.008 191.669 310.182 191.843 310.295 192.059L310.801 193.007C310.898 193.189 311.068 193.21 311.137 193.21C311.206 193.21 311.372 193.189 311.473 193.007L311.979 192.059C312.092 191.843 312.262 191.669 312.473 191.553L313.395 191.036C313.573 190.936 313.593 190.762 313.593 190.692C313.593 190.621 313.573 190.452 313.395 190.348L312.469 189.83C312.262 189.714 312.092 189.54 311.975 189.325L311.469 188.376C311.376 188.194 311.206 188.173 311.137 188.173Z" fill="#F67952"/>
<path d="M71.0709 17.9169C70.6177 17.9169 70.2009 17.6643 69.9824 17.2584L69.4765 16.3099C69.4401 16.2436 69.3875 16.1898 69.3268 16.1566L68.4001 15.6389C68.0036 15.4152 67.7567 14.9886 67.7567 14.5247C67.7567 14.0608 68.0036 13.6342 68.4001 13.4106L69.3268 12.8928C69.3916 12.8555 69.4442 12.8017 69.4806 12.7354L69.9864 11.7911C70.2049 11.3852 70.6217 11.1325 71.0749 11.1325C71.5282 11.1325 71.945 11.3852 72.1594 11.7911L72.6653 12.7396C72.7017 12.8058 72.7543 12.8597 72.819 12.897L73.7417 13.4147C74.1382 13.6384 74.3851 14.065 74.3851 14.5289C74.3851 14.9928 74.1382 15.4194 73.7417 15.643L72.815 16.1608C72.7503 16.198 72.6976 16.2519 72.6653 16.3182L72.1594 17.2625C71.9409 17.6643 71.5241 17.9169 71.0709 17.9169ZM71.0709 12.0106C71.0021 12.0106 70.8362 12.0313 70.735 12.2135L70.2292 13.162C70.1159 13.3774 69.9459 13.5514 69.7355 13.6673L68.8088 14.1851C68.6308 14.2845 68.6106 14.4585 68.6106 14.5289C68.6106 14.5993 68.6308 14.7691 68.8088 14.8726L69.7355 15.3904C69.9419 15.5064 70.1119 15.6803 70.2292 15.8957L70.735 16.8442C70.8322 17.0264 71.0021 17.0471 71.0709 17.0471C71.1397 17.0471 71.3056 17.0264 71.4027 16.8442L71.9086 15.8957C72.0219 15.6803 72.1918 15.5064 72.4022 15.3904L73.3289 14.8726C73.507 14.7732 73.5272 14.5993 73.5272 14.5289C73.5272 14.4585 73.507 14.2845 73.3289 14.1851L72.4063 13.6632C72.1959 13.5472 72.03 13.3733 71.9126 13.1579L71.4068 12.2094C71.3097 12.0272 71.1397 12.0106 71.0709 12.0106Z" fill="#F67952"/>
<path d="M127.27 200.504C126.817 200.504 126.4 200.251 126.182 199.846L125.676 198.897C125.64 198.831 125.587 198.777 125.526 198.744L124.6 198.226C124.203 198.002 123.956 197.576 123.956 197.112C123.956 196.648 124.203 196.221 124.6 195.998L125.526 195.48C125.591 195.443 125.644 195.389 125.676 195.327L126.182 194.378C126.4 193.972 126.817 193.72 127.27 193.72C127.724 193.72 128.141 193.972 128.359 194.378L128.865 195.327C128.901 195.393 128.954 195.447 129.015 195.48L129.941 195.998C130.338 196.221 130.585 196.648 130.585 197.112C130.585 197.576 130.338 198.002 129.941 198.226L129.015 198.744C128.95 198.781 128.897 198.835 128.865 198.901L128.359 199.846C128.141 200.251 127.724 200.504 127.27 200.504ZM127.27 194.598C127.202 194.598 127.032 194.618 126.935 194.801L126.429 195.749C126.315 195.965 126.146 196.139 125.935 196.255L125.012 196.772C124.834 196.872 124.814 197.046 124.814 197.116C124.814 197.186 124.834 197.36 125.012 197.46L125.939 197.978C126.15 198.094 126.32 198.267 126.433 198.483L126.939 199.427C127.036 199.609 127.206 199.63 127.275 199.63C127.343 199.63 127.509 199.609 127.61 199.427L128.116 198.479C128.23 198.263 128.399 198.089 128.61 197.973L129.537 197.456C129.715 197.356 129.735 197.182 129.735 197.112C129.735 197.041 129.715 196.872 129.537 196.768L128.61 196.25C128.404 196.134 128.23 195.96 128.116 195.745L127.61 194.797C127.509 194.618 127.339 194.598 127.27 194.598Z" fill="#F67952"/>
<path d="M15.4622 292.135C14.839 292.135 14.2846 291.8 13.9892 291.241L13.2082 289.779C13.1313 289.638 13.018 289.522 12.8804 289.443L11.452 288.644C10.9057 288.337 10.5779 287.774 10.5779 287.136C10.5779 286.498 10.9057 285.931 11.452 285.624L12.8804 284.825C13.018 284.746 13.1313 284.63 13.2082 284.489L13.9892 283.027C14.2886 282.468 14.839 282.133 15.4622 282.133C16.0853 282.133 16.6397 282.468 16.9392 283.027L17.7202 284.489C17.7971 284.63 17.9104 284.746 18.048 284.825L19.4764 285.624C20.0227 285.931 20.3505 286.494 20.3505 287.136C20.3505 287.774 20.0227 288.341 19.4764 288.644L18.048 289.443C17.9104 289.522 17.7971 289.638 17.7202 289.779L16.9392 291.241C16.6357 291.8 16.0853 292.135 15.4622 292.135ZM15.4622 283.007C15.1546 283.007 14.8875 283.172 14.7378 283.446L13.9568 284.908C13.803 285.198 13.5724 285.434 13.2891 285.591L11.8607 286.391C11.5936 286.54 11.4317 286.817 11.4317 287.132C11.4317 287.447 11.5936 287.72 11.8607 287.873L13.2891 288.673C13.5724 288.83 13.803 289.066 13.9568 289.356L14.7378 290.818C14.8835 291.092 15.1546 291.257 15.4622 291.257C15.7697 291.257 16.0368 291.092 16.1865 290.818L16.9675 289.356C17.1213 289.066 17.3519 288.83 17.6352 288.673L19.0637 287.873C19.3307 287.724 19.4926 287.447 19.4926 287.132C19.4926 286.817 19.3307 286.544 19.0637 286.391L17.6352 285.591C17.3519 285.434 17.1213 285.198 16.9675 284.908L16.1865 283.446C16.0368 283.168 15.7657 283.007 15.4622 283.007Z" fill="#F67952"/>
<path d="M20.3248 200.15C20.1862 200.15 20.0439 200.135 19.9053 200.101C19.2378 199.941 18.7271 199.443 18.5338 198.774C18.1581 197.495 18.3806 196.108 19.1174 195.151C19.4056 194.773 19.763 194.444 20.1096 194.126C20.7515 193.532 21.357 192.971 21.3972 192.227C21.4081 192.01 21.5832 191.827 21.8057 191.853C22.0173 191.864 22.1814 192.051 22.1705 192.272C22.1121 193.341 21.357 194.04 20.6275 194.713C20.2919 195.024 19.9746 195.315 19.7266 195.641C19.1429 196.396 18.9715 197.51 19.2743 198.546C19.391 198.942 19.6901 199.234 20.0804 199.327C20.4889 199.421 20.9011 199.283 21.171 198.95L25.1105 194.122C26.3652 192.586 27.5689 190.933 27.3209 189.149C27.2917 188.932 27.4376 188.731 27.6492 188.701C27.8608 188.667 28.0577 188.82 28.0869 189.037C28.3787 191.146 27.0109 193.031 25.705 194.631L21.7656 199.458C21.4008 199.907 20.8756 200.15 20.3248 200.15Z" fill="black"/>
<path d="M19.8214 205.131C19.5041 205.131 19.1575 204.951 18.8256 204.607C17.8079 203.542 17.0273 202.132 16.5604 200.535C16.1592 199.167 15.9768 197.656 16.0023 195.925C16.0461 193.311 16.5823 190.656 17.5489 188.245C17.6292 188.043 17.859 187.949 18.0523 188.028C18.2493 188.11 18.3441 188.342 18.2639 188.544C17.3301 190.862 16.8158 193.416 16.772 195.932C16.7465 197.581 16.9179 199.01 17.2972 200.303C17.7277 201.78 18.4426 203.074 19.3727 204.046C19.588 204.271 19.7849 204.361 19.8469 204.323C19.8907 204.286 19.9527 204.181 19.9162 203.781C19.7922 202.528 19.6682 201.272 19.5478 200.012C19.5259 199.795 19.6828 199.601 19.8944 199.578C20.1059 199.559 20.2956 199.716 20.3175 199.933C20.4378 201.193 20.5619 202.45 20.6859 203.706C20.7224 204.103 20.7151 204.592 20.3722 204.906C20.3248 204.948 20.281 204.981 20.2336 205.011C20.1096 205.093 19.971 205.131 19.8214 205.131Z" fill="black"/>
<path d="M20.9339 203.822C20.7224 203.822 20.5181 203.781 20.3284 203.702C20.1315 203.616 20.0403 203.384 20.1205 203.183C20.2044 202.981 20.4306 202.887 20.6275 202.969C20.9595 203.111 21.4008 202.999 21.7255 202.689C21.7583 202.659 21.7838 202.633 21.8057 202.603C22.1012 202.255 22.2726 201.754 22.3273 201.1C22.3346 201.021 22.3383 200.943 22.3419 200.872C22.3747 200.03 22.2215 199.189 21.8969 198.426C21.8276 198.277 21.8495 198.093 21.9699 197.974C22.1231 197.82 22.3638 197.817 22.5133 197.97L22.517 197.974C22.5498 198.007 22.579 198.049 22.5972 198.093C22.9729 198.965 23.1517 199.933 23.1116 200.894C23.1079 200.991 23.1043 201.085 23.0933 201.171C23.0277 201.99 22.7906 202.644 22.393 203.111C22.3565 203.16 22.3054 203.212 22.2471 203.269C21.8787 203.627 21.3972 203.822 20.9339 203.822Z" fill="black"/>
<path d="M23.1663 201.354C22.9985 201.354 22.8307 201.317 22.6702 201.235C22.4805 201.137 22.4003 200.898 22.4988 200.704C22.5936 200.509 22.827 200.431 23.0167 200.528C23.2173 200.633 23.5201 200.49 23.6769 200.296C23.8812 200.03 23.9578 199.649 24.0089 199.275C24.1438 198.206 24.0928 197.133 23.852 196.089C23.8046 195.876 23.9323 195.663 24.1402 195.615C24.3481 195.566 24.556 195.697 24.6034 195.91C24.8624 197.047 24.9208 198.213 24.7712 199.38C24.7092 199.844 24.6034 200.371 24.2788 200.79C24.0271 201.107 23.604 201.354 23.1663 201.354Z" fill="black"/>
</svg>
