<svg width="324" height="326" viewBox="0 0 324 326" fill="none" xmlns="http://www.w3.org/2000/svg">
<path d="M75.1639 117.162L80.0685 115.774C80.9507 115.523 81.8005 115.171 82.6017 114.726L100.965 104.055L112.438 80.1757L113.559 80.4792L121.887 82.713L122.935 82.9922L113.717 110.194C112.053 114.269 109.01 117.628 105.117 119.683L82.4925 131.649L85.6003 139.419C86.7131 142.195 85.9766 145.372 83.755 147.375L78.547 152.069L72.0318 176.264H42.564L43.612 171.999L34.5718 150.632C33.4185 147.905 33.7665 144.773 35.4904 142.365L51.8672 119.469C52.8749 120.367 53.9958 121.136 55.1936 121.751C58.002 123.192 61.3122 123.835 64.3634 123.042C66.7914 122.411 69.0494 120.788 70.0449 118.494L70.2068 118.562L75.1639 117.162Z" fill="#F67952"/>
<path d="M96.243 304.932L97.7848 307.416H65.9578V298.947C65.9578 298.174 66.585 297.547 67.3579 297.547C67.536 297.547 67.71 297.579 67.8718 297.64C68.1187 297.741 68.3332 297.903 68.495 298.121L70.1542 300.416C70.6519 301.096 71.4491 301.5 72.2949 301.5H75.1842C76.0906 301.5 76.9364 301.039 77.4179 300.27L78.725 298.202C78.9112 297.911 79.1904 297.696 79.5141 297.603C79.6396 297.567 79.769 297.547 79.9066 297.547H80.2587C80.6188 297.547 80.9628 297.688 81.2218 297.935L83.0104 299.639C84.4308 300.99 86.2882 301.796 88.2428 301.905L91.4518 302.087C93.4144 302.2 95.203 303.261 96.243 304.932Z" fill="black"/>
<path d="M51.8672 119.473C49.5445 117.425 47.8125 114.71 47.1084 111.699C46.0967 107.377 47.3471 102.521 50.5521 99.4499C51.9118 98.1469 53.5992 97.1473 54.6109 95.557C55.7642 93.732 55.8208 91.4496 56.359 89.3656C57.6054 84.5379 61.3567 81.7376 65.6502 79.7224C70.0125 77.6748 73.4441 78.472 76.649 82.3042C78.377 84.368 79.4372 87.3099 78.462 89.9524C78.4579 89.9645 78.4539 89.9726 78.4498 89.9847C76.8271 94.2985 70.8704 95.5327 68.8552 99.6806C67.4712 102.533 68.3534 105.921 69.3165 108.939C70.2836 111.958 71.3074 115.26 70.1622 118.218C70.1258 118.311 70.0894 118.405 70.0408 118.494C69.0453 120.788 66.7914 122.411 64.3593 123.042C61.3081 123.835 57.9979 123.196 55.1896 121.751C53.9958 121.14 52.8749 120.367 51.8672 119.473Z" fill="black"/>
<path d="M48.3305 297.692C49.8965 297.344 51.8106 297.073 53.9958 297.073C56.2134 297.073 58.1518 297.352 59.73 297.708C60.3815 297.858 60.9723 298.02 61.4984 298.174C61.4984 301.524 61.4984 304.05 61.4984 307.4H46.4893V298.174C47.0356 298.012 47.6506 297.846 48.3305 297.692Z" fill="black"/>
<path d="M70.2067 118.999C70.0165 118.999 69.8425 118.874 69.7858 118.679C69.7211 118.449 69.8546 118.206 70.0893 118.141L79.9511 115.353C80.8009 115.11 81.6183 114.77 82.3912 114.341L100.747 103.674C100.957 103.553 101.224 103.626 101.346 103.832C101.467 104.043 101.394 104.31 101.188 104.431L82.8242 115.102C81.9906 115.568 81.1044 115.932 80.1939 116.195L70.3321 118.983C70.2836 118.995 70.2431 118.999 70.2067 118.999Z" fill="black"/>
<path d="M72.0317 176.701H42.5639C42.4303 176.701 42.3009 176.64 42.2199 176.535C42.139 176.43 42.1066 176.292 42.139 176.162L52.0533 135.951C52.11 135.716 52.3487 135.574 52.5834 135.631C52.8182 135.688 52.9598 135.926 52.9031 136.161L43.1223 175.831H71.6959L78.122 151.959C78.1422 151.878 78.1908 151.806 78.2515 151.749L83.4595 147.055C85.5355 145.185 86.2315 142.183 85.1915 139.585L82.0837 131.815C82.0027 131.609 82.0877 131.37 82.286 131.265L104.911 119.299C108.703 117.296 111.685 114.002 113.308 110.032L122.364 83.2995L112.668 80.6975L100.209 106.629C100.103 106.847 99.8445 106.936 99.626 106.835C99.4075 106.73 99.3184 106.471 99.4196 106.252L112.037 79.9934C112.13 79.8032 112.341 79.7061 112.547 79.7587L123.044 82.5752C123.161 82.6075 123.259 82.6844 123.315 82.7896C123.372 82.8949 123.384 83.0203 123.344 83.1377L114.125 110.339C112.413 114.528 109.289 117.975 105.32 120.076L83.0427 131.856L86.0049 139.261C87.1784 142.195 86.3934 145.59 84.0463 147.706L78.9313 152.311L72.4485 176.385C72.404 176.571 72.23 176.701 72.0317 176.701Z" fill="black"/>
<path d="M43.6121 172.44C43.4421 172.44 43.2802 172.338 43.2074 172.173L34.1671 150.806C32.9653 147.957 33.3335 144.627 35.1302 142.114L51.5638 119.141C51.7014 118.943 51.9765 118.894 52.1748 119.032C52.3731 119.169 52.4217 119.444 52.2841 119.643L52.2274 119.724L35.8465 142.624C34.2238 144.894 33.892 147.897 34.9765 150.466L44.0167 171.833C44.1098 172.055 44.0086 172.31 43.7861 172.407C43.7294 172.428 43.6687 172.44 43.6121 172.44Z" fill="black"/>
<path d="M60.4623 295.685H47.2418C47.0192 295.685 46.8291 295.515 46.8088 295.293L37.6917 208.572C36.9754 201.742 37.457 194.895 39.1242 188.218L42.139 176.159C42.1997 175.924 42.4384 175.782 42.6691 175.839C42.9038 175.9 43.0454 176.134 42.9888 176.369L39.974 188.428C38.331 195.004 37.8576 201.75 38.5617 208.479L47.6384 294.807H60.0293V207.755C60.0293 207.512 60.2235 207.306 60.4663 207.306C60.7091 207.306 60.9034 207.492 60.9034 207.735V295.248C60.9034 295.487 60.7051 295.685 60.4623 295.685Z" fill="black"/>
<path d="M80.0159 295.685H67.0747C66.9452 295.685 66.8197 295.624 66.7347 295.523C66.6498 295.422 66.6174 295.289 66.6457 295.159L78.4539 235.843L54.5907 199.637C54.4571 199.435 54.5138 199.164 54.7161 199.03C54.9185 198.897 55.1896 198.953 55.3231 199.156L79.2835 235.511C79.3482 235.608 79.3684 235.726 79.3482 235.839L67.6088 294.807H79.7043L98.0641 240.489C99.0919 237.454 98.9017 234.188 97.534 231.29L71.6393 176.45C71.5381 176.231 71.6312 175.972 71.8497 175.867C72.0683 175.766 72.3272 175.859 72.4325 176.078L98.3271 230.918C99.792 234.022 99.9943 237.522 98.8936 240.772L80.4368 295.386C80.372 295.564 80.2061 295.685 80.0159 295.685Z" fill="black"/>
<path d="M76.4062 110.671C75.6576 110.671 74.8199 110.518 73.8892 110.206C73.2741 110 72.6266 109.728 71.9144 109.389C71.6959 109.283 71.6028 109.024 71.708 108.806C71.8132 108.587 72.0763 108.498 72.2907 108.599C72.9706 108.927 73.5857 109.182 74.1684 109.376C76.39 110.117 77.9196 109.882 78.8423 108.66C79.7487 107.462 83.9816 100.935 78.1867 90.2397C78.0734 90.0293 78.1503 89.7622 78.3648 89.6489C78.5752 89.5315 78.8423 89.6125 78.9556 89.8269C85.0054 100.996 80.5014 107.916 79.5383 109.19C78.7937 110.178 77.7456 110.671 76.4062 110.671Z" fill="black"/>
<path d="M61.5913 123.823C59.4263 123.823 57.1602 123.252 54.9952 122.139C53.7772 121.516 52.6279 120.727 51.5798 119.796C49.1275 117.631 47.3875 114.787 46.6834 111.796C45.6069 107.207 47.0111 102.238 50.2525 99.1301C50.7179 98.685 51.2197 98.2763 51.7053 97.8756C52.6846 97.0744 53.6072 96.3217 54.2425 95.3181C54.9993 94.1203 55.2542 92.7121 55.5294 91.2189C55.6467 90.5714 55.7722 89.8996 55.9381 89.2481C57.3747 83.684 62.0647 80.916 65.468 79.3176C70.0084 77.185 73.6706 78.0429 76.9889 82.0167C78.6237 83.9713 79.9753 87.1196 78.8787 90.0939C77.9763 92.4936 75.872 93.9665 73.8406 95.395C71.9548 96.7183 70.1783 97.9687 69.2557 99.8625C67.9405 102.574 68.8186 105.896 69.7413 108.798C70.6558 111.659 71.797 115.22 70.5789 118.368C70.5344 118.477 70.494 118.578 70.4414 118.684C69.458 120.954 67.2243 122.746 64.4806 123.459C63.5458 123.706 62.5787 123.823 61.5913 123.823ZM69.976 79.0627C68.6932 79.0627 67.3254 79.4147 65.8362 80.1148C60.6848 82.5347 57.8077 85.509 56.7838 89.4707C56.626 90.0898 56.5046 90.7454 56.3873 91.3807C56.1121 92.8901 55.8288 94.4481 54.979 95.7875C54.2668 96.9085 53.2471 97.7461 52.2556 98.5555C51.7822 98.944 51.2925 99.3446 50.8514 99.7654C47.8286 102.659 46.5255 107.304 47.5291 111.598C48.1887 114.418 49.8317 117.097 52.1504 119.145C53.1418 120.027 54.2304 120.776 55.3837 121.362C58.354 122.884 61.4982 123.329 64.2459 122.617C66.7306 121.969 68.7458 120.363 69.6361 118.319C69.6846 118.218 69.717 118.141 69.7494 118.056C70.8541 115.199 69.8141 111.942 68.8915 109.069C67.9162 106.005 66.9976 102.489 68.4504 99.4862C69.4702 97.386 71.4247 96.0142 73.3185 94.6869C75.3338 93.2746 77.2317 91.9392 78.0289 89.8268C79.0122 87.1722 77.778 84.3476 76.3009 82.5833C74.3383 80.22 72.2947 79.0627 69.976 79.0627Z" fill="black"/>
<path d="M75.2368 117.676C75.1397 117.676 75.0426 117.644 74.9617 117.575C74.9374 117.555 74.9171 117.534 74.8969 117.514C74.8888 117.51 74.8686 117.486 74.8605 117.482C73.8771 116.535 73.2985 115.378 73.0314 113.848C72.7684 112.322 72.9707 110.898 73.6343 109.611C73.7031 109.461 73.8569 109.36 74.0309 109.36C74.2737 109.36 74.468 109.554 74.468 109.797V109.801C74.468 109.87 74.4518 109.939 74.4194 110.004C73.8326 111.137 73.6627 112.347 73.8974 113.702C74.1321 115.058 74.6177 116.033 75.4715 116.859C75.4756 116.859 75.4958 116.883 75.5201 116.903C75.7022 117.061 75.7305 117.344 75.5768 117.526C75.4796 117.619 75.3582 117.676 75.2368 117.676Z" fill="black"/>
<path d="M97.7808 307.854H65.9538C65.711 307.854 65.5167 307.659 65.5167 307.416V298.947C65.5167 297.935 66.3422 297.11 67.3539 297.11C67.5846 297.11 67.8071 297.15 68.0216 297.235C68.3534 297.369 68.6327 297.583 68.839 297.866L70.5022 300.161C70.915 300.727 71.5827 301.067 72.2868 301.067H75.1761C75.9409 301.067 76.637 300.683 77.0416 300.039L78.3487 297.967C78.5915 297.587 78.9557 297.308 79.3847 297.182C79.5506 297.134 79.7246 297.106 79.9026 297.106H80.2547C80.7241 297.106 81.1733 297.288 81.5173 297.615L83.3059 299.319C84.6534 300.598 86.4137 301.363 88.2631 301.468L91.4721 301.65C93.5804 301.771 95.5026 302.913 96.6113 304.701L98.1531 307.182C98.2381 307.315 98.2421 307.485 98.1653 307.627C98.0884 307.769 97.9427 307.854 97.7808 307.854ZM66.3908 306.979H96.9958L95.8708 305.167C94.9117 303.617 93.2486 302.629 91.4235 302.528L88.2145 302.346C86.1588 302.229 84.2002 301.379 82.7029 299.958L80.9143 298.255C80.7322 298.081 80.4975 297.988 80.2547 297.988H79.9026C79.8136 297.988 79.7246 298 79.6356 298.028C79.4089 298.093 79.2188 298.243 79.0893 298.441L77.7862 300.509C77.2197 301.407 76.2485 301.945 75.1802 301.945H72.2909C71.3075 301.945 70.3727 301.472 69.7981 300.679L68.1349 298.384C68.0257 298.235 67.8759 298.121 67.7019 298.048C67.5927 298.008 67.4753 297.984 67.3539 297.984C66.8238 297.984 66.3908 298.417 66.3908 298.947V306.979Z" fill="black"/>
<path d="M97.7808 311.758H65.9538C65.711 311.758 65.5167 311.564 65.5167 311.321V307.416C65.5167 307.173 65.711 306.979 65.9538 306.979C66.1966 306.979 66.3908 307.173 66.3908 307.416V310.884H97.3438V307.416C97.3438 307.173 97.538 306.979 97.7808 306.979C98.0236 306.979 98.2179 307.173 98.2179 307.416V311.321C98.2179 311.56 98.0236 311.758 97.7808 311.758Z" fill="black"/>
<path d="M79.4899 297.983C79.4858 297.983 79.4899 297.983 79.4899 297.983C79.2471 297.983 79.0529 297.785 79.0529 297.542L79.069 295.284C79.069 295.046 79.2673 294.851 79.5061 294.851H79.5101C79.7529 294.851 79.9472 295.05 79.9431 295.292L79.9269 297.55C79.9229 297.789 79.7286 297.983 79.4899 297.983Z" fill="black"/>
<path d="M67.9082 297.983C67.6694 297.983 67.4752 297.793 67.4711 297.55L67.4428 295.292C67.4388 295.05 67.633 294.851 67.8758 294.851H67.8798C68.1186 294.851 68.3128 295.041 68.3169 295.284L68.3452 297.542C68.3493 297.785 68.155 297.983 67.9122 297.983C67.9122 297.983 67.9122 297.983 67.9082 297.983Z" fill="black"/>
<path d="M61.4983 307.837C61.2555 307.837 61.0612 307.643 61.0612 307.4V298.502C60.5797 298.364 60.1062 298.243 59.6327 298.133C55.9705 297.308 52.1019 297.304 48.4275 298.117C47.946 298.226 47.4604 298.348 46.9262 298.502V307.4C46.9262 307.643 46.732 307.837 46.4892 307.837C46.2464 307.837 46.0521 307.643 46.0521 307.4V298.174C46.0521 297.98 46.1776 297.81 46.3637 297.753C47.0436 297.551 47.6384 297.397 48.2333 297.263C52.0331 296.422 56.0353 296.426 59.8229 297.28C60.4178 297.417 61.0086 297.571 61.6197 297.753C61.8058 297.81 61.9313 297.98 61.9313 298.174V307.4C61.9353 307.643 61.737 307.837 61.4983 307.837Z" fill="black"/>
<path d="M61.4983 312.009H46.4892C46.2464 312.009 46.0521 311.815 46.0521 311.572V307.4C46.0521 307.157 46.2464 306.963 46.4892 306.963H61.4983C61.7411 306.963 61.9353 307.157 61.9353 307.4V311.572C61.9353 311.815 61.737 312.009 61.4983 312.009ZM46.9262 311.135H61.0612V307.837H46.9262V311.135Z" fill="black"/>
<path d="M48.3303 298.226C48.0875 298.226 47.8933 298.032 47.8933 297.789V295.458C47.8933 295.216 48.0875 295.021 48.3303 295.021C48.5731 295.021 48.7674 295.216 48.7674 295.458V297.789C48.7674 298.032 48.5731 298.226 48.3303 298.226Z" fill="black"/>
<path d="M59.7947 297.862C59.5519 297.862 59.3577 297.668 59.3577 297.425V295.462C59.3577 295.22 59.5519 295.025 59.7947 295.025C60.0375 295.025 60.2317 295.22 60.2317 295.462V297.425C60.2317 297.664 60.0375 297.862 59.7947 297.862Z" fill="black"/>
<path d="M75.0627 287.555C75.0303 287.555 74.9979 287.551 74.9615 287.543C74.7268 287.487 74.5811 287.252 74.6337 287.017L85.7378 239.416C86.2801 237.085 85.9968 234.621 84.9406 232.48L67.5157 197.043C67.4104 196.825 67.4995 196.566 67.7139 196.457C67.9325 196.351 68.1914 196.441 68.3007 196.655L85.7257 232.092C86.8709 234.414 87.1784 237.085 86.5876 239.614L75.4836 287.215C75.439 287.422 75.261 287.555 75.0627 287.555Z" fill="black"/>
<path d="M113.619 80.6732C113.385 80.6732 113.19 80.4871 113.182 80.2524C113.118 78.6013 113.053 76.9462 112.992 75.2952C112.948 74.1257 112.895 72.8024 113.356 71.5925C113.802 70.4149 114.906 69.213 116.375 69.1928C116.61 69.1888 116.816 69.383 116.82 69.6258C116.824 69.8686 116.63 70.0669 116.387 70.0709C115.339 70.0871 114.506 71.03 114.174 71.9041C113.777 72.9522 113.822 74.1257 113.866 75.2669C113.927 76.9179 113.992 78.573 114.056 80.224C114.065 80.4668 113.878 80.6692 113.636 80.6773C113.632 80.6732 113.627 80.6732 113.619 80.6732Z" fill="black"/>
<path d="M116.064 74.0448C116.051 74.0448 116.039 74.0448 116.027 74.0448C115.788 74.0246 115.606 73.8141 115.627 73.5713C115.736 72.24 115.979 70.9086 116.343 69.6218C117.006 67.2626 118.059 65.0612 119.471 63.0743C120.341 61.8562 121.838 60.7029 123.194 61.4435C123.934 61.8481 124.679 62.8517 124.023 65.3485L122.413 71.4752C122.352 71.7099 122.113 71.8475 121.879 71.7868C121.644 71.7261 121.506 71.4873 121.567 71.2526L123.178 65.1259C123.408 64.2438 123.663 62.6939 122.777 62.2083C121.862 61.7065 120.717 62.8315 120.187 63.5761C118.831 65.478 117.824 67.5904 117.189 69.8524C116.836 71.0867 116.606 72.3614 116.501 73.6361C116.48 73.8708 116.29 74.0448 116.064 74.0448Z" fill="black"/>
<path d="M123.465 75.9672C123.36 75.9672 123.255 75.9308 123.17 75.8539C122.992 75.692 122.979 75.4128 123.141 75.2347C123.858 74.4497 124.246 73.3207 124.206 72.139C124.161 70.8239 123.611 69.6301 122.692 68.8653C122.506 68.7115 122.482 68.4363 122.635 68.2502C122.789 68.064 123.064 68.0398 123.251 68.1935C124.363 69.1162 125.031 70.5447 125.08 72.1107C125.128 73.519 124.655 74.8705 123.789 75.8256C123.704 75.9227 123.586 75.9672 123.465 75.9672Z" fill="black"/>
<path d="M121.729 83.2753C121.599 83.2753 121.47 83.2146 121.381 83.1053C121.235 82.9151 121.268 82.6399 121.462 82.4902C121.502 82.4578 121.543 82.4255 121.579 82.3931C123.445 80.8635 124.873 78.7916 125.63 76.5335C125.97 75.5178 126.059 74.7651 125.917 74.1015C125.751 73.3164 125.193 72.6811 124.558 72.5516C124.554 72.5516 124.549 72.5516 124.545 72.5475C124.343 72.5111 124.189 72.3331 124.189 72.1186C124.189 71.8434 124.436 71.6289 124.728 71.6937H124.732C125.715 71.892 126.536 72.7863 126.775 73.9194C126.998 74.9755 126.723 76.0196 126.46 76.8087C125.65 79.2205 124.121 81.434 122.162 83.0446C122.093 83.1013 122.045 83.1417 121.996 83.1822C121.915 83.2469 121.822 83.2753 121.729 83.2753Z" fill="black"/>
<path d="M279.869 175.576H282.726C284.757 175.576 286.412 177.227 286.412 179.263V183.738C286.412 185.774 284.761 187.425 282.726 187.425H278.25C276.215 187.425 274.564 185.778 274.564 183.738V179.263C274.564 177.231 276.211 175.576 278.25 175.576H279.869Z" fill="#5D9FEE"/>
<path d="M275.551 298.425L275.976 303.791L275.923 303.795C274.527 306.049 267.935 317.557 264.386 320.176C261.185 322.539 253.379 321.535 254.706 316.133C256.252 311.427 259.684 304.029 261.392 300.108C261.428 300.363 261.707 300.327 262.334 299.821C264.52 298.065 265.543 295.22 268.874 298.016C272.208 300.816 272.945 301.516 274.697 300.12C275.211 299.712 275.409 299.097 275.429 298.425H275.551Z" fill="black"/>
<path d="M249.535 120.193L249.571 120.088L266.106 126.3C270.476 127.999 273.799 131.641 275.078 136.149L279.322 151.078H263.605L265.782 157.394L260.388 164.796L260.149 164.622H238.241L227.282 140.471L214.697 149.997L205.353 136.995L213.872 128.695C215.142 127.461 216.648 126.486 218.295 125.838L231.875 120.234L231.936 120.388C232.118 120.355 232.3 120.315 232.482 120.262C231.924 123.52 234.295 127.012 237.537 127.688C240.001 128.198 242.591 127.214 244.562 125.644C246.492 124.111 247.932 122.067 249.333 120.04C249.401 120.096 249.47 120.145 249.535 120.193Z" fill="#5D9FEE"/>
<path d="M251.085 100.174C250.745 99.9842 250.336 99.8831 249.96 99.9316L249.968 99.7091C249.057 99.0657 248.527 97.9164 248.62 96.8036C248.677 96.1035 248.964 95.3994 248.79 94.7155C248.523 93.6917 247.358 93.2101 246.326 92.9835C245.29 92.7569 244.125 92.5667 243.489 91.725C243.012 91.0937 242.955 90.252 242.817 89.471C242.68 88.69 242.36 87.8402 241.628 87.5326C241.041 87.2898 240.373 87.476 239.766 87.6621C238.374 88.0911 236.982 88.52 235.594 88.949C234.518 89.2848 233.389 89.6167 232.284 89.3901C232.211 89.3739 232.134 89.3577 232.061 89.3375C231.09 89.0461 230.236 88.172 230.293 87.1846H230.289C230.192 83.9594 232.227 80.7707 235.194 79.5C238.164 78.2293 241.879 78.9537 244.145 81.2563C244.91 82.0332 245.525 82.972 246.403 83.6236C247.75 84.6271 249.511 84.8173 251.121 85.2948C252.732 85.7723 254.431 86.8083 254.686 88.4674C254.889 89.7664 254.136 91.1058 254.5 92.3684C254.731 93.1777 255.378 93.7888 255.763 94.5374C256.479 95.9254 256.2 97.6574 255.443 99.0211C254.703 100.352 253.569 101.405 252.44 102.424C252.42 101.506 251.89 100.616 251.085 100.174Z" fill="black"/>
<path d="M219.144 294.755C219.282 294.755 219.412 294.775 219.537 294.811C219.865 294.904 220.144 295.119 220.33 295.406L221.637 297.482C222.119 298.247 222.964 298.712 223.871 298.712H226.76C227.606 298.712 228.399 298.307 228.897 297.62L230.56 295.329C230.718 295.111 230.936 294.945 231.179 294.852C231.341 294.787 231.515 294.755 231.693 294.755C232.466 294.755 233.093 295.382 233.093 296.155V304.624H201.266L202.808 302.14C203.848 300.468 205.637 299.404 207.603 299.295L210.812 299.113C212.771 298.999 214.624 298.194 216.045 296.847L217.829 295.143C218.088 294.896 218.436 294.755 218.796 294.755H219.144Z" fill="black"/>
<path d="M256.422 187.858C256.313 187.858 256.208 187.817 256.123 187.736C255.949 187.57 255.941 187.295 256.107 187.117L278.258 163.727C280.253 161.623 281.002 158.576 280.209 155.78L274.661 136.271C273.426 131.925 270.169 128.347 265.948 126.709L249.422 120.497C249.195 120.412 249.065 120.153 249.15 119.926C249.235 119.7 249.47 119.578 249.697 119.663L249.729 119.675L266.264 125.891C270.743 127.631 274.195 131.419 275.502 136.028L281.05 155.537C281.928 158.629 281.103 161.996 278.893 164.322L278.327 164.921L256.742 187.712C256.653 187.809 256.54 187.858 256.422 187.858Z" fill="black"/>
<path d="M249.13 180.695C249.013 180.695 248.9 180.651 248.815 180.562C248.661 180.4 248.653 180.149 248.794 179.979L265.301 157.326L259.729 141.155C259.652 140.929 259.773 140.678 260 140.601C260.23 140.52 260.477 140.641 260.554 140.872L266.203 157.257C266.248 157.39 266.227 157.54 266.142 157.657L249.486 180.517C249.47 180.537 249.454 180.558 249.434 180.578C249.349 180.655 249.24 180.695 249.13 180.695Z" fill="black"/>
<path d="M279.326 151.519H263.609C263.366 151.519 263.172 151.324 263.172 151.082C263.172 150.839 263.366 150.645 263.609 150.645H279.326C279.569 150.645 279.763 150.839 279.763 151.082C279.763 151.32 279.569 151.519 279.326 151.519Z" fill="black"/>
<path d="M174.275 149.301C174.081 149.301 173.903 149.167 173.85 148.969C173.793 148.735 173.935 148.496 174.17 148.439L199.469 142.13L213.572 128.388C214.899 127.101 216.437 126.106 218.141 125.434L232.086 119.675C232.308 119.582 232.567 119.688 232.656 119.91C232.749 120.133 232.644 120.388 232.421 120.481L232.045 120.638L218.465 126.247C216.862 126.878 215.421 127.809 214.179 129.015L199.991 142.839C199.935 142.891 199.866 142.932 199.793 142.948L174.38 149.285C174.348 149.297 174.311 149.301 174.275 149.301Z" fill="black"/>
<path d="M202.585 157.01H174.004C173.761 157.01 173.567 156.816 173.567 156.573C173.567 156.33 173.761 156.136 174.004 156.136H202.585C204.71 156.136 206.81 155.432 208.502 154.149L227.023 140.127C227.218 139.982 227.489 140.018 227.634 140.212C227.78 140.407 227.744 140.678 227.549 140.823L209.028 154.845C207.187 156.241 204.896 157.01 202.585 157.01Z" fill="black"/>
<path d="M238.245 165.063C238.079 165.063 237.921 164.966 237.848 164.808L225.66 137.954C225.558 137.736 225.655 137.477 225.878 137.376C226.101 137.274 226.356 137.376 226.457 137.594L238.645 164.448C238.746 164.666 238.649 164.925 238.427 165.026C238.37 165.051 238.305 165.063 238.245 165.063Z" fill="black"/>
<path d="M288.957 212.368H223.891C219.95 212.368 216.741 209.159 216.741 205.218V171.343C216.741 167.402 219.95 164.193 223.891 164.193H260.157C260.4 164.193 260.594 164.387 260.594 164.63C260.594 164.873 260.4 165.067 260.157 165.067H223.891C220.431 165.067 217.615 167.883 217.615 171.343V205.218C217.615 208.678 220.431 211.494 223.891 211.494H288.957C292.417 211.494 295.234 208.678 295.234 205.218V171.343C295.234 167.883 292.417 165.067 288.957 165.067H277.493C277.25 165.067 277.056 164.873 277.056 164.63C277.056 164.387 277.25 164.193 277.493 164.193H288.957C292.899 164.193 296.108 167.402 296.108 171.343V205.218C296.108 209.159 292.899 212.368 288.957 212.368Z" fill="black"/>
<path d="M277.493 292.93H261.392C261.157 292.93 260.963 292.743 260.955 292.509L258.049 211.948C258.041 211.705 258.227 211.503 258.47 211.494C258.709 211.486 258.915 211.673 258.923 211.915L261.812 292.056H277.06L278.088 211.927C278.092 211.689 278.286 211.494 278.525 211.494H278.529C278.772 211.499 278.962 211.697 278.962 211.936L277.93 292.497C277.926 292.735 277.732 292.93 277.493 292.93Z" fill="black"/>
<path d="M233.429 292.93H217.178C217.044 292.93 216.915 292.869 216.834 292.76C216.753 292.654 216.72 292.517 216.753 292.383L236.861 211.822C236.921 211.588 237.156 211.446 237.391 211.503C237.625 211.559 237.767 211.798 237.71 212.033L217.74 292.047H233.105L256.629 211.802C256.697 211.571 256.94 211.438 257.171 211.507C257.402 211.575 257.535 211.818 257.466 212.049L233.85 292.61C233.793 292.8 233.623 292.93 233.429 292.93Z" fill="black"/>
<path d="M233.089 305.061H201.262C201.104 305.061 200.959 304.976 200.882 304.839C200.805 304.701 200.809 304.531 200.894 304.394L202.436 301.909C203.548 300.116 205.475 298.975 207.579 298.858L210.788 298.676C212.637 298.571 214.402 297.806 215.745 296.527L217.53 294.823C217.874 294.496 218.327 294.313 218.8 294.313H219.148C219.322 294.313 219.5 294.338 219.666 294.39C220.091 294.512 220.459 294.791 220.702 295.167L222.009 297.243C222.414 297.887 223.114 298.271 223.875 298.271H226.764C227.468 298.271 228.132 297.931 228.545 297.361L230.212 295.07C230.414 294.787 230.698 294.568 231.025 294.439C231.232 294.354 231.458 294.309 231.697 294.309C232.709 294.309 233.534 295.135 233.534 296.147V304.616C233.526 304.867 233.332 305.061 233.089 305.061ZM202.047 304.187H232.652V296.155C232.652 295.625 232.219 295.192 231.689 295.192C231.568 295.192 231.45 295.212 231.345 295.256C231.167 295.325 231.017 295.443 230.916 295.588L229.249 297.879C228.674 298.676 227.743 299.149 226.76 299.149H223.871C222.807 299.149 221.835 298.611 221.265 297.713L219.958 295.637C219.832 295.443 219.638 295.293 219.411 295.228C219.322 295.2 219.233 295.188 219.14 295.188H218.792C218.545 295.188 218.307 295.281 218.129 295.455L216.344 297.158C214.847 298.583 212.892 299.428 210.832 299.546L207.623 299.728C205.802 299.829 204.139 300.816 203.172 302.37L202.047 304.187Z" fill="black"/>
<path d="M233.089 308.967H201.262C201.019 308.967 200.825 308.772 200.825 308.529V304.624C200.825 304.382 201.019 304.187 201.262 304.187C201.505 304.187 201.699 304.382 201.699 304.624V308.092H232.652V304.624C232.652 304.382 232.846 304.187 233.089 304.187C233.332 304.187 233.526 304.382 233.526 304.624V308.529C233.526 308.768 233.332 308.967 233.089 308.967Z" fill="black"/>
<path d="M219.557 295.192C219.318 295.192 219.12 294.997 219.12 294.759L219.108 292.492C219.108 292.25 219.302 292.055 219.541 292.051C219.776 292.039 219.978 292.246 219.982 292.488L219.994 294.75C219.994 294.993 219.8 295.192 219.557 295.192Z" fill="black"/>
<path d="M231.135 295.192H231.131C230.888 295.187 230.698 294.989 230.698 294.75L230.726 292.484C230.73 292.242 230.92 292.035 231.167 292.051C231.41 292.055 231.6 292.254 231.6 292.492L231.572 294.759C231.572 295.001 231.373 295.192 231.135 295.192Z" fill="black"/>
<path d="M214.701 150.438C214.564 150.438 214.43 150.373 214.345 150.256L205.001 137.254C204.86 137.06 204.904 136.785 205.102 136.643C205.301 136.501 205.572 136.546 205.713 136.744L215.057 149.746C215.199 149.94 215.154 150.216 214.956 150.357C214.879 150.414 214.79 150.438 214.701 150.438Z" fill="black"/>
<path d="M263.593 295.875C263.35 295.875 263.156 295.681 263.156 295.438V292.804C263.156 292.561 263.35 292.367 263.593 292.367C263.836 292.367 264.03 292.561 264.03 292.804V295.438C264.03 295.681 263.832 295.875 263.593 295.875Z" fill="black"/>
<path d="M274.507 296.151C274.264 296.151 274.07 295.956 274.07 295.714V292.804C274.07 292.561 274.264 292.367 274.507 292.367C274.75 292.367 274.944 292.561 274.944 292.804V295.714C274.944 295.952 274.75 296.151 274.507 296.151Z" fill="black"/>
<path d="M273.155 301.246C272.038 301.246 270.893 300.282 268.854 298.567L268.591 298.344C266.312 296.43 265.382 297.397 263.969 298.862C263.548 299.299 263.115 299.748 262.606 300.157C262.015 300.639 261.642 300.78 261.323 300.655C261.124 300.578 260.987 300.4 260.955 300.165C260.922 299.938 260.825 299.255 263.213 295.216C263.334 295.01 263.605 294.941 263.811 295.062C264.018 295.184 264.087 295.455 263.965 295.661C262.735 297.741 262.16 298.951 261.938 299.566C261.974 299.538 262.015 299.51 262.055 299.473C262.521 299.101 262.937 298.668 263.338 298.251C264.771 296.766 266.248 295.232 269.153 297.672L269.416 297.895C272.641 300.606 273.042 300.865 274.422 299.768C274.778 299.485 274.968 299.024 274.988 298.405C275.037 296.924 274.122 295.107 274.114 295.086C274.005 294.872 274.09 294.609 274.304 294.5C274.519 294.39 274.782 294.475 274.891 294.69C274.932 294.771 275.915 296.725 275.858 298.429C275.83 299.319 275.531 299.999 274.964 300.448C274.296 300.991 273.73 301.246 273.155 301.246ZM261.82 300.044H261.825H261.82Z" fill="black"/>
<path d="M259.931 325.538C258.818 325.538 257.758 325.295 256.787 324.801C254.69 323.737 253.395 321.637 253.48 319.443C253.509 318.695 253.772 317.566 254.29 315.996C255.524 312.244 257.96 306.761 259.741 302.755C260.21 301.703 260.635 300.744 260.987 299.93C261.242 299.356 261.456 298.858 261.618 298.453C261.707 298.231 261.962 298.121 262.189 298.21C262.411 298.299 262.521 298.554 262.432 298.781C262.266 299.194 262.047 299.7 261.788 300.282C261.436 301.092 261.007 302.055 260.538 303.111C258.765 307.097 256.337 312.556 255.119 316.267C254.634 317.74 254.375 318.816 254.35 319.476C254.278 321.329 255.386 323.11 257.179 324.02C259.777 325.335 263.136 324.603 266.401 322.001C273.034 316.716 275.575 308.125 275.818 307.267L275.118 298.457C275.098 298.214 275.28 298.004 275.519 297.988C275.765 297.968 275.972 298.15 275.988 298.388L276.696 307.275C276.7 307.324 276.696 307.372 276.684 307.421C276.583 307.809 274.126 316.967 266.948 322.685C264.584 324.566 262.152 325.538 259.931 325.538Z" fill="black"/>
<path d="M260.161 321.806C258.628 321.806 257.098 321.438 255.985 320.698C254.407 319.646 253.8 317.986 254.282 316.024C254.338 315.789 254.577 315.647 254.812 315.704C255.046 315.761 255.188 316 255.131 316.234C254.739 317.833 255.204 319.124 256.471 319.969C258.486 321.313 262.205 321.24 264.127 319.824C267.142 317.602 272.475 308.695 274.75 304.895C275.094 304.321 275.369 303.864 275.551 303.564C275.676 303.358 275.947 303.297 276.154 303.422C276.36 303.548 276.421 303.819 276.295 304.025C276.113 304.321 275.842 304.774 275.498 305.345C273.196 309.193 267.797 318.201 264.645 320.528C263.492 321.378 261.825 321.806 260.161 321.806Z" fill="black"/>
<path d="M241.757 186.162C241.612 186.162 241.466 186.089 241.385 185.956C240.863 185.114 240.713 183.783 241.009 182.646C241.223 181.808 241.644 181.197 242.223 180.873C243.299 180.266 244.578 180.371 245.707 180.46L245.856 180.473C246.909 180.558 248.086 180.554 248.839 179.918C249.021 179.76 249.3 179.785 249.454 179.971C249.612 180.157 249.588 180.432 249.401 180.586C248.406 181.428 247.014 181.444 245.784 181.347L245.634 181.335C244.582 181.25 243.489 181.165 242.647 181.638C242.287 181.84 242.004 182.277 241.854 182.868C241.62 183.779 241.733 184.859 242.13 185.503C242.255 185.709 242.194 185.976 241.988 186.106C241.915 186.142 241.838 186.162 241.757 186.162Z" fill="black"/>
<path d="M239.782 196.38C239.6 196.38 239.41 196.348 239.22 196.279C238.601 196.048 238.14 195.405 238.055 194.644C237.982 194.009 238.148 193.39 238.305 192.859C239.062 190.322 240.155 187.882 241.559 185.6C241.927 184.997 242.32 184.41 242.716 183.856C242.858 183.661 243.129 183.613 243.327 183.754C243.526 183.896 243.57 184.167 243.428 184.366C243.04 184.904 242.664 185.474 242.308 186.057C240.944 188.271 239.884 190.646 239.147 193.11C239.005 193.58 238.872 194.074 238.929 194.543C238.969 194.903 239.171 195.324 239.532 195.457C240.005 195.631 240.612 195.292 241.344 194.442L243.101 192.398C244.238 191.075 245.371 189.756 246.504 188.432C246.662 188.25 246.937 188.23 247.119 188.384C247.301 188.542 247.325 188.817 247.168 188.999C246.035 190.322 244.897 191.645 243.764 192.965L242.008 195.008C241.684 195.381 240.818 196.38 239.782 196.38Z" fill="black"/>
<path d="M245.023 194.555C245.019 194.555 245.015 194.555 245.011 194.555C244.472 194.547 243.918 194.304 243.562 193.912C243.267 193.592 243.125 193.195 243.153 192.795C243.169 192.556 243.384 192.37 243.623 192.39C243.865 192.406 244.043 192.617 244.027 192.859C244.011 193.058 244.116 193.22 244.209 193.317C244.408 193.531 244.727 193.673 245.023 193.677C245.63 193.701 246.233 193.313 246.751 192.969L246.828 192.916C248.466 191.824 250 190.553 251.392 189.133C251.562 188.959 251.837 188.959 252.011 189.124C252.185 189.294 252.185 189.57 252.015 189.744C250.583 191.208 249.001 192.516 247.321 193.636L247.273 193.669C247.269 193.673 247.232 193.697 247.228 193.701C246.605 194.114 245.869 194.555 245.023 194.555Z" fill="black"/>
<path d="M249.142 194.935C247.77 194.935 246.848 194.357 246.65 193.357C246.601 193.118 246.755 192.892 246.994 192.843C247.228 192.795 247.459 192.949 247.507 193.187C247.686 194.082 248.993 194.078 249.389 194.053C250.348 194.001 251.23 193.414 251.89 192.904C253.873 191.378 254.909 189.671 256.026 187.235C256.127 187.016 256.386 186.919 256.604 187.02C256.823 187.121 256.92 187.38 256.819 187.599C255.641 190.16 254.545 191.961 252.42 193.596C251.659 194.183 250.632 194.863 249.434 194.927C249.337 194.935 249.239 194.935 249.142 194.935Z" fill="black"/>
<path d="M282.726 187.858H278.25C275.976 187.858 274.126 186.008 274.126 183.734V179.259C274.126 176.984 275.976 175.135 278.25 175.135H282.726C285 175.135 286.849 176.984 286.849 179.259V183.734C286.849 186.008 285 187.858 282.726 187.858ZM278.254 176.013C276.461 176.013 275.009 177.47 275.009 179.263V183.738C275.009 185.531 276.465 186.988 278.254 186.988H282.73C284.522 186.988 285.979 185.531 285.979 183.738V179.263C285.979 177.47 284.522 176.013 282.73 176.013H278.254Z" fill="black"/>
<path d="M282.673 182.743C282.56 182.743 282.45 182.698 282.365 182.613L279.561 179.809C279.48 179.728 279.432 179.615 279.432 179.501V175.576C279.432 175.333 279.626 175.139 279.869 175.139C280.111 175.139 280.306 175.333 280.306 175.576V179.319L282.981 181.998C283.151 182.168 283.151 182.447 282.981 182.617C282.896 182.698 282.786 182.743 282.673 182.743Z" fill="black"/>
<path d="M282.374 185.648C282.26 185.648 282.151 185.604 282.062 185.519L278.756 182.209H274.806C274.564 182.209 274.369 182.014 274.369 181.772C274.369 181.529 274.564 181.335 274.806 181.335H278.938C279.055 181.335 279.165 181.379 279.25 181.464L282.681 184.9C282.851 185.07 282.851 185.349 282.681 185.519C282.596 185.604 282.483 185.648 282.374 185.648Z" fill="black"/>
<path d="M285.008 204.21H272.059C270.938 204.21 270.023 203.296 270.023 202.175C270.023 201.628 270.233 201.119 270.618 200.734C270.998 200.35 271.512 200.135 272.059 200.135H285.008C286.129 200.135 287.043 201.05 287.043 202.175C287.043 202.721 286.833 203.231 286.448 203.615C286.064 203.996 285.554 204.21 285.008 204.21ZM272.059 201.005C271.747 201.005 271.456 201.127 271.237 201.345C271.019 201.568 270.897 201.859 270.897 202.171C270.897 202.81 271.419 203.332 272.059 203.332H285.008C285.319 203.332 285.611 203.211 285.829 202.992C286.048 202.774 286.169 202.482 286.169 202.171C286.169 201.527 285.647 201.005 285.008 201.005H272.059Z" fill="black"/>
<path d="M263.516 204.21H250.575C249.45 204.21 248.535 203.296 248.535 202.175C248.535 201.624 248.75 201.115 249.138 200.73C249.515 200.346 250.028 200.135 250.579 200.135H263.52C264.641 200.135 265.556 201.05 265.556 202.175C265.556 202.721 265.345 203.231 264.961 203.615C264.576 203.996 264.062 204.21 263.516 204.21ZM250.575 201.005C250.263 201.005 249.972 201.127 249.753 201.345C249.531 201.568 249.409 201.859 249.409 202.171C249.409 202.81 249.931 203.332 250.575 203.332H263.516C263.828 203.332 264.119 203.211 264.338 202.992C264.556 202.774 264.677 202.482 264.677 202.171C264.677 201.527 264.155 201.005 263.516 201.005H250.575Z" fill="black"/>
<path d="M242.024 204.21H229.083C227.958 204.21 227.043 203.296 227.043 202.175C227.043 201.625 227.258 201.115 227.642 200.73C228.023 200.346 228.533 200.131 229.083 200.131H242.024C243.149 200.131 244.064 201.046 244.064 202.171C244.064 202.713 243.849 203.227 243.465 203.612C243.084 203.996 242.571 204.21 242.024 204.21ZM229.083 201.006C228.771 201.006 228.48 201.127 228.262 201.345C228.039 201.568 227.918 201.859 227.918 202.171C227.918 202.81 228.44 203.332 229.083 203.332H242.024C242.336 203.332 242.627 203.211 242.846 202.992C243.068 202.77 243.19 202.479 243.19 202.171C243.19 201.528 242.668 201.006 242.024 201.006H229.083Z" fill="black"/>
<path d="M238.884 128.262C238.398 128.262 237.921 128.214 237.452 128.121C233.988 127.401 231.471 123.71 232.053 120.218C232.057 120.177 232.065 120.145 232.069 120.117C232.126 119.882 232.361 119.736 232.596 119.789C232.83 119.841 232.976 120.072 232.923 120.307C232.923 120.319 232.919 120.331 232.919 120.343C232.405 123.346 234.651 126.644 237.63 127.267C239.75 127.704 242.178 126.992 244.29 125.308C246.233 123.763 247.69 121.654 248.976 119.797L249.017 119.744C249.033 119.724 249.049 119.7 249.065 119.679C249.195 119.477 249.466 119.416 249.668 119.546C249.871 119.675 249.931 119.947 249.802 120.149C249.778 120.189 249.749 120.226 249.721 120.266L249.693 120.303C248.102 122.605 246.735 124.491 244.837 125.996C242.975 127.469 240.871 128.262 238.884 128.262ZM232.591 120.234H232.6L232.494 120.21L232.591 120.234Z" fill="black"/>
<path d="M157.416 154.036C157.376 154.036 157.336 154.036 157.295 154.032C157.093 154.02 156.907 153.971 156.733 153.894C155.956 153.526 155.725 152.575 155.903 151.867C156.089 151.155 156.603 150.608 157.032 150.216C158.885 148.5 161.378 147.339 164.446 146.76C167.157 146.25 171.62 147.254 174.449 148.46C174.671 148.553 174.773 148.812 174.68 149.034C174.586 149.257 174.327 149.362 174.105 149.265C171.398 148.112 167.149 147.14 164.607 147.618C161.706 148.164 159.355 149.253 157.627 150.855C157.287 151.171 156.882 151.592 156.753 152.081C156.66 152.445 156.769 152.939 157.109 153.101C157.178 153.133 157.259 153.154 157.352 153.158C157.643 153.178 157.999 153.053 158.303 152.935C158.57 152.834 158.954 152.64 159.395 152.413C161.884 151.151 166.513 148.808 170.714 151.98C170.908 152.126 170.944 152.401 170.799 152.591C170.653 152.785 170.378 152.822 170.188 152.676C166.42 149.831 162.107 152.017 159.792 153.19C159.306 153.437 158.926 153.627 158.614 153.749C158.262 153.89 157.845 154.036 157.416 154.036Z" fill="black"/>
<path d="M170.119 157.475C168.16 157.475 166.202 157.046 164.433 156.201L164.34 156.156C164.255 156.116 164.17 156.071 164.089 156.027C163.644 155.78 163.329 155.533 163.098 155.246C162.932 155.043 162.803 154.796 162.73 154.533C162.616 154.149 162.637 153.752 162.79 153.421C163.037 152.878 163.628 152.502 164.328 152.437C164.818 152.389 165.283 152.482 165.732 152.571L165.886 152.599C167.776 152.951 169.184 152.749 170.192 151.984C170.354 151.859 170.503 151.725 170.641 151.575C170.807 151.397 171.082 151.389 171.26 151.551C171.438 151.717 171.446 151.992 171.284 152.17C171.11 152.356 170.928 152.522 170.726 152.68C169.512 153.607 167.877 153.862 165.728 153.461L165.566 153.429C165.158 153.348 164.773 153.275 164.409 153.307C164.118 153.336 163.725 153.477 163.584 153.785C163.519 153.926 163.515 154.104 163.567 154.291C163.612 154.44 163.681 154.582 163.774 154.695C163.932 154.894 164.166 155.072 164.506 155.258C164.575 155.294 164.652 155.335 164.729 155.371L164.818 155.416C167.59 156.743 170.88 156.965 173.83 156.031C173.943 155.998 174.036 155.97 174.129 155.938C174.356 155.853 174.607 155.974 174.688 156.201C174.769 156.427 174.651 156.678 174.425 156.759C174.311 156.8 174.194 156.836 174.077 156.868C172.798 157.273 171.458 157.475 170.119 157.475Z" fill="black"/>
<path d="M158.768 156.334C158.598 156.334 158.432 156.322 158.274 156.294C157.619 156.189 157.052 155.82 156.769 155.315C156.474 154.801 156.498 154.169 156.793 153.708C156.818 153.587 156.895 153.481 157.016 153.421L157.113 153.372C157.307 153.263 157.554 153.32 157.684 153.506C157.813 153.688 157.781 153.939 157.611 154.088C157.417 154.258 157.38 154.619 157.53 154.882C157.684 155.157 158.024 155.367 158.42 155.432C158.687 155.476 158.987 155.468 159.314 155.404C159.452 155.383 159.578 155.355 159.695 155.327C160.642 155.096 161.536 154.712 162.349 154.182C162.552 154.048 162.823 154.109 162.956 154.311C163.09 154.513 163.029 154.784 162.827 154.918C161.929 155.505 160.945 155.926 159.901 156.181C159.76 156.217 159.61 156.249 159.46 156.27C159.221 156.314 158.991 156.334 158.768 156.334Z" fill="black"/>
<path d="M160.682 157.706C160.294 157.706 159.938 157.609 159.642 157.419C159.116 157.079 158.853 156.456 158.999 155.897C159.059 155.663 159.298 155.521 159.533 155.586C159.768 155.646 159.905 155.885 159.845 156.12C159.796 156.306 159.913 156.553 160.112 156.682C160.33 156.82 160.634 156.864 160.974 156.8C161.301 156.739 161.621 156.593 162.005 156.411C162.612 156.124 163.228 155.841 163.839 155.553C164.057 155.452 164.316 155.545 164.421 155.764C164.522 155.982 164.429 156.241 164.211 156.346C163.6 156.63 162.989 156.917 162.382 157.2C162.034 157.362 161.601 157.569 161.135 157.658C160.982 157.69 160.828 157.706 160.682 157.706Z" fill="black"/>
<path d="M231.94 120.825C231.734 120.825 231.547 120.675 231.511 120.465C231.467 120.226 231.624 119.999 231.863 119.955C232.033 119.922 232.203 119.886 232.373 119.837C233.826 119.461 235.141 118.615 236.08 117.45C237.14 116.127 237.35 114.921 236.832 113.144C236.764 112.913 236.897 112.671 237.128 112.602C237.358 112.533 237.601 112.667 237.67 112.897C238.273 114.957 238.01 116.434 236.76 117.996C235.699 119.307 234.222 120.262 232.596 120.683C232.405 120.736 232.215 120.78 232.021 120.813C231.993 120.825 231.968 120.825 231.94 120.825Z" fill="black"/>
<path d="M249.672 120.715C249.6 120.715 249.531 120.699 249.462 120.663C249.409 120.635 249.353 120.598 249.3 120.566L249.231 120.517C249.167 120.469 249.102 120.424 249.041 120.367C246.536 118.308 245.755 111.258 248.479 104.921C248.576 104.699 248.835 104.598 249.053 104.691C249.276 104.788 249.377 105.043 249.284 105.265C246.536 111.655 247.641 118.081 249.612 119.7C249.664 119.748 249.709 119.781 249.753 119.813L249.798 119.845C249.806 119.849 249.847 119.874 249.883 119.894C250.093 120.011 250.174 120.274 250.057 120.489C249.976 120.635 249.826 120.715 249.672 120.715Z" fill="black"/>
<path d="M238.224 113.464C237.881 113.464 237.537 113.444 237.201 113.399C236.42 113.314 235.659 113.104 234.939 112.788C231.131 111.105 229.459 106.961 229.168 103.647C228.852 100.005 230.556 93.1011 231.6 89.3094C231.665 89.0747 231.904 88.9411 232.138 89.0059C232.373 89.0706 232.507 89.3094 232.442 89.5441C231.612 92.5507 229.722 99.9359 230.038 103.574C230.378 107.426 232.438 110.732 235.291 111.991C235.926 112.274 236.602 112.456 237.302 112.533C237.889 112.61 238.483 112.614 239.086 112.541C239.321 112.513 239.544 112.683 239.572 112.926C239.6 113.164 239.43 113.383 239.188 113.411C238.868 113.448 238.544 113.464 238.224 113.464Z" fill="black"/>
<path d="M249.83 105.532C249.486 105.532 249.142 105.476 248.811 105.366C248.454 105.241 248.147 105.075 247.888 104.86C247.702 104.707 247.673 104.432 247.827 104.245C247.981 104.059 248.256 104.031 248.442 104.185C248.62 104.33 248.839 104.452 249.094 104.541C249.632 104.723 250.227 104.699 250.725 104.472C251.461 104.136 251.979 103.371 252.007 102.566V102.493C252.007 102.485 252.003 102.445 252.003 102.437C251.987 101.664 251.542 100.927 250.874 100.563C250.591 100.405 250.284 100.336 250.016 100.369C249.883 100.385 249.77 100.421 249.681 100.482C249.478 100.616 249.207 100.559 249.074 100.357C248.94 100.154 248.997 99.8831 249.199 99.7495C249.409 99.6119 249.648 99.527 249.911 99.4986C250.348 99.442 250.858 99.5472 251.295 99.794C252.222 100.304 252.841 101.32 252.873 102.388C252.882 102.441 252.882 102.493 252.877 102.55C252.877 102.554 252.877 102.594 252.877 102.598C252.833 103.727 252.113 104.8 251.081 105.269C250.696 105.443 250.267 105.532 249.83 105.532Z" fill="black"/>
<path d="M249.972 100.146C249.883 100.146 249.798 100.122 249.721 100.065C248.685 99.3287 248.082 98.0338 248.191 96.7672C248.212 96.5122 248.26 96.2654 248.305 96.0266C248.386 95.5977 248.463 95.189 248.373 94.8288C248.159 94.0033 247.091 93.6067 246.237 93.4165L245.994 93.3639C244.978 93.1454 243.829 92.8985 243.141 91.9921C242.68 91.3851 242.562 90.6567 242.453 89.9526C242.433 89.819 242.409 89.6814 242.388 89.5519C242.283 88.949 242.036 88.1801 241.462 87.9414C241.029 87.7633 240.495 87.9009 239.896 88.083C238.504 88.512 237.112 88.9409 235.724 89.3698C234.708 89.6855 233.445 90.078 232.199 89.8231C232.102 89.8028 232.025 89.7826 231.948 89.7624C230.851 89.4305 229.787 88.4351 229.86 87.1644C229.86 87.1361 229.864 87.0794 229.868 87.0228C229.892 86.784 230.099 86.606 230.346 86.6262C230.584 86.6505 230.762 86.8609 230.742 87.1037C230.738 87.1361 230.734 87.1644 230.734 87.1927C230.685 88.0263 231.45 88.7021 232.191 88.9247C232.248 88.9409 232.308 88.953 232.373 88.9692C233.401 89.1837 234.497 88.8397 235.469 88.5403C236.857 88.1154 238.249 87.6864 239.641 87.2534C240.199 87.0835 241.041 86.8245 241.802 87.1401C242.546 87.4517 243.052 88.2368 243.254 89.4063C243.279 89.5438 243.303 89.6814 243.323 89.8231C243.42 90.4463 243.513 91.0371 243.845 91.4701C244.335 92.1175 245.274 92.3199 246.184 92.5141L246.431 92.5667C248.001 92.9107 248.968 93.6188 249.227 94.6143C249.369 95.1647 249.268 95.6907 249.171 96.1966C249.126 96.4232 249.086 96.6377 249.07 96.8481C248.989 97.7991 249.454 98.8067 250.231 99.3611C250.429 99.5027 250.474 99.7738 250.336 99.9721C250.243 100.081 250.105 100.146 249.972 100.146Z" fill="black"/>
<path d="M252.355 102.926C252.242 102.926 252.133 102.886 252.052 102.805C251.882 102.635 251.87 102.368 252.04 102.198C252.06 102.178 252.084 102.153 252.109 102.133C252.113 102.129 252.141 102.105 252.145 102.097C253.116 101.218 254.326 100.122 255.059 98.8026C255.662 97.7141 256.062 96.0752 255.37 94.7317C255.233 94.4646 255.055 94.2137 254.868 93.9466C254.557 93.5055 254.237 93.0483 254.075 92.4858C253.853 91.7129 253.99 90.944 254.124 90.2034C254.229 89.6167 254.33 89.0623 254.249 88.5322C253.97 86.7314 251.684 85.918 250.992 85.7116C250.579 85.5902 250.146 85.481 249.725 85.3798C248.487 85.0763 247.204 84.7647 246.14 83.9716C245.537 83.5264 245.059 82.964 244.598 82.4177C244.339 82.1142 244.096 81.8268 243.829 81.5598C241.672 79.3705 238.188 78.6866 235.359 79.9006C232.579 81.0903 230.629 84.1456 230.722 87.1684C230.73 87.4112 230.54 87.6095 230.297 87.6176C230.293 87.6176 230.289 87.6176 230.285 87.6176C230.05 87.6176 229.856 87.4315 229.848 87.1927C229.743 83.7692 231.867 80.4388 235.015 79.0913C238.168 77.7397 242.049 78.5045 244.452 80.9406C244.74 81.232 245.007 81.5436 245.262 81.8471C245.711 82.3772 246.14 82.8749 246.662 83.2634C247.584 83.9513 248.726 84.2306 249.936 84.526C250.364 84.6312 250.814 84.7404 251.247 84.8699C252.295 85.1815 254.771 86.1487 255.119 88.3946C255.225 89.0663 255.107 89.7219 254.99 90.3532C254.868 91.0249 254.755 91.6602 254.921 92.2389C255.042 92.6598 255.305 93.0402 255.589 93.4408C255.787 93.72 255.989 94.0114 256.155 94.3311C256.876 95.7312 256.754 97.5603 255.832 99.2235C255.026 100.668 253.76 101.817 252.74 102.74C252.732 102.748 252.712 102.768 252.687 102.789C252.594 102.882 252.477 102.926 252.355 102.926Z" fill="black"/>
<path d="M140 308.962H117.197C117.075 308.962 116.958 308.91 116.873 308.821C116.792 308.732 116.748 308.61 116.76 308.489L122.263 243.698C122.283 243.471 122.474 243.297 122.7 243.297H140.392C140.51 243.297 140.619 243.342 140.704 243.427C140.785 243.508 140.833 243.621 140.829 243.738L140.437 308.529C140.437 308.768 140.242 308.962 140 308.962ZM117.678 308.088H139.567L139.955 244.171H123.105L117.678 308.088Z" fill="black"/>
<path d="M171.325 308.962H140C139.882 308.962 139.773 308.918 139.688 308.833C139.607 308.752 139.558 308.639 139.562 308.521L139.955 243.73C139.955 243.491 140.153 243.297 140.392 243.297H161.495C161.71 243.297 161.896 243.455 161.928 243.669L171.758 308.461C171.778 308.586 171.742 308.716 171.657 308.813C171.576 308.91 171.454 308.962 171.325 308.962ZM140.441 308.088H170.815L161.119 244.171H140.825L140.441 308.088Z" fill="black"/>
<path d="M117.201 308.962C117.043 308.962 116.893 308.877 116.816 308.732C116.703 308.517 116.784 308.254 116.994 308.141L128.373 302.043L130.919 243.714C130.931 243.471 131.15 243.293 131.376 243.297C131.619 243.309 131.805 243.512 131.793 243.754L129.239 302.33C129.231 302.484 129.146 302.621 129.009 302.698L117.411 308.914C117.342 308.946 117.269 308.962 117.201 308.962Z" fill="black"/>
<path d="M140 308.963C139.927 308.963 139.854 308.946 139.789 308.906L128.584 302.69C128.374 302.573 128.297 302.306 128.414 302.095C128.531 301.885 128.798 301.808 129.009 301.925L140.214 308.141C140.425 308.258 140.501 308.525 140.384 308.736C140.303 308.882 140.153 308.963 140 308.963Z" fill="black"/>
<path d="M152.366 276.569C148.85 276.569 145.989 273.708 145.989 270.191V251.487C145.989 251.245 146.183 251.05 146.426 251.05C146.669 251.05 146.863 251.245 146.863 251.487V270.191C146.863 273.226 149.331 275.691 152.366 275.691C155.401 275.691 157.866 273.222 157.866 270.191V251.487C157.866 251.245 158.06 251.05 158.303 251.05C158.546 251.05 158.74 251.245 158.74 251.487V270.191C158.744 273.708 155.883 276.569 152.366 276.569Z" fill="black"/>
<path d="M146.43 253.855C145.26 253.855 144.305 252.795 144.305 251.492C144.305 250.189 145.26 249.124 146.43 249.124C147.599 249.124 148.554 250.184 148.554 251.492C148.554 252.795 147.599 253.855 146.43 253.855ZM146.43 249.998C145.742 249.998 145.179 250.666 145.179 251.488C145.179 252.309 145.742 252.977 146.43 252.977C147.118 252.977 147.68 252.309 147.68 251.488C147.68 250.666 147.118 249.998 146.43 249.998Z" fill="#F67952"/>
<path d="M158.307 253.855C157.239 253.855 156.373 252.795 156.373 251.492C156.373 250.189 157.239 249.124 158.307 249.124C159.375 249.124 160.241 250.184 160.241 251.492C160.241 252.795 159.375 253.855 158.307 253.855ZM158.307 249.998C157.732 249.998 157.247 250.682 157.247 251.488C157.247 252.297 157.732 252.977 158.307 252.977C158.881 252.977 159.367 252.293 159.367 251.488C159.367 250.682 158.881 249.998 158.307 249.998Z" fill="#F67952"/>
<path d="M207.571 292.93H174.623C174.38 292.93 174.186 292.735 174.186 292.492C174.186 292.25 174.38 292.055 174.623 292.055H207.571C207.814 292.055 208.008 292.25 208.008 292.492C208.008 292.735 207.814 292.93 207.571 292.93Z" fill="black"/>
<path d="M223.373 250.893C223.13 250.893 222.936 250.698 222.936 250.456V219.057C222.936 218.815 223.13 218.62 223.373 218.62C223.616 218.62 223.81 218.815 223.81 219.057V250.456C223.81 250.698 223.616 250.893 223.373 250.893Z" fill="black"/>
<path d="M223.373 118.449C223.13 118.449 222.936 118.255 222.936 118.012V39.7615C222.936 33.1128 217.526 27.7024 210.877 27.7024H105.736C99.0877 27.7024 93.6773 33.1128 93.6773 39.7615V101.004C93.6773 101.247 93.4831 101.441 93.2403 101.441C92.9975 101.441 92.8032 101.247 92.8032 101.004V39.7615C92.8032 32.6313 98.6062 26.8284 105.736 26.8284H210.877C218.007 26.8284 223.81 32.6313 223.81 39.7615V118.012C223.81 118.255 223.616 118.449 223.373 118.449Z" fill="black"/>
<path d="M93.2403 214.23C92.9975 214.23 92.8032 214.036 92.8032 213.793V133.438C92.8032 133.195 92.9975 133.001 93.2403 133.001C93.4831 133.001 93.6773 133.195 93.6773 133.438V213.793C93.6773 214.032 93.479 214.23 93.2403 214.23Z" fill="black"/>
<path d="M115.202 292.929H105.732C98.6021 292.929 92.7992 287.126 92.7992 279.996V265.432C92.7992 265.189 92.9934 264.995 93.2362 264.995C93.479 264.995 93.6733 265.189 93.6733 265.432V279.996C93.6733 286.645 99.0837 292.055 105.732 292.055H115.202C115.444 292.055 115.639 292.249 115.639 292.492C115.643 292.735 115.444 292.929 115.202 292.929Z" fill="black"/>
<path d="M207.571 285.079H173.247C173.004 285.079 172.81 284.885 172.81 284.642C172.81 284.399 173.004 284.205 173.247 284.205H207.571C207.814 284.205 208.008 284.399 208.008 284.642C208.008 284.885 207.814 285.079 207.571 285.079Z" fill="black"/>
<path d="M215.527 258.124C215.284 258.124 215.09 257.93 215.09 257.687V218.645C215.09 218.402 215.284 218.208 215.527 218.208C215.769 218.208 215.964 218.402 215.964 218.645V257.687C215.964 257.926 215.765 258.124 215.527 258.124Z" fill="black"/>
<path d="M215.527 120.517C215.284 120.517 215.09 120.323 215.09 120.08V39.7616C215.09 37.4388 213.2 35.5531 210.881 35.5531H186.811C183.08 35.5531 179.548 37.5319 177.597 40.7166C175.489 44.1563 171.673 46.297 167.638 46.297H148.975C144.941 46.297 141.125 44.1603 139.016 40.7166C137.066 37.5319 133.537 35.5531 129.802 35.5531H105.736C103.414 35.5531 101.528 37.4428 101.528 39.7616V97.0827C101.528 97.3255 101.334 97.5197 101.091 97.5197C100.848 97.5197 100.654 97.3255 100.654 97.0827V39.7616C100.654 36.9572 102.936 34.6749 105.74 34.6749H129.806C133.841 34.6749 137.657 36.8116 139.765 40.2553C141.715 43.44 145.244 45.4188 148.979 45.4188H167.642C171.377 45.4188 174.906 43.44 176.857 40.2553C178.965 36.8116 182.781 34.6749 186.816 34.6749H210.885C213.689 34.6749 215.972 36.9572 215.972 39.7616V120.08C215.964 120.323 215.765 120.517 215.527 120.517Z" fill="black"/>
<path d="M101.087 220.632C100.844 220.632 100.65 220.437 100.65 220.195V132.058C100.65 131.815 100.844 131.621 101.087 131.621C101.329 131.621 101.524 131.815 101.524 132.058V220.191C101.524 220.437 101.329 220.632 101.087 220.632Z" fill="black"/>
<path d="M115.756 285.079H105.736C102.932 285.079 100.65 282.796 100.65 279.992V260.471C100.65 260.228 100.844 260.034 101.087 260.034C101.329 260.034 101.524 260.228 101.524 260.471V279.992C101.524 282.315 103.414 284.201 105.732 284.201H115.752C115.995 284.201 116.189 284.395 116.189 284.638C116.193 284.885 115.995 285.079 115.756 285.079Z" fill="black"/>
<path d="M158.307 40.5062C156.279 40.5062 154.632 38.8592 154.632 36.8318C154.632 34.8045 156.279 33.1575 158.307 33.1575C160.334 33.1575 161.981 34.8045 161.981 36.8318C161.981 38.8592 160.33 40.5062 158.307 40.5062ZM158.307 34.0356C156.765 34.0356 155.506 35.2901 155.506 36.8359C155.506 38.3777 156.761 39.6362 158.307 39.6362C159.848 39.6362 161.107 38.3817 161.107 36.8359C161.107 35.2901 159.848 34.0356 158.307 34.0356Z" fill="black"/>
<path d="M195.981 203.162H120.632C116.225 203.162 112.636 199.577 112.636 195.166V126.676C112.636 122.269 116.221 118.68 120.632 118.68H195.981C200.388 118.68 203.977 122.265 203.977 126.676V133.438C203.977 133.681 203.783 133.875 203.54 133.875C203.298 133.875 203.103 133.681 203.103 133.438V126.676C203.103 122.751 199.911 119.554 195.981 119.554H120.632C116.707 119.554 113.514 122.747 113.514 126.676V195.17C113.514 199.095 116.707 202.288 120.632 202.288H195.981C199.906 202.288 203.103 199.095 203.103 195.17V160.923C203.103 160.68 203.298 160.486 203.54 160.486C203.783 160.486 203.977 160.68 203.977 160.923V195.17C203.977 199.577 200.392 203.162 195.981 203.162Z" fill="black"/>
<path d="M195.981 101.724H120.632C120.394 101.724 120.151 101.712 119.916 101.692C119.677 101.672 119.499 101.457 119.52 101.218C119.54 100.98 119.754 100.802 119.993 100.822C120.203 100.842 120.418 100.85 120.632 100.85H195.981C199.907 100.85 203.103 97.6574 203.103 93.728V74.8099C203.103 70.8846 199.911 67.6918 195.981 67.6918H129.389C129.147 67.6918 128.952 67.4975 128.952 67.2547C128.952 67.0119 129.147 66.8177 129.389 66.8177H195.981C200.388 66.8177 203.978 70.403 203.978 74.8139V93.7321C203.978 98.1389 200.392 101.724 195.981 101.724Z" fill="black"/>
<path d="M159.792 80.1392H133.586C133.343 80.1392 133.149 79.945 133.149 79.7022C133.149 79.4594 133.343 79.2651 133.586 79.2651H159.792C160.035 79.2651 160.229 79.4594 160.229 79.7022C160.229 79.945 160.035 80.1392 159.792 80.1392Z" fill="black"/>
<path d="M159.792 84.2709H133.586C133.343 84.2709 133.149 84.0767 133.149 83.8339C133.149 83.5911 133.343 83.3969 133.586 83.3969H159.792C160.035 83.3969 160.229 83.5911 160.229 83.8339C160.229 84.0727 160.035 84.2709 159.792 84.2709Z" fill="black"/>
<path d="M159.792 88.4025H133.586C133.343 88.4025 133.149 88.2082 133.149 87.9654C133.149 87.7226 133.343 87.5284 133.586 87.5284H159.792C160.035 87.5284 160.229 87.7226 160.229 87.9654C160.229 88.2042 160.035 88.4025 159.792 88.4025Z" fill="black"/>
<path d="M150.663 176.563H126.949C126.706 176.563 126.512 176.369 126.512 176.126C126.512 175.883 126.706 175.689 126.949 175.689H150.663C150.905 175.689 151.1 175.883 151.1 176.126C151.1 176.369 150.905 176.563 150.663 176.563Z" fill="black"/>
<path d="M150.663 180.695H126.949C126.706 180.695 126.512 180.501 126.512 180.258C126.512 180.015 126.706 179.821 126.949 179.821H150.663C150.905 179.821 151.1 180.015 151.1 180.258C151.1 180.501 150.905 180.695 150.663 180.695Z" fill="black"/>
<path d="M150.663 184.827H126.949C126.706 184.827 126.512 184.632 126.512 184.39C126.512 184.147 126.706 183.953 126.949 183.953H150.663C150.905 183.953 151.1 184.147 151.1 184.39C151.1 184.632 150.905 184.827 150.663 184.827Z" fill="black"/>
<path d="M185.536 85.0744C186.213 81.5607 183.913 78.1638 180.399 77.4872C176.885 76.8106 173.488 79.1105 172.812 82.6242C172.135 86.1379 174.435 89.5348 177.949 90.2114C181.462 90.888 184.859 88.5881 185.536 85.0744Z" fill="#F67952"/>
<path d="M179.167 90.778C175.355 90.778 172.251 87.6742 172.251 83.8622C172.251 80.0503 175.355 76.9465 179.167 76.9465C182.979 76.9465 186.083 80.0503 186.083 83.8622C186.083 87.6742 182.983 90.778 179.167 90.778ZM179.167 77.8205C175.837 77.8205 173.13 80.5318 173.13 83.8582C173.13 87.1845 175.841 89.8999 179.167 89.8999C182.498 89.8999 185.209 87.1886 185.209 83.8582C185.209 80.5278 182.498 77.8205 179.167 77.8205Z" fill="black"/>
<path d="M290.087 97.6452C289.985 97.6452 289.888 97.6128 289.803 97.5441C289.617 97.3862 289.597 97.1111 289.751 96.929C290.944 95.5167 292.041 93.9789 293.012 92.3643C293.138 92.1579 293.405 92.0891 293.611 92.2146C293.818 92.34 293.886 92.6071 293.761 92.8135C292.765 94.4686 291.645 96.0387 290.418 97.4914C290.337 97.5926 290.212 97.6452 290.087 97.6452ZM295.594 88.7506C295.537 88.7506 295.477 88.7385 295.42 88.7142C295.198 88.6171 295.096 88.3581 295.193 88.1396C295.938 86.4319 296.561 84.6514 297.047 82.8385C297.112 82.6038 297.35 82.4662 297.581 82.5309C297.816 82.5956 297.953 82.8344 297.889 83.0651C297.391 84.9184 296.751 86.7435 295.991 88.4876C295.922 88.6535 295.76 88.7506 295.594 88.7506ZM298.427 78.6785C298.407 78.6785 298.386 78.6785 298.366 78.6744C298.127 78.6421 297.961 78.4195 297.994 78.1807C298.237 76.4447 298.358 74.6804 298.358 72.9363L298.354 72.5801C298.35 72.3373 298.544 72.1391 298.787 72.1391H298.791C299.03 72.1391 299.224 72.3333 299.228 72.572L299.232 72.9363C299.232 74.7208 299.107 76.5297 298.86 78.3062C298.831 78.5207 298.641 78.6785 298.427 78.6785ZM298.439 68.2178C298.224 68.2178 298.038 68.06 298.006 67.8415C297.747 65.976 297.338 64.1307 296.792 62.3663C296.719 62.1357 296.849 61.8888 297.083 61.82C297.314 61.7472 297.557 61.8807 297.63 62.1074C298.188 63.9203 298.605 65.806 298.872 67.7201C298.904 67.9588 298.738 68.1814 298.5 68.2138C298.479 68.2138 298.459 68.2178 298.439 68.2178ZM295.485 58.1861C295.319 58.1861 295.161 58.0931 295.088 57.9352C294.307 56.2559 293.377 54.6129 292.324 53.0509C292.191 52.8486 292.243 52.5774 292.442 52.4439C292.64 52.3104 292.915 52.363 293.049 52.5613C294.125 54.1637 295.076 55.8431 295.877 57.563C295.979 57.7815 295.885 58.0405 295.667 58.1457C295.61 58.174 295.546 58.1861 295.485 58.1861ZM289.759 49.4332C289.637 49.4332 289.516 49.3806 289.431 49.2835C288.201 47.8793 286.857 46.552 285.433 45.338C285.251 45.1801 285.227 44.905 285.384 44.7229C285.542 44.5408 285.817 44.5165 285.999 44.6743C287.456 45.9126 288.832 47.2723 290.087 48.7088C290.244 48.8909 290.228 49.1661 290.046 49.328C289.961 49.3968 289.86 49.4332 289.759 49.4332ZM264.714 47.4422C262.513 47.4422 260.619 46.8393 259.372 45.7467C259.19 45.5889 259.174 45.3096 259.332 45.1275C259.49 44.9454 259.769 44.9292 259.947 45.0871C261.08 46.0826 262.881 46.6127 264.977 46.5641C265.224 46.5439 265.418 46.7502 265.426 46.989C265.43 47.2318 265.24 47.4301 265.001 47.4382C264.904 47.4382 264.811 47.4422 264.714 47.4422ZM269.639 46.3375C269.477 46.3375 269.323 46.2485 269.246 46.0947C269.141 45.8802 269.23 45.6172 269.445 45.5079C269.53 45.4675 269.61 45.4229 269.691 45.3825C271.225 44.565 272.649 43.521 273.928 42.2827C274.102 42.1168 274.377 42.1168 274.547 42.2908C274.713 42.4648 274.709 42.74 274.535 42.91C273.196 44.2049 271.703 45.2975 270.1 46.1554C270.011 46.2039 269.918 46.2485 269.829 46.297C269.768 46.3213 269.704 46.3375 269.639 46.3375ZM281.868 42.5579C281.787 42.5579 281.702 42.5336 281.629 42.4851C280.059 41.4532 278.408 40.5386 276.716 39.7657C276.498 39.6645 276.401 39.4055 276.502 39.187C276.567 39.0454 276.7 38.9564 276.842 38.9361C276.83 38.835 276.85 38.7338 276.907 38.6407C277.902 37.107 278.724 35.4196 279.343 33.635C279.424 33.4084 279.67 33.287 279.901 33.3639C280.128 33.4448 280.249 33.6916 280.172 33.9223C279.529 35.7757 278.679 37.5198 277.643 39.1182C277.623 39.1506 277.599 39.1789 277.57 39.2032C279.128 39.9437 280.65 40.8016 282.107 41.7567C282.309 41.8902 282.366 42.1613 282.232 42.3637C282.151 42.4891 282.009 42.5579 281.868 42.5579ZM258.357 41.4855C258.32 41.4855 258.284 41.4815 258.243 41.4693C258.009 41.4086 257.871 41.1699 257.932 40.9352C258.421 39.0778 259.963 37.4308 261.954 36.6376C262.177 36.5486 262.432 36.6579 262.521 36.8804C262.61 37.103 262.5 37.3579 262.274 37.447C260.562 38.1268 259.19 39.5836 258.773 41.1537C258.729 41.356 258.551 41.4855 258.357 41.4855ZM272.407 38.0985C272.366 38.0985 272.322 38.0904 272.277 38.0782C271.342 37.7909 270.391 37.5441 269.445 37.3417C268.465 37.1313 267.603 36.9937 266.81 36.9249C266.567 36.9047 266.393 36.6902 266.414 36.4515C266.434 36.2127 266.648 36.0306 266.887 36.0549C267.717 36.1277 268.611 36.2694 269.627 36.4879C270.594 36.6943 271.573 36.9492 272.532 37.2406C272.763 37.3094 272.892 37.5562 272.823 37.7869C272.767 37.9771 272.593 38.0985 272.407 38.0985ZM280.889 29.5519C280.868 29.5519 280.848 29.5519 280.828 29.5479C280.589 29.5155 280.423 29.2929 280.456 29.0542C280.617 27.9211 280.698 26.7718 280.698 25.6388C280.698 24.9185 280.666 24.1941 280.601 23.4859C280.581 23.2472 280.755 23.0327 280.998 23.0125C281.232 22.9882 281.451 23.1663 281.471 23.4091C281.54 24.1455 281.572 24.8942 281.572 25.6428C281.572 26.8164 281.487 28.0061 281.321 29.1796C281.293 29.3941 281.103 29.5519 280.889 29.5519ZM280.103 19.1681C279.917 19.1681 279.743 19.0467 279.687 18.8606C279.492 18.2374 279.266 17.6183 279.019 17.0234C278.558 15.9227 277.999 14.8382 277.364 13.8063C277.238 13.5999 277.299 13.3328 277.505 13.2034C277.712 13.0779 277.979 13.1427 278.108 13.345C278.768 14.4133 279.347 15.5383 279.824 16.6835C280.083 17.3026 280.318 17.946 280.52 18.5976C280.593 18.8282 280.464 19.0751 280.233 19.1439C280.188 19.1641 280.144 19.1681 280.103 19.1681ZM224.583 16.7361C224.494 16.7361 224.409 16.7118 224.332 16.6552C224.134 16.5135 224.089 16.2424 224.227 16.0441C225.328 14.4942 226.554 13.001 227.881 11.613C228.047 11.439 228.326 11.4309 228.5 11.5968C228.674 11.7627 228.682 12.042 228.517 12.216C227.222 13.5756 226.02 15.0324 224.943 16.5499C224.854 16.6713 224.721 16.7361 224.583 16.7361ZM274.835 10.1926C274.717 10.1926 274.6 10.1441 274.511 10.051C273.269 8.69941 271.86 7.45304 270.323 6.35234C270.124 6.21071 270.08 5.93958 270.221 5.74129C270.363 5.54705 270.634 5.49849 270.833 5.64013C272.419 6.77724 273.872 8.06003 275.154 9.45614C275.316 9.63419 275.304 9.90936 275.13 10.0753C275.045 10.1522 274.94 10.1926 274.835 10.1926ZM231.721 9.0798C231.596 9.0798 231.471 9.02719 231.382 8.92198C231.228 8.73583 231.256 8.46066 231.442 8.30688C232.931 7.08479 234.51 5.97195 236.136 4.99671C236.343 4.87126 236.614 4.94005 236.735 5.14643C236.861 5.35281 236.792 5.62394 236.586 5.74534C234.995 6.70035 233.449 7.78891 231.997 8.98268C231.916 9.04742 231.819 9.0798 231.721 9.0798ZM266.454 3.9648C266.389 3.9648 266.325 3.94862 266.26 3.92029C264.589 3.09477 262.828 2.42302 261.031 1.92933C260.797 1.86458 260.663 1.62583 260.728 1.39112C260.793 1.15642 261.036 1.02288 261.266 1.08762C263.116 1.60155 264.928 2.28948 266.648 3.13928C266.867 3.2445 266.956 3.50753 266.847 3.72605C266.77 3.87578 266.616 3.9648 266.454 3.9648ZM240.64 3.6087C240.47 3.6087 240.308 3.51158 240.24 3.34566C240.143 3.1231 240.244 2.86816 240.466 2.77104C242.247 2.00217 244.08 1.38303 245.913 0.929802C246.148 0.873149 246.387 1.01478 246.443 1.24949C246.5 1.4842 246.358 1.7189 246.124 1.7796C244.335 2.22069 242.55 2.82364 240.814 3.57632C240.754 3.59656 240.697 3.6087 240.64 3.6087ZM256.43 1.03906C256.414 1.03906 256.398 1.03906 256.382 1.03502C255.135 0.901476 253.877 0.848868 252.635 0.885289C252.024 0.901475 251.404 0.937897 250.789 0.99455C250.534 1.01478 250.336 0.836729 250.316 0.597975C250.296 0.359222 250.474 0.144749 250.712 0.124516C251.344 0.0678622 251.983 0.0314427 252.61 0.0112093C253.893 -0.0252107 255.188 0.0273949 256.475 0.164982C256.714 0.189262 256.888 0.407783 256.863 0.646536C256.843 0.87315 256.653 1.03906 256.43 1.03906Z" fill="#F67952"/>
<path d="M19.7366 129.804C19.6759 129.804 19.6112 129.792 19.5505 129.764C17.8306 128.958 16.1634 127.971 14.5933 126.834C14.3991 126.692 14.3545 126.417 14.4962 126.223C14.6378 126.029 14.913 125.984 15.1072 126.126C16.6328 127.231 18.2515 128.186 19.9228 128.971C20.1413 129.072 20.2344 129.335 20.1332 129.553C20.0603 129.711 19.9025 129.804 19.7366 129.804ZM11.1819 123.819C11.0727 123.819 10.9594 123.779 10.8744 123.694C9.52282 122.37 8.26025 120.902 7.11909 119.34C6.97746 119.145 7.01793 118.87 7.21621 118.728C7.41045 118.587 7.68563 118.631 7.82726 118.826C8.94009 120.351 10.1703 121.78 11.4895 123.071C11.6635 123.241 11.6635 123.516 11.4935 123.69C11.4086 123.775 11.2953 123.819 11.1819 123.819ZM4.90557 115.455C4.75179 115.455 4.60206 115.374 4.52113 115.228C3.61063 113.553 2.82153 111.788 2.17002 109.984C2.08908 109.757 2.20644 109.506 2.43305 109.425C2.65966 109.344 2.91056 109.462 2.99149 109.688C3.62682 111.453 4.39973 113.172 5.29 114.811C5.40735 115.022 5.32642 115.289 5.11599 115.406C5.0472 115.434 4.97841 115.455 4.90557 115.455ZM1.23928 105.654C1.03695 105.654 0.858896 105.516 0.814382 105.31C0.397575 103.428 0.122401 101.514 0.00100058 99.6201C-0.0151861 99.3773 0.166915 99.1709 0.409715 99.1547C0.652515 99.1385 0.858896 99.3206 0.875083 99.5634C0.992436 101.413 1.25952 103.282 1.66823 105.12C1.72084 105.354 1.57111 105.589 1.3364 105.642C1.30403 105.65 1.27165 105.654 1.23928 105.654ZM0.458273 95.2254C0.446133 95.2254 0.438042 95.2254 0.425902 95.2254C0.183102 95.2092 0.00504848 94.9988 0.0212352 94.756C0.158822 92.8662 0.442087 90.9562 0.866988 89.0745C0.919594 88.8398 1.1543 88.69 1.38901 88.7426C1.62372 88.7953 1.77344 89.03 1.72084 89.2647C1.30807 91.1018 1.02885 92.9714 0.895314 94.8167C0.879128 95.0474 0.684887 95.2254 0.458273 95.2254ZM2.63134 84.9873C2.58278 84.9873 2.53422 84.9792 2.48566 84.9631C2.25904 84.8821 2.13764 84.6312 2.21858 84.4046C2.84986 82.6241 3.61468 80.8516 4.4928 79.1358C4.60206 78.9214 4.8651 78.8364 5.07957 78.9457C5.29405 79.0549 5.37902 79.3179 5.26976 79.5324C4.40782 81.2118 3.65919 82.9519 3.04005 84.696C2.97935 84.8781 2.80939 84.9873 2.63134 84.9873ZM7.30119 75.6193C7.22026 75.6193 7.13528 75.595 7.06244 75.5465C6.86011 75.4129 6.80345 75.1418 6.93699 74.9395C7.97699 73.3532 9.13029 71.8073 10.3686 70.3465C10.5264 70.1644 10.8016 70.1401 10.9837 70.2939C11.1698 70.4517 11.19 70.7269 11.0363 70.909C9.82227 72.3455 8.6892 73.863 7.66944 75.417C7.58041 75.5505 7.44283 75.6193 7.30119 75.6193ZM13.9903 67.5583C13.877 67.5583 13.7597 67.5138 13.6747 67.4248C13.5088 67.2508 13.5128 66.9756 13.6868 66.8056C15.0627 65.4783 16.5276 64.2279 18.0451 63.0787C18.2353 62.933 18.5105 62.9694 18.6562 63.1636C18.8018 63.3579 18.7654 63.629 18.5712 63.7747C17.082 64.8997 15.6414 66.1339 14.2938 67.4329C14.2089 67.5179 14.0996 67.5583 13.9903 67.5583ZM22.2901 61.1646C22.1403 61.1646 21.9987 61.0877 21.9137 60.9542C21.7883 60.7478 21.853 60.4767 22.0594 60.3553C23.674 59.376 25.3777 58.4695 27.1177 57.6642C27.3363 57.5631 27.5952 57.6602 27.6964 57.8787C27.7976 58.0972 27.7005 58.3562 27.4819 58.4574C25.7702 59.2505 24.0949 60.1408 22.5086 61.1039C22.4438 61.1444 22.3669 61.1646 22.2901 61.1646ZM31.7552 56.6768C31.5772 56.6768 31.4072 56.5635 31.3425 56.3855C31.2615 56.1589 31.3789 55.908 31.6055 55.827C33.3779 55.1917 35.2232 54.6373 37.0887 54.1719C37.3234 54.1112 37.5622 54.2569 37.6189 54.4916C37.6755 54.7263 37.5339 54.9651 37.2992 55.0217C35.462 55.479 33.645 56.0253 31.9009 56.6485C31.8523 56.6687 31.8038 56.6768 31.7552 56.6768ZM41.9043 54.0708C41.6938 54.0708 41.5077 53.917 41.4753 53.7025C41.4349 53.4638 41.5967 53.2412 41.8355 53.2007C43.6969 52.8972 45.607 52.6706 47.521 52.533C47.7679 52.5209 47.9702 52.699 47.9905 52.9377C48.0066 53.1805 47.8245 53.3869 47.5858 53.4071C45.7 53.5407 43.8143 53.7632 41.9812 54.0627C41.9528 54.0667 41.9286 54.0708 41.9043 54.0708ZM58.0383 53.4962C58.0262 53.4962 58.0141 53.4962 57.9979 53.4962C56.1243 53.3302 54.2264 53.2453 52.3568 53.2412C52.114 53.2412 51.9198 53.0429 51.9198 52.8042C51.9198 52.5614 52.114 52.3671 52.3568 52.3671C54.2507 52.3712 56.1728 52.4562 58.0707 52.6261C58.3095 52.6464 58.4875 52.8608 58.4673 53.0996C58.4511 53.3262 58.2609 53.4962 58.0383 53.4962Z" fill="#F67952"/>
<path d="M148.154 160.154L145.365 141.596V133.438H142.266V138.181C142.266 140.066 140.736 141.596 138.85 141.596C136.965 141.596 135.435 140.066 135.435 138.181V133.438H132.335V141.596H132.351L129.458 160.154H148.154Z" fill="#F67952"/>
<path d="M148.154 160.591H129.458C129.329 160.591 129.207 160.535 129.126 160.437C129.041 160.34 129.005 160.211 129.025 160.085L131.898 141.649C131.894 141.633 131.894 141.612 131.894 141.596V133.438C131.894 133.195 132.088 133.001 132.331 133.001H135.431C135.674 133.001 135.868 133.195 135.868 133.438V138.181C135.868 139.824 137.203 141.159 138.846 141.159C140.489 141.159 141.825 139.824 141.825 138.181V133.438C141.825 133.195 142.019 133.001 142.262 133.001H145.361C145.604 133.001 145.798 133.195 145.798 133.438V141.564L148.583 160.089C148.603 160.215 148.566 160.344 148.481 160.442C148.4 160.535 148.279 160.591 148.154 160.591ZM129.972 159.717H147.648L144.937 141.665C144.932 141.645 144.932 141.62 144.932 141.6V133.875H142.707V138.181C142.707 140.305 140.979 142.033 138.854 142.033C136.73 142.033 135.002 140.305 135.002 138.181V133.875H132.776V141.491C132.792 141.548 132.797 141.608 132.788 141.665L129.972 159.717Z" fill="black"/>
<path d="M174.582 179.818C174.704 179.971 174.765 180.17 174.765 180.408C174.765 180.728 174.643 180.971 174.404 181.141C174.166 181.311 173.818 181.4 173.356 181.4H171.604V177.73H173.251C173.672 177.73 173.996 177.815 174.222 177.98C174.453 178.146 174.566 178.381 174.566 178.676C174.566 178.867 174.522 179.037 174.433 179.174C174.344 179.312 174.222 179.421 174.073 179.494C174.295 179.555 174.461 179.664 174.582 179.818ZM172.134 178.154V179.328H173.211C173.482 179.328 173.688 179.279 173.834 179.178C173.98 179.077 174.052 178.931 174.052 178.741C174.052 178.547 173.98 178.401 173.834 178.304C173.688 178.203 173.482 178.154 173.211 178.154H172.134ZM174.012 180.829C174.162 180.732 174.239 180.578 174.239 180.368C174.239 179.959 173.939 179.753 173.34 179.753H172.134V180.975H173.34C173.64 180.975 173.862 180.926 174.012 180.829Z" fill="#F67952"/>
<path d="M177.006 181.023C176.735 180.744 176.598 180.343 176.598 179.817V177.729H177.12V179.793C177.12 180.578 177.464 180.97 178.152 180.97C178.488 180.97 178.743 180.873 178.921 180.679C179.099 180.485 179.188 180.189 179.188 179.789V177.725H179.698V179.813C179.698 180.339 179.56 180.744 179.289 181.023C179.018 181.302 178.633 181.44 178.144 181.44C177.654 181.44 177.278 181.302 177.006 181.023Z" fill="#F67952"/>
<path d="M183.178 180.129V181.399H182.66V180.12L181.203 177.729H181.765L182.939 179.663L184.116 177.729H184.634L183.178 180.129Z" fill="#F67952"/>
<path d="M183.874 187.825H172.697C168.29 187.825 164.704 184.24 164.704 179.833C164.704 175.426 168.29 171.841 172.697 171.841H183.874C188.28 171.841 191.866 175.426 191.866 179.833C191.862 184.24 188.28 187.825 183.874 187.825ZM172.697 172.719C168.771 172.719 165.583 175.912 165.583 179.833C165.583 183.754 168.775 186.947 172.697 186.947H183.874C187.799 186.947 190.988 183.754 190.988 179.833C190.988 175.912 187.795 172.719 183.874 172.719H172.697Z" fill="black"/>
<path d="M60.6323 15.2509L56.3752 10.9938C54.1941 8.81268 50.6532 8.81268 48.4721 10.9938L44.215 15.2509C42.0338 17.4321 42.0338 20.9729 44.215 23.1541L48.4721 27.4112C50.6532 29.5923 54.1941 29.5923 56.3752 27.4112L60.6323 23.1541C62.8135 20.9689 62.8135 17.4321 60.6323 15.2509Z" fill="#F67952"/>
<path d="M57.5771 27.306C56.0353 27.306 54.4895 26.7193 53.316 25.5457L49.0589 21.2886C46.7078 18.9375 46.7078 15.1175 49.0589 12.7663L53.316 8.50925C55.6671 6.15813 59.4871 6.15813 61.8383 8.50925L66.0953 12.7663C68.4465 15.1175 68.4465 18.9375 66.0953 21.2886L61.8383 25.5457C60.6607 26.7193 59.1189 27.306 57.5771 27.306ZM57.5771 7.62303C56.2579 7.62303 54.9387 8.12481 53.9351 9.12839L49.678 13.3855C47.6709 15.3926 47.6709 18.6623 49.678 20.6695L53.9351 24.9266C55.9423 26.9337 59.212 26.9337 61.2191 24.9266L65.4762 20.6695C67.4834 18.6623 67.4834 15.3926 65.4762 13.3855L61.2191 9.12839C60.2155 8.12481 58.8963 7.62303 57.5771 7.62303Z" fill="black"/>
<path d="M322.699 100.7L320.004 98.0053C318.62 96.6214 316.378 96.6214 314.998 98.0053L312.303 100.7C310.919 102.084 310.919 104.326 312.303 105.706L314.998 108.401C316.382 109.785 318.62 109.785 320.004 108.401L322.699 105.706C324.079 104.322 324.079 102.08 322.699 100.7Z" fill="#F67952"/>
<path d="M309.676 112.29C308.616 112.29 307.617 111.877 306.864 111.125L304.169 108.43C303.416 107.677 303.003 106.682 303.003 105.617C303.003 104.553 303.416 103.557 304.169 102.805L306.864 100.11C307.617 99.357 308.612 98.9443 309.676 98.9443C310.737 98.9443 311.736 99.357 312.489 100.11L315.184 102.805C315.937 103.557 316.349 104.553 316.349 105.617C316.349 106.682 315.937 107.677 315.184 108.43L312.489 111.125C311.736 111.877 310.737 112.29 309.676 112.29ZM309.676 99.8184C308.847 99.8184 308.07 100.142 307.483 100.729L304.788 103.424C304.201 104.011 303.878 104.788 303.878 105.617C303.878 106.447 304.201 107.224 304.788 107.811L307.483 110.506C308.07 111.092 308.847 111.416 309.676 111.416C310.506 111.416 311.283 111.092 311.87 110.506L314.565 107.811C315.152 107.224 315.475 106.447 315.475 105.617C315.475 104.788 315.152 104.011 314.565 103.424L311.87 100.729C311.283 100.142 310.506 99.8184 309.676 99.8184Z" fill="black"/>
<path d="M178.285 12.3091C177.795 12.3091 177.338 12.1189 176.99 11.7749L175.93 10.7147C175.218 10.0025 175.218 8.84109 175.93 8.12887L176.99 7.06865C177.334 6.72468 177.795 6.53448 178.285 6.53448C178.775 6.53448 179.232 6.72468 179.58 7.06865L180.64 8.12887C181.352 8.84109 181.352 10.0025 180.64 10.7147L179.58 11.7749C179.232 12.1189 178.775 12.3091 178.285 12.3091ZM178.285 7.40452C178.03 7.40452 177.791 7.50569 177.609 7.68374L176.549 8.74397C176.177 9.11626 176.177 9.72326 176.549 10.0956L177.609 11.1558C177.969 11.5159 178.601 11.5159 178.961 11.1558L180.021 10.0956C180.393 9.72326 180.393 9.11626 180.021 8.74397L178.961 7.68374C178.779 7.50164 178.54 7.40452 178.285 7.40452Z" fill="#F67952"/>
<path d="M119.952 18.5612C119.681 18.5612 119.41 18.46 119.204 18.2496L118.73 17.7761C118.317 17.3634 118.317 16.6916 118.73 16.2789L119.204 15.8054C119.616 15.3927 120.288 15.3927 120.701 15.8054L121.174 16.2789C121.587 16.6916 121.587 17.3634 121.174 17.7761L120.701 18.2496C120.495 18.456 120.223 18.5612 119.952 18.5612ZM119.952 16.372C119.904 16.372 119.859 16.3881 119.823 16.4246L119.349 16.898C119.277 16.9709 119.277 17.0882 119.349 17.157L119.823 17.6305C119.896 17.7033 120.013 17.7033 120.082 17.6305L120.555 17.157C120.628 17.0842 120.628 16.9668 120.555 16.898L120.082 16.4246C120.049 16.3881 120.001 16.372 119.952 16.372Z" fill="#F67952"/>
<path d="M24.8638 100.563C24.3782 100.563 23.9169 100.373 23.5729 100.029L22.5167 98.9724C21.8045 98.2602 21.8045 97.1028 22.5167 96.3947L23.5729 95.3385C24.2851 94.6263 25.4384 94.6263 26.1506 95.3385L27.2068 96.3947C27.919 97.1069 27.919 98.2602 27.2068 98.9724L26.1506 100.029C25.8107 100.373 25.3534 100.563 24.8638 100.563ZM24.8638 95.6784C24.621 95.6784 24.3782 95.7715 24.192 95.9576L23.1358 97.0138C22.7676 97.3821 22.7676 97.985 23.1358 98.3533L24.192 99.4094C24.5603 99.7777 25.1632 99.7777 25.5315 99.4094L26.5877 98.3533C26.9559 97.985 26.9559 97.3821 26.5877 97.0138L25.5315 95.9576C25.3494 95.7715 25.1066 95.6784 24.8638 95.6784Z" fill="#F67952"/>
<path d="M14.1239 174.123C13.4521 174.123 12.7804 173.868 12.2705 173.358L10.6073 171.695C9.58353 170.671 9.58353 169.008 10.6073 167.988L12.2705 166.325C13.2943 165.301 14.9535 165.301 15.9773 166.325L17.6404 167.988C18.1341 168.482 18.4093 169.142 18.4093 169.842C18.4093 170.542 18.1382 171.201 17.6404 171.695L15.9773 173.358C15.4674 173.868 14.7956 174.123 14.1239 174.123ZM14.1239 166.43C13.6747 166.43 13.2296 166.6 12.8897 166.94L11.2265 168.603C10.5466 169.283 10.5466 170.392 11.2265 171.072L12.8897 172.735C13.5695 173.415 14.6783 173.415 15.3581 172.735L17.0213 171.072C17.3531 170.74 17.5312 170.303 17.5312 169.838C17.5312 169.372 17.3491 168.931 17.0213 168.603L15.3581 166.94C15.0182 166.6 14.569 166.43 14.1239 166.43Z" fill="#F67952"/>
</svg>
